# Blender 4.0.2
# www.blender.org
mtllib brick.mtl
o Cube
v 2.000000 -0.328830 -1.000000
v 2.000000 -0.328830 1.000000
v -2.000000 -0.328830 -1.000000
v -2.000000 -0.328830 1.000000
v -2.000000 1.000000 -1.000000
v -1.000000 1.000000 -1.000000
v 0.000000 1.000000 -1.000000
v 1.000000 1.000000 -1.000000
v 2.000000 1.000000 -1.000000
v -2.000000 1.000000 1.000000
v -2.000000 1.000000 0.000000
v -1.000000 1.000000 0.000000
v -1.000000 1.000000 1.000000
v 0.000000 1.000000 1.000000
v 0.000000 1.000000 0.000000
v 1.000000 1.000000 0.000000
v 2.000000 1.000000 0.000000
v 2.000000 1.000000 1.000000
v 1.000000 1.000000 1.000000
v 1.659728 1.000000 -0.840921
v 1.840921 1.000000 -0.659728
v 1.969043 1.000000 -0.969043
v 1.813598 1.000000 0.632406
v 1.632406 1.000000 0.813598
v 1.941720 1.000000 0.941720
v -1.797993 1.000000 -0.616801
v -1.616801 1.000000 -0.797993
v -1.926115 1.000000 -0.926115
v -1.621246 1.000000 0.802438
v -1.802438 1.000000 0.621246
v -1.930560 1.000000 0.930560
v -0.172508 1.000000 0.646300
v -0.353700 1.000000 0.827492
v -0.044385 1.000000 0.955615
v 1.840921 1.000000 -0.340272
v 1.659728 1.000000 -0.159079
v 1.969043 1.000000 -0.030957
v -1.616801 1.000000 -0.202007
v -1.797993 1.000000 -0.383199
v -1.926115 1.000000 -0.073885
v -0.370629 1.000000 -0.810563
v -0.189437 1.000000 -0.629371
v -0.061315 1.000000 -0.938685
v -0.189437 1.000000 -0.370629
v -0.370629 1.000000 -0.189437
v -0.061315 1.000000 -0.061315
v -1.197562 1.000000 0.621246
v -1.378754 1.000000 0.802438
v -1.069440 1.000000 0.930560
v 0.634196 1.000000 -0.815388
v 0.815388 1.000000 -0.634196
v 0.943510 1.000000 -0.943510
v 0.826306 1.000000 0.645113
v 0.645113 1.000000 0.826306
v 0.954428 1.000000 0.954428
v -1.383199 1.000000 -0.797993
v -1.202007 1.000000 -0.616801
v -1.073885 1.000000 -0.926115
v 0.815388 1.000000 -0.365804
v 0.634196 1.000000 -0.184612
v 0.943510 1.000000 -0.056490
v -1.202007 1.000000 -0.383199
v -1.383199 1.000000 -0.202007
v -1.073885 1.000000 -0.073885
v -1.802438 1.000000 0.378754
v -1.621246 1.000000 0.197562
v -1.930560 1.000000 0.069440
v -0.810563 1.000000 -0.629371
v -0.629371 1.000000 -0.810563
v -0.938685 1.000000 -0.938685
v -0.629371 1.000000 -0.189437
v -0.810563 1.000000 -0.370629
v -0.938685 1.000000 -0.061315
v 0.184612 1.000000 -0.634196
v 0.365804 1.000000 -0.815388
v 0.056490 1.000000 -0.943510
v -1.378754 1.000000 0.197562
v -1.197562 1.000000 0.378754
v -1.069440 1.000000 0.069440
v 0.365804 1.000000 -0.184612
v 0.184612 1.000000 -0.365804
v 0.056490 1.000000 -0.056490
v 1.159079 1.000000 -0.659728
v 1.340272 1.000000 -0.840921
v 1.030957 1.000000 -0.969043
v -0.353700 1.000000 0.172508
v -0.172508 1.000000 0.353700
v -0.044385 1.000000 0.044385
v 1.340272 1.000000 -0.159079
v 1.159079 1.000000 -0.340272
v 1.030957 1.000000 -0.030957
v 0.645113 1.000000 0.173694
v 0.826306 1.000000 0.354887
v 0.954428 1.000000 0.045572
v 1.632406 1.000000 0.186402
v 1.813598 1.000000 0.367594
v 1.941720 1.000000 0.058280
v -0.646300 1.000000 0.827492
v -0.827492 1.000000 0.646300
v -0.955615 1.000000 0.955615
v -0.827492 1.000000 0.353700
v -0.646300 1.000000 0.172508
v -0.955615 1.000000 0.044385
v 0.173694 1.000000 0.354887
v 0.354887 1.000000 0.173694
v 0.045572 1.000000 0.045572
v 0.354887 1.000000 0.826306
v 0.173694 1.000000 0.645113
v 0.045572 1.000000 0.954428
v 1.367594 1.000000 0.813598
v 1.186402 1.000000 0.632406
v 1.058280 1.000000 0.941720
v 1.186402 1.000000 0.367594
v 1.367594 1.000000 0.186402
v 1.058280 1.000000 0.058280
v -1.797993 1.241835 -0.383199
v -1.616801 1.241835 -0.202007
v -1.616801 1.241835 -0.797993
v -1.797993 1.241835 -0.616801
v -1.202007 1.241835 -0.616801
v -1.383199 1.241835 -0.797993
v -1.383199 1.241835 -0.202007
v -1.202007 1.241835 -0.383199
v -0.629371 1.241835 -0.810563
v -0.810563 1.241835 -0.629371
v -0.189437 1.241835 -0.629371
v -0.370629 1.241835 -0.810563
v -0.810563 1.241835 -0.370629
v -0.629371 1.241835 -0.189437
v -0.370629 1.241835 -0.189437
v -0.189437 1.241835 -0.370629
v 0.365804 1.241835 -0.815388
v 0.184612 1.241835 -0.634196
v 0.815388 1.241835 -0.634196
v 0.634196 1.241835 -0.815388
v 0.184612 1.241835 -0.365804
v 0.365804 1.241835 -0.184612
v 0.634196 1.241835 -0.184612
v 0.815388 1.241835 -0.365804
v 1.340272 1.241835 -0.840921
v 1.159079 1.241835 -0.659728
v 1.840921 1.241835 -0.659728
v 1.659728 1.241835 -0.840921
v 1.159079 1.241835 -0.340272
v 1.340272 1.241835 -0.159079
v 1.659728 1.241835 -0.159079
v 1.840921 1.241835 -0.340272
v -1.378754 1.241835 0.802438
v -1.197562 1.241835 0.621246
v -1.802438 1.241835 0.621246
v -1.621246 1.241835 0.802438
v -1.621246 1.241835 0.197562
v -1.802438 1.241835 0.378754
v -1.197562 1.241835 0.378754
v -1.378754 1.241835 0.197562
v -0.646300 1.241835 0.172508
v -0.827492 1.241835 0.353700
v -0.172508 1.241835 0.353700
v -0.353700 1.241835 0.172508
v -0.353700 1.241835 0.827492
v -0.172508 1.241835 0.646300
v -0.827492 1.241835 0.646300
v -0.646300 1.241835 0.827492
v 0.645113 1.241835 0.826306
v 0.826306 1.241835 0.645113
v 0.173694 1.241835 0.645113
v 0.354887 1.241835 0.826306
v 0.354887 1.241835 0.173694
v 0.173694 1.241835 0.354887
v 0.826306 1.241835 0.354887
v 0.645113 1.241835 0.173694
v 1.367594 1.241835 0.186402
v 1.186402 1.241835 0.367594
v 1.813598 1.241835 0.367594
v 1.632406 1.241835 0.186402
v 1.632406 1.241835 0.813598
v 1.813598 1.241835 0.632406
v 1.186402 1.241835 0.632406
v 1.367594 1.241835 0.813598
vn -0.0000 -0.0000 1.0000
vn -1.0000 -0.0000 -0.0000
vn -0.0000 -1.0000 -0.0000
vn 1.0000 -0.0000 -0.0000
vn -0.0000 -0.0000 -1.0000
vn -0.0000 1.0000 -0.0000
vn -0.7071 -0.0000 -0.7071
vn 0.7071 -0.0000 -0.7071
vn 0.7071 -0.0000 0.7071
vn -0.7071 -0.0000 0.7071
vt 0.375000 0.750000
vt 0.625000 0.750000
vt 0.625000 0.812500
vt 0.625000 0.875000
vt 0.625000 0.937500
vt 0.625000 1.000000
vt 0.375000 1.000000
vt 0.375000 0.000000
vt 0.625000 0.000000
vt 0.625000 0.125000
vt 0.625000 0.250000
vt 0.375000 0.250000
vt 0.125000 0.500000
vt 0.375000 0.500000
vt 0.125000 0.750000
vt 0.625000 0.500000
vt 0.625000 0.625000
vt 0.625000 0.312500
vt 0.625000 0.375000
vt 0.625000 0.437500
vt 0.773164 0.523680
vt 0.789336 0.523680
vt 0.647975 0.648300
vt 0.664525 0.648300
vt 0.664525 0.648300
vt 0.816840 0.633680
vt 0.824848 0.672344
vt 0.824848 0.702656
vt 0.816840 0.741320
vt 0.812500 0.750000
vt 0.812500 0.625000
vt 0.675850 0.670949
vt 0.675850 0.704051
vt 0.675850 0.670949
vt 0.710363 0.523077
vt 0.727137 0.523076
vt 0.727137 0.523076
vt 0.710363 0.523076
vt 0.753832 0.507664
vt 0.761840 0.546329
vt 0.761840 0.578671
vt 0.753832 0.617336
vt 0.750000 0.625000
vt 0.750000 0.500000
vt 0.825125 0.577100
vt 0.825125 0.547900
vt 0.825125 0.547900
vt 0.800660 0.546329
vt 0.800660 0.578671
vt 0.836450 0.525251
vt 0.851050 0.525251
vt 0.870382 0.615764
vt 0.862374 0.577100
vt 0.862375 0.547900
vt 0.870382 0.509236
vt 0.875000 0.500000
vt 0.875000 0.625000
vt 0.808668 0.507664
vt 0.812500 0.500000
vt 0.727137 0.601923
vt 0.710363 0.601923
vt 0.710363 0.601923
vt 0.727137 0.601923
vt 0.789336 0.601320
vt 0.773164 0.601320
vt 0.808668 0.617336
vt 0.738462 0.545725
vt 0.738462 0.579274
vt 0.738462 0.579274
vt 0.738462 0.545725
vt 0.699038 0.579274
vt 0.699038 0.545726
vt 0.699038 0.545726
vt 0.677558 0.542534
vt 0.677558 0.582466
vt 0.870660 0.633680
vt 0.851328 0.649695
vt 0.836172 0.649695
vt 0.746469 0.507061
vt 0.691031 0.507061
vt 0.687500 0.500000
vt 0.634943 0.582466
vt 0.634942 0.542534
vt 0.634942 0.582466
vt 0.851050 0.599749
vt 0.836450 0.599749
vt 0.685565 0.503870
vt 0.666233 0.519885
vt 0.646267 0.519885
vt 0.626935 0.503870
vt 0.772106 0.646563
vt 0.790394 0.646563
vt 0.772106 0.646563
vt 0.862652 0.672344
vt 0.862652 0.702656
vt 0.862652 0.702656
vt 0.862652 0.672344
vt 0.836172 0.725305
vt 0.851328 0.725305
vt 0.870660 0.741320
vt 0.875000 0.750000
vt 0.824848 0.702656
vt 0.747152 0.630697
vt 0.727820 0.646712
vt 0.709680 0.646712
vt 0.690348 0.630697
vt 0.687500 0.625000
vt 0.760782 0.705788
vt 0.760782 0.669213
vt 0.760782 0.669213
vt 0.666233 0.605115
vt 0.646267 0.605115
vt 0.747152 0.744303
vt 0.739144 0.705639
vt 0.739144 0.669361
vt 0.750000 0.750000
vt 0.698356 0.705639
vt 0.698356 0.669361
vt 0.698356 0.669361
vt 0.739144 0.705639
vt 0.727820 0.646712
vt 0.727820 0.728288
vt 0.709680 0.728288
vt 0.709680 0.728288
vt 0.727820 0.728288
vt 0.801718 0.669213
vt 0.801718 0.705788
vt 0.801718 0.669213
vt 0.664525 0.726700
vt 0.647975 0.726700
vt 0.628642 0.632285
vt 0.636650 0.670949
vt 0.636650 0.704051
vt 0.628642 0.742715
vt 0.862375 0.547900
vt 0.862374 0.577100
vt 0.790394 0.728437
vt 0.772106 0.728437
vt 0.626935 0.621130
vt 0.690348 0.744304
vt 0.687500 0.750000
vt 0.808668 0.617336
vt 0.626935 0.621130
vt 0.685565 0.621130
vt 0.809726 0.630548
vt 0.752774 0.630548
vt 0.817118 0.509236
vt 0.685565 0.621130
vt 0.685565 0.503870
vt 0.752774 0.744452
vt 0.772106 0.728437
vt 0.809726 0.744452
vt 0.817118 0.615764
vt 0.683858 0.632285
vt 0.691031 0.617939
vt 0.809726 0.744452
vt 0.683858 0.742715
vt 0.746469 0.617939
vt 0.746469 0.617939
vt 0.690348 0.744303
vt 0.634942 0.519885
vt 0.636650 0.726700
vt 0.862375 0.525251
vt 0.862652 0.725305
vt 0.760782 0.728437
vt 0.634942 0.605115
vt 0.862374 0.599749
vt 0.761840 0.523680
vt 0.761840 0.601320
vt 0.824848 0.725305
vt 0.699038 0.523077
vt 0.698356 0.728288
vt 0.825125 0.525251
vt 0.699038 0.601923
vt 0.825125 0.599749
vt 0.862652 0.649695
vt 0.800660 0.523680
vt 0.800660 0.601320
vt 0.738462 0.523076
vt 0.824848 0.649695
vt 0.738462 0.601923
vt 0.677558 0.519885
vt 0.760782 0.646563
vt 0.677558 0.605115
vt 0.698356 0.646712
vt 0.636650 0.648300
vt 0.801718 0.728437
vt 0.801718 0.646563
vt 0.739144 0.646712
vt 0.739144 0.728288
vt 0.675850 0.726700
vt 0.675850 0.648300
s 0
usemtl Material
f 2/1/1 18/2/1 19/3/1 14/4/1 13/5/1 10/6/1 4/7/1
f 4/8/2 10/9/2 11/10/2 5/11/2 3/12/2
f 3/13/3 1/14/3 2/1/3 4/15/3
f 1/14/4 9/16/4 17/17/4 18/2/4 2/1/4
f 3/12/5 5/11/5 6/18/5 7/19/5 8/20/5 9/16/5 1/14/5
f 41/21/5 69/22/5 124/22/5 127/21/5
f 95/23/5 114/24/5 172/25/5 175/23/5
f 79/26/6 78/27/6 47/28/6 49/29/6 13/30/6 12/31/6
f 113/32/2 111/33/2 178/33/2 173/34/2
f 50/35/5 75/36/5 132/37/5 135/38/5
f 43/39/6 42/40/6 44/41/6 46/42/6 15/43/6 7/44/6
f 62/45/4 57/46/4 120/47/4 123/45/4
f 68/48/2 72/49/2 128/49/2 125/48/2
f 56/50/5 27/51/5 118/51/5 121/50/5
f 40/52/6 39/53/6 26/54/6 28/55/6 5/56/6 11/57/6
f 70/58/6 69/22/6 41/21/6 43/39/6 7/44/6 6/59/6
f 80/60/1 60/61/1 138/62/1 137/63/1
f 44/41/4 42/40/4 126/40/4 131/41/4
f 71/64/1 45/65/1 130/65/1 129/64/1
f 46/42/6 45/65/6 71/64/6 73/66/6 12/31/6 15/43/6
f 74/67/2 81/68/2 136/69/2 133/70/2
f 59/71/4 51/72/4 134/73/4 139/71/4
f 83/74/2 90/75/2 144/75/2 141/74/2
f 67/76/6 66/77/6 77/78/6 79/26/6 12/31/6 11/57/6
f 76/79/6 75/37/6 50/38/6 52/80/6 8/81/6 7/44/6
f 35/82/4 21/83/4 142/83/4 147/84/4
f 38/85/1 63/86/1 122/86/1 117/85/1
f 85/87/6 84/88/6 20/89/6 22/90/6 9/16/6 8/81/6
f 86/91/5 102/92/5 156/92/5 159/93/5
f 65/94/2 30/95/2 150/96/2 153/97/2
f 49/29/6 48/98/6 29/99/6 31/100/6 10/101/6 13/30/6
f 77/78/5 66/77/5 152/77/5 155/78/5
f 47/102/4 78/27/4 154/27/4 149/28/4
f 106/103/6 105/104/6 92/105/6 94/106/6 16/107/6 15/43/6
f 32/108/4 87/109/4 158/110/4 161/108/4
f 89/111/1 36/112/1 146/112/1 145/111/1
f 109/113/6 108/114/6 104/115/6 106/103/6 15/43/6 14/116/6
f 53/117/4 93/118/4 170/119/4 165/117/4
f 104/115/2 108/120/2 166/114/2 169/115/2
f 92/105/5 105/121/5 168/104/5 171/105/5
f 107/122/1 54/123/1 164/124/1 167/125/1
f 101/126/2 99/127/2 162/127/2 157/128/2
f 110/129/1 24/130/1 176/130/1 179/129/1
f 97/131/6 96/132/6 23/133/6 25/134/6 18/2/6 17/17/6
f 120/46/6 121/50/6 118/51/6 119/135/6 116/136/6 117/85/6 122/86/6 123/45/6
f 170/118/6 171/105/6 168/121/6 169/115/6 166/120/6 167/122/6 164/123/6 165/117/6
f 154/27/6 155/78/6 152/77/6 153/94/6 150/95/6 151/99/6 148/98/6 149/102/6
f 126/40/6 127/21/6 124/22/6 125/48/6 128/49/6 129/64/6 130/65/6 131/41/6
f 142/83/6 143/89/6 140/88/6 141/74/6 144/75/6 145/111/6 146/112/6 147/82/6
f 174/132/6 175/23/6 172/24/6 173/32/6 178/33/6 179/129/6 176/130/6 177/133/6
f 158/109/6 159/91/6 156/92/6 157/126/6 162/127/6 163/137/6 160/138/6 161/108/6
f 134/72/6 135/35/6 132/36/6 133/67/6 136/68/6 137/60/6 138/61/6 139/71/6
f 22/90/6 21/83/6 35/84/6 37/139/6 17/17/6 9/16/6
f 94/106/6 93/119/6 53/117/6 55/140/6 19/141/6 16/107/6
f 73/142/6 72/49/6 68/48/6 70/58/6 6/59/6 12/31/6
f 37/143/6 36/112/6 89/111/6 91/144/6 16/107/6 17/17/6
f 23/133/4 96/132/4 174/132/4 177/133/4
f 103/145/6 102/92/6 86/93/6 88/146/6 15/43/6 12/31/6
f 28/55/6 27/51/6 56/50/6 58/147/6 6/59/6 5/56/6
f 91/148/6 90/75/6 83/74/6 85/149/6 8/81/6 16/107/6
f 34/150/6 33/151/6 98/137/6 100/152/6 13/30/6 14/116/6
f 29/99/1 48/98/1 148/98/1 151/99/1
f 88/146/6 87/110/6 32/108/6 34/150/6 14/116/6 15/43/6
f 64/153/6 63/86/6 38/85/6 40/52/6 11/57/6 12/31/6
f 115/154/6 114/25/6 95/23/6 97/131/6 17/17/6 16/107/6
f 52/80/6 51/73/6 59/71/6 61/155/6 16/107/6 8/81/6
f 100/156/6 99/127/6 101/128/6 103/145/6 12/31/6 13/30/6
f 58/147/6 57/47/6 62/45/6 64/153/6 12/31/6 6/59/6
f 25/134/6 24/130/6 110/129/6 112/157/6 19/141/6 18/2/6
f 82/158/6 81/69/6 74/70/6 76/79/6 7/44/6 15/43/6
f 26/135/2 39/136/2 116/53/2 119/54/2
f 61/155/6 60/62/6 80/63/6 82/159/6 15/43/6 16/107/6
f 31/100/6 30/96/6 65/97/6 67/76/6 11/57/6 10/101/6
f 112/157/6 111/33/6 113/34/6 115/154/6 16/107/6 19/141/6
f 55/160/6 54/124/6 107/125/6 109/113/6 14/116/6 19/141/6
f 98/137/1 33/138/1 160/151/1 163/137/1
f 20/89/6 21/161/6 22/90/6
f 23/133/6 24/162/6 25/134/6
f 26/135/6 27/163/6 28/55/6
f 29/99/6 30/164/6 31/100/6
f 32/108/6 33/165/6 34/150/6
f 35/82/6 36/166/6 37/143/6
f 38/85/6 39/167/6 40/52/6
f 41/21/6 42/168/6 43/39/6
f 44/41/6 45/169/6 46/42/6
f 47/102/6 48/170/6 49/29/6
f 50/35/6 51/171/6 52/80/6
f 53/117/6 54/172/6 55/160/6
f 56/50/6 57/173/6 58/147/6
f 59/71/6 60/174/6 61/155/6
f 62/45/6 63/175/6 64/153/6
f 65/94/6 66/176/6 67/76/6
f 68/48/6 69/177/6 70/58/6
f 71/64/6 72/178/6 73/142/6
f 74/67/6 75/179/6 76/79/6
f 77/78/6 78/180/6 79/26/6
f 80/60/6 81/181/6 82/158/6
f 83/74/6 84/182/6 85/87/6
f 86/91/6 87/183/6 88/146/6
f 89/111/6 90/184/6 91/148/6
f 92/105/6 93/185/6 94/106/6
f 95/23/6 96/186/6 97/131/6
f 98/137/6 99/187/6 100/156/6
f 101/126/6 102/188/6 103/145/6
f 104/115/6 105/189/6 106/103/6
f 107/122/6 108/190/6 109/113/6
f 110/129/6 111/191/6 112/157/6
f 113/32/6 114/192/6 115/154/6
f 65/94/7 153/97/7 152/77/7 66/77/7
f 154/27/8 78/27/8 77/78/8 155/78/8
f 53/117/9 165/117/9 164/124/9 54/123/9
f 166/114/10 108/120/10 107/122/10 167/125/10
f 68/48/7 125/48/7 124/22/7 69/22/7
f 126/40/8 42/40/8 41/21/8 127/21/8
f 148/98/9 48/98/9 47/102/9 149/28/9
f 168/104/7 105/121/7 104/115/7 169/115/7
f 44/41/9 131/41/9 130/65/9 45/65/9
f 128/49/10 72/49/10 71/64/10 129/64/10
f 170/119/8 93/118/8 92/105/8 171/105/8
f 83/74/7 141/74/7 140/88/7 84/88/7
f 142/83/8 21/83/8 20/89/8 143/89/8
f 35/82/9 147/84/9 146/112/9 36/112/9
f 144/75/10 90/75/10 89/111/10 145/111/10
f 101/126/7 157/128/7 156/92/7 102/92/7
f 158/110/8 87/109/8 86/91/8 159/93/8
f 38/85/10 117/85/10 116/53/10 39/136/10
f 118/51/7 27/51/7 26/135/7 119/54/7
f 32/108/9 161/108/9 160/151/9 33/138/9
f 162/127/10 99/127/10 98/137/10 163/137/10
f 120/47/8 57/46/8 56/50/8 121/50/8
f 62/45/9 123/45/9 122/86/9 63/86/9
f 113/32/7 173/34/7 172/25/7 114/24/7
f 174/132/8 96/132/8 95/23/8 175/23/8
f 74/67/7 133/70/7 132/37/7 75/36/7
f 134/73/8 51/72/8 50/35/8 135/38/8
f 176/130/9 24/130/9 23/133/9 177/133/9
f 80/60/10 137/63/10 136/69/10 81/68/10
f 178/33/10 111/33/10 110/129/10 179/129/10
f 59/71/9 139/71/9 138/62/9 60/61/9
f 150/96/10 30/95/10 29/99/10 151/99/10
f 20/89/5 84/88/5 140/88/5 143/89/5
