# Blender 4.0.2
# www.blender.org
mtllib glue_gun.mtl
o Cube.004
v -31.225861 28.961796 0.703910
v -33.091042 28.104902 0.703910
v -31.512047 27.214804 0.703910
v -22.300705 18.219429 0.703912
v -23.517982 19.711779 0.703912
v -25.415115 19.405863 0.703912
v -26.101601 17.606527 0.703912
v -24.884323 16.114174 0.703912
v -22.987190 16.420090 0.703912
v -34.790565 30.003710 0.703910
v -34.332489 30.144238 0.703910
v -32.567329 30.383644 0.703910
v -32.099945 32.824532 0.703910
v -30.889015 30.654276 0.703910
v -26.312073 33.844566 0.703909
v -25.582344 34.255287 0.703909
v -25.206757 31.837683 0.703910
v -27.015404 30.805498 0.703910
v -26.549751 27.691429 0.703910
v -24.624619 28.001860 0.703910
v -24.360466 26.275330 0.703911
v -25.132126 25.740744 0.703911
v -20.497528 18.216745 0.703912
v -22.165688 14.913391 0.703912
v -21.396477 13.265320 0.703913
v -22.485130 12.855244 0.703913
v -23.503365 14.355770 0.703913
v -26.590347 15.187954 0.703912
v -27.818489 18.134125 0.703912
v -26.236618 20.912561 0.703911
v -29.184540 25.256784 0.703911
v -33.923325 24.492651 0.703911
v -30.946869 27.997301 -3.296090
v -32.131805 27.114868 -3.296090
v -33.014236 28.299805 -3.296090
v -31.829292 29.182234 -3.296090
v -33.923325 24.492651 -3.296089
v -29.184540 25.256784 -3.296089
v -25.985771 20.362843 -3.296107
v -27.514587 18.064939 -3.296098
v -26.590347 15.187954 -3.296088
v -23.503365 14.355770 -3.296087
v -22.093361 12.792423 -3.296087
v -21.310120 13.652584 -3.296087
v -22.383133 15.487637 -3.296108
v -20.479195 17.781675 -3.296088
v -25.132126 25.740744 -3.296089
v -24.356773 26.283888 -3.296089
v -24.624619 28.001860 -3.296090
v -26.549751 27.691429 -3.296090
v -26.945610 30.794250 -3.296090
v -25.203064 31.846239 -3.296090
v -26.132927 33.862591 -3.296091
v -30.889015 30.654276 -3.296090
v -32.099945 32.824532 -3.296090
v -32.567329 30.383644 -3.296090
v -34.517868 30.188799 -3.296090
v -21.436859 18.358723 -3.296088
v -25.197273 15.296158 -3.296088
v -23.205032 20.529799 -3.296088
v -26.573746 17.785807 -1.496037
v -21.828560 18.040150 -1.496037
v -23.126556 20.030676 -1.496037
v -25.495033 19.904684 -1.495988
v -25.275757 15.795277 -1.496038
v -22.907272 15.921268 -1.495989
vn -0.0000 -0.0000 1.0000
vn -0.8466 0.5244 -0.0906
vn -0.8457 0.5244 -0.0991
vn -0.9679 -0.2312 -0.0989
vn -0.5114 -0.8555 0.0811
vn -0.9672 -0.2407 0.0810
vn -0.5113 -0.8555 0.0817
vn 0.0338 -0.9882 -0.1495
vn 0.0334 -0.9940 -0.1037
vn 0.7296 -0.6760 -0.1039
vn 0.2427 -0.9698 -0.0255
vn 0.8542 -0.5185 0.0379
vn 0.8575 -0.5139 -0.0255
vn 0.7833 0.6202 -0.0431
vn 0.7836 0.6147 -0.0901
vn 0.1161 0.9892 -0.0899
vn 0.9693 0.2423 0.0410
vn 0.5207 0.8531 -0.0342
vn 0.5135 0.8571 0.0411
vn -0.2414 0.9681 0.0668
vn -0.8565 0.5152 0.0325
vn -0.8562 0.5123 0.0669
vn -0.9758 -0.1540 -0.1551
vn -0.9829 -0.1556 -0.0987
vn -0.3514 -0.9310 -0.0988
vn -0.6213 0.7681 -0.1550
vn -0.6262 0.7734 -0.0988
vn -0.9820 -0.1612 -0.0987
vn -0.5262 0.8282 -0.1928
vn -0.9852 -0.0591 -0.1610
vn -0.9792 -0.0633 -0.1926
vn -0.3545 -0.9221 -0.1551
vn -0.3566 -0.9290 -0.0988
vn 0.6306 -0.7698 -0.0988
vn -0.4348 -0.8797 -0.1928
vn -0.9804 -0.0416 -0.1926
vn -0.4414 -0.8827 -0.1612
vn 0.6213 -0.7681 -0.1550
vn 0.6262 -0.7734 -0.0988
vn 0.9820 0.1612 -0.0987
vn 0.5441 -0.8165 -0.1928
vn -0.4544 -0.8697 -0.1928
vn 0.5435 -0.8238 -0.1612
vn 0.9758 0.1540 -0.1551
vn 0.9829 0.1556 -0.0987
vn 0.3514 0.9310 -0.0988
vn 0.5262 -0.8282 -0.1928
vn 0.9852 0.0591 -0.1610
vn 0.9792 0.0633 -0.1926
vn 0.3545 0.9221 -0.1551
vn 0.3566 0.9290 -0.0988
vn -0.6306 0.7698 -0.0988
vn 0.4348 0.8797 -0.1928
vn 0.9804 0.0416 -0.1926
vn 0.4414 0.8827 -0.1612
vn -0.5441 0.8165 -0.1928
vn 0.4544 0.8697 -0.1928
vn -0.5435 0.8238 -0.1612
vn -0.2932 0.9557 0.0242
vn -0.1344 0.9909 -0.0000
vn -0.0994 0.9949 0.0157
vn -0.9822 0.1881 -0.0000
vn 0.8733 0.4873 -0.0000
vn -0.5718 0.8204 -0.0000
vn -0.5591 0.8288 -0.0213
vn -0.4904 0.8713 -0.0180
vn 0.9881 0.1535 0.0012
vn 0.8958 0.4131 -0.1639
vn 0.4956 -0.8685 0.0111
vn 0.5168 -0.8561 -0.0014
vn 0.9890 0.1479 -0.0000
vn 0.9918 0.1265 0.0169
vn -0.1592 0.9872 -0.0000
vn 0.9885 0.1512 0.0012
vn 0.9881 0.1540 -0.0000
vn 0.5695 -0.8220 -0.0000
vn 0.5737 -0.8190 -0.0012
vn 0.8514 0.5245 -0.0000
vn 0.8622 0.5040 -0.0509
vn 0.9967 -0.0750 0.0319
vn 0.9968 -0.0755 0.0249
vn 0.6522 -0.7575 0.0297
vn 0.9045 0.4222 0.0604
vn 0.8630 0.5046 0.0255
vn 0.9506 -0.2921 -0.1051
vn 0.4580 -0.8761 -0.1508
vn 0.4586 -0.8773 -0.1412
vn 0.7511 -0.6589 -0.0418
vn 0.7538 -0.6567 -0.0209
vn -0.1377 -0.9874 0.0778
vn 0.9684 -0.2367 -0.0778
vn 0.3349 -0.9413 0.0418
vn 0.3319 -0.9431 0.0209
vn -0.8275 -0.5615 -0.0000
vn -0.7412 -0.6685 -0.0621
vn 0.1925 -0.9813 -0.0000
vn 0.1925 -0.9813 -0.0001
vn -0.6589 -0.7523 -0.0000
vn -0.9981 0.0615 -0.0000
vn -0.9953 0.0601 -0.0758
vn -0.9955 0.0601 -0.0734
vn -0.5596 0.8264 -0.0628
vn -0.7178 -0.6936 -0.0608
vn -0.9867 0.1459 -0.0723
vn -0.9867 0.1459 -0.0716
vn -0.8272 -0.5613 0.0253
vn -0.9847 0.1263 -0.1200
vn -0.4946 0.8584 -0.1363
vn -0.4945 0.8583 -0.1372
vn 0.1592 -0.9872 -0.0000
vn -0.8371 -0.5471 -0.0000
vn -0.9878 -0.1555 -0.0000
vn -0.9920 -0.1035 -0.0724
vn -0.0000 -0.0000 -1.0000
vn -0.0001 0.0008 -1.0000
vn -0.9652 -0.2074 -0.1594
vn -0.9698 -0.2068 -0.1295
vn -0.6568 0.7429 -0.1295
vn -0.3454 -0.9229 -0.1701
vn -0.3492 -0.9292 -0.1212
vn -0.9808 -0.1539 -0.1200
vn -0.4263 -0.8741 -0.2328
vn -0.9816 -0.0453 -0.1855
vn -0.9719 -0.0361 -0.2326
vn -0.5512 0.7876 -0.2756
vn -0.5557 0.8023 -0.2180
vn 0.4419 0.8702 -0.2180
vn -0.4979 0.8138 -0.2998
vn -0.9512 -0.0775 -0.2985
vn -0.5081 0.8179 -0.2701
vn 0.3377 0.9345 -0.1129
vn 0.3364 0.9335 -0.1239
vn 0.9783 0.1668 -0.1230
vn -0.5436 0.8064 -0.2329
vn 0.4519 0.8725 -0.1857
vn 0.4550 0.8595 -0.2329
vn 0.8916 0.0031 -0.4528
vn 0.9164 -0.0092 -0.4002
vn 0.3625 -0.8417 -0.4002
vn 0.4116 0.8645 -0.2885
vn 0.9482 0.0217 -0.3168
vn 0.9572 0.0265 -0.2882
vn 0.5447 -0.7892 -0.2836
vn 0.5492 -0.8045 -0.2261
vn -0.4490 -0.8645 -0.2261
vn 0.9536 0.0763 -0.2911
vn 0.5086 -0.8185 -0.2671
vn 0.5003 -0.8150 -0.2923
vn 0.5436 -0.8064 -0.2329
vn -0.4519 -0.8725 -0.1857
vn -0.4550 -0.8595 -0.2329
vt 0.028398 0.874573
vt 0.013114 0.872952
vt 0.010437 0.867672
vt 0.613554 0.989350
vt 0.613554 0.975726
vt 0.618291 0.976492
vt 0.618396 0.989823
vt 0.002805 0.879875
vt 0.006303 0.872105
vt 0.989274 0.043237
vt 0.987738 0.029785
vt 0.994599 0.029785
vt -0.000000 0.861432
vt 0.994080 0.043157
vt 0.308311 0.991841
vt 0.303448 0.978725
vt 0.308480 0.978361
vt 0.303448 0.992058
vt 0.026735 0.864177
vt 0.613389 0.977679
vt 0.611077 0.990949
vt 0.608629 0.977679
vt 0.036452 0.827861
vt 0.028335 0.835679
vt 0.030707 0.829692
vt 0.419197 0.982671
vt 0.426594 0.984030
vt 0.426595 0.990316
vt 0.026700 0.824651
vt 0.953882 0.563900
vt 0.957402 0.570497
vt 0.953882 0.573071
vt 0.946896 0.989826
vt 0.942406 0.997711
vt 0.940989 0.990324
vt 0.029282 0.856527
vt 0.021979 0.836621
vt 0.981897 0.134364
vt 0.974565 0.132576
vt 0.974828 0.126348
vt 0.419137 0.990567
vt 0.013033 0.834996
vt 0.017972 0.831579
vt 0.982279 0.126928
vt 0.974565 0.121856
vt 0.020883 0.842254
vt 0.013971 0.824364
vt 0.020344 0.825593
vt 0.995826 0.674458
vt 0.994481 0.681850
vt 0.988190 0.681845
vt 0.982016 0.120809
vt 0.954438 0.989834
vt 0.952993 0.997242
vt 0.946706 0.997285
vt 0.987927 0.674404
vt 0.027796 0.819018
vt 0.993866 0.441493
vt 0.994940 0.454818
vt 0.993342 0.454810
vt 0.010275 0.878839
vt 0.004407 0.879860
vt 0.987547 0.441371
vt 0.987547 0.454714
vt 0.015898 0.878006
vt 0.014231 0.886147
vt 0.992993 0.709085
vt 0.986398 0.695390
vt 0.992993 0.695742
vt 0.986398 0.708732
vt 0.987707 0.313997
vt 0.996011 0.327333
vt 0.987707 0.327351
vt 0.996011 0.313979
vt 0.035206 0.876036
vt 0.033711 0.883550
vt 0.940951 0.834124
vt 0.954292 0.834336
vt 0.954313 0.852458
vt 0.940951 0.852826
vt 0.036452 0.884121
vt 0.954296 0.855229
vt 0.987243 0.495032
vt 0.995022 0.508515
vt 0.987243 0.508385
vt 0.994662 0.495036
vt 0.994449 0.340675
vt 0.987707 0.327425
vt 0.994626 0.327351
vt 0.987707 0.340760
vt 0.986398 0.681850
vt 0.996390 0.695390
vt 0.986398 0.695204
vt 0.996251 0.682046
vt 0.033185 0.863221
vt 0.745388 0.979433
vt 0.751767 0.992870
vt 0.745388 0.992776
vt 0.751767 0.979527
vt 0.032282 0.857451
vt 0.714330 0.979229
vt 0.719879 0.992676
vt 0.714330 0.992582
vt 0.719859 0.979322
vt 0.015877 0.859079
vt 0.330252 0.895715
vt 0.327176 0.882430
vt 0.330252 0.882381
vt 0.327153 0.895765
vt 0.871965 0.625496
vt 0.858611 0.625451
vt 0.858572 0.596005
vt 0.871965 0.594724
vt 0.127667 0.994249
vt 0.127667 0.981012
vt 0.137171 0.980759
vt 0.022969 0.818592
vt 0.028583 0.812988
vt 0.992766 0.935407
vt 0.986705 0.922516
vt 0.992766 0.922060
vt 0.985694 0.935975
vt 0.136552 0.994241
vt 0.024698 0.812781
vt 0.063348 0.929798
vt 0.059820 0.916688
vt 0.063700 0.916478
vt 0.059820 0.930129
vt 0.994303 0.639200
vt 0.988292 0.625913
vt 0.994303 0.625857
vt 0.987516 0.639330
vt 0.177387 0.993007
vt 0.177387 0.979673
vt 0.185772 0.980195
vt 0.987308 0.494973
vt 0.987243 0.481631
vt 0.997890 0.481631
vt 0.185772 0.993528
vt 0.825512 0.980736
vt 0.825615 0.994147
vt 0.817321 0.994147
vt 0.997293 0.495032
vt 0.370832 0.967417
vt 0.384153 0.969543
vt 0.384174 0.986947
vt 0.817967 0.980679
vt 0.689142 0.992528
vt 0.675811 0.992792
vt 0.675811 0.977222
vt 0.370832 0.986841
vt 0.700843 0.974292
vt 0.714182 0.973995
vt 0.714182 0.991771
vt 0.689142 0.976959
vt 0.700770 0.992214
vt 0.503095 0.877279
vt 0.516707 0.882930
vt 0.518242 0.887626
vt 0.521402 0.881395
vt 0.497642 0.870483
vt 0.514038 0.872367
vt 0.525693 0.893678
vt 0.522938 0.886090
vt 0.529873 0.874990
vt 0.501046 0.887536
vt 0.500678 0.869587
vt 0.509109 0.853449
vt 0.500117 0.851018
vt 0.976052 0.715252
vt 0.981153 0.716779
vt 0.983550 0.727197
vt 0.981041 0.723256
vt 0.976513 0.734448
vt 0.979781 0.709201
vt 0.983550 0.710160
vt 0.502880 0.834160
vt 0.496824 0.842254
vt 0.494403 0.839405
vt 0.496662 0.876214
vt 0.513695 0.891290
vt 0.494403 0.889015
vt 0.519303 0.892219
vt 0.495203 0.896397
vt 0.515223 0.899459
vt 0.413072 0.982941
vt 0.413681 0.975788
vt 0.413072 0.992082
vt 0.945651 0.983708
vt 0.954662 0.983708
vt 0.986398 0.668345
vt 0.998160 0.668345
vt 0.988237 0.118426
vt 0.988460 0.126164
vt 0.988015 0.134919
s 0
usemtl MTL2.002
f 18/1/1 1/2/1 3/3/1
f 33/4/2 3/5/3 1/6/4
f 36/7/5 33/4/6 1/6/7
f 10/8/1 2/9/1 1/2/1
f 36/10/8 1/11/9 2/12/10
f 10/8/1 1/2/1 18/1/1
f 10/8/1 32/13/1 2/9/1
f 36/10/11 2/12/12 35/14/13
f 32/13/1 3/3/1 2/9/1
f 34/15/14 2/16/15 3/17/16
f 35/18/17 2/16/18 34/15/19
f 32/13/1 19/19/1 3/3/1
f 19/19/1 18/1/1 3/3/1
f 34/20/20 3/21/21 33/22/22
f 23/23/1 5/24/1 4/25/1
f 62/26/23 4/27/24 5/28/25
f 23/23/1 4/25/1 9/29/1
f 66/30/26 9/31/27 4/32/28
f 66/33/29 4/34/30 62/35/31
f 22/36/1 6/37/1 5/24/1
f 63/38/32 5/39/33 6/40/34
f 23/23/1 22/36/1 5/24/1
f 63/41/35 62/26/36 5/28/37
f 29/42/1 7/43/1 6/37/1
f 64/44/38 6/40/39 7/45/40
f 30/46/1 6/37/1 22/36/1
f 30/46/1 29/42/1 6/37/1
f 64/44/41 63/38/42 6/40/43
f 28/47/1 8/48/1 7/43/1
f 61/49/44 7/50/45 8/51/46
f 29/42/1 28/47/1 7/43/1
f 64/44/47 7/45/48 61/52/49
f 28/47/1 9/29/1 8/48/1
f 65/53/50 8/54/51 9/55/52
f 65/56/53 61/49/54 8/51/55
f 24/57/1 23/23/1 9/29/1
f 28/47/1 24/57/1 9/29/1
f 66/33/56 65/53/57 9/55/58
f 57/58/59 10/59/59 11/60/59
f 10/8/1 12/61/1 11/62/1
f 56/63/60 11/60/60 12/64/60
f 57/58/61 11/60/61 56/63/61
f 14/65/1 13/66/1 12/61/1
f 55/67/62 12/68/62 13/69/62
f 10/8/1 14/65/1 12/61/1
f 56/70/62 12/68/62 55/67/62
f 54/71/63 13/72/63 14/73/63
f 55/74/63 13/72/63 54/71/63
f 17/75/1 15/76/1 14/65/1
f 54/77/64 14/78/64 15/79/64
f 18/1/1 17/75/1 14/65/1
f 10/8/1 18/1/1 14/65/1
f 54/77/65 15/79/65 53/80/65
f 17/75/1 16/81/1 15/76/1
f 53/80/66 15/79/66 16/82/66
f 52/83/67 16/84/67 17/85/67
f 53/86/68 16/84/68 52/83/68
f 51/87/69 17/88/69 18/89/69
f 52/90/70 17/88/70 51/87/70
f 50/91/71 18/92/71 19/93/71
f 51/94/72 18/92/72 50/91/72
f 32/13/1 20/95/1 19/19/1
f 49/96/73 19/97/73 20/98/73
f 50/99/73 19/97/73 49/96/73
f 32/13/1 21/100/1 20/95/1
f 48/101/74 20/102/74 21/103/74
f 49/104/75 20/102/75 48/101/75
f 31/105/1 22/36/1 21/100/1
f 47/106/76 21/107/76 22/108/76
f 32/13/1 31/105/1 21/100/1
f 48/109/77 21/107/77 47/106/77
f 47/110/78 22/111/78 23/112/78
f 31/105/1 30/46/1 22/36/1
f 47/110/79 23/112/79 46/113/79
f 46/114/80 23/115/81 24/116/82
f 27/117/1 25/118/1 24/57/1
f 44/119/83 24/120/83 25/121/83
f 28/47/1 27/117/1 24/57/1
f 45/122/84 24/120/84 44/119/84
f 46/114/85 24/116/86 45/123/87
f 27/117/1 26/124/1 25/118/1
f 43/125/88 25/126/89 26/127/90
f 44/128/91 25/126/92 43/125/93
f 42/129/94 26/130/94 27/131/94
f 43/132/95 26/130/95 42/129/95
f 42/133/96 27/134/97 28/135/98
f 41/136/98 28/137/98 29/138/99
f 42/133/96 28/135/98 41/139/98
f 40/140/100 29/141/101 30/142/102
f 41/136/103 29/138/104 40/143/105
f 39/144/106 30/145/106 31/146/106
f 40/140/107 30/142/108 39/147/109
f 38/148/110 31/149/110 32/150/110
f 39/144/111 31/146/111 38/151/111
f 37/152/112 32/153/112 10/154/112
f 38/148/110 32/150/110 37/155/110
f 37/152/113 10/154/113 57/156/113
f 50/157/114 33/158/114 36/159/114
f 50/157/114 34/160/114 33/158/114
f 48/161/114 38/162/114 34/160/114
f 50/157/114 48/161/114 34/160/114
f 57/163/114 35/164/114 34/160/114
f 37/165/114 57/163/114 34/160/114
f 38/162/114 37/165/114 34/160/114
f 57/163/114 36/159/114 35/164/114
f 51/166/114 36/159/114 57/163/114
f 51/166/114 50/157/114 36/159/114
f 47/167/114 39/168/114 38/162/114
f 48/161/114 47/167/114 38/162/114
f 60/169/114 39/168/114 47/167/114
f 45/170/114 42/171/114 41/172/114
f 59/173/115 45/170/115 41/172/115
f 40/174/114 59/173/114 41/172/114
f 44/175/114 43/176/114 42/171/114
f 45/170/114 44/175/114 42/171/114
f 45/177/114 58/178/114 46/179/114
f 60/169/114 47/167/114 46/179/114
f 60/169/114 46/179/114 58/178/114
f 50/157/114 49/180/114 48/161/114
f 54/181/114 52/182/114 51/166/114
f 56/183/114 54/181/114 51/166/114
f 57/163/114 56/183/114 51/166/114
f 54/181/114 53/184/114 52/182/114
f 56/183/114 55/185/114 54/181/114
f 62/26/116 58/186/117 45/187/118
f 63/41/119 60/188/120 58/186/121
f 63/41/122 58/186/123 62/26/124
f 66/33/125 45/189/126 59/190/127
f 66/33/128 62/35/129 45/189/130
f 65/56/131 59/191/132 40/192/133
f 66/33/134 59/190/135 65/53/136
f 61/52/137 40/193/138 39/194/139
f 65/56/140 40/192/141 61/49/142
f 64/44/143 39/194/144 60/195/145
f 61/52/146 39/194/147 64/44/148
f 64/44/149 60/195/150 63/38/151