# Blender 4.0.2
# www.blender.org
mtllib glue_gun.mtl
o Cube.001
v -32.374710 -46.309162 1.348922
v -32.102142 -44.266270 1.348922
v -34.145020 -43.993694 1.348922
v -34.690720 -46.263012 1.348922
v -36.287491 -35.509205 1.348920
v -35.741791 -33.239887 1.348920
v -38.057793 -33.193729 1.348920
v -38.330376 -35.236629 1.348920
v -39.809959 -33.767223 1.348920
v -36.725365 -31.853062 1.348920
v -30.622559 -45.735661 1.348921
v -33.707146 -47.649837 1.348922
v -33.198067 -46.607456 0.078921
v -34.715912 -45.213238 0.078921
v -33.321663 -43.695400 0.078921
v -31.803841 -45.089634 0.078921
v -37.110847 -35.807499 0.078919
v -38.628677 -34.413273 0.078919
v -37.234451 -32.895435 0.078919
v -35.716606 -34.289661 0.078919
v -31.143860 -42.881992 0.078921
v -36.391243 -44.431683 0.078921
v -33.707146 -47.649837 0.078921
v -31.316116 -46.783573 0.078921
v -34.036224 -35.081997 0.078919
v -36.725365 -31.853062 0.078919
v -39.116394 -32.719318 0.078919
v -39.286804 -36.630466 0.078920
v -34.123718 -35.310253 -1.191081
v -31.528130 -42.474567 -1.191079
v -36.304329 -44.204960 -1.191079
v -38.899925 -37.040653 -1.191080
vn -0.0000 -0.0000 1.0000
vn 0.3870 0.9128 -0.1303
vn 0.3985 0.8898 -0.2224
vn -0.3667 0.9035 -0.2220
vn -0.8546 0.4848 -0.1860
vn -0.8230 0.4939 -0.2807
vn -0.9227 -0.2649 -0.2802
vn -0.9064 0.3156 0.2807
vn -0.3876 0.8782 0.2802
vn -0.9197 0.3457 0.1859
vn -0.4848 -0.8546 -0.1860
vn -0.4939 -0.8230 -0.2807
vn 0.2649 -0.9227 -0.2802
vn -0.8782 -0.3876 0.2802
vn -0.3458 -0.9197 0.1860
vn -0.3156 -0.9064 0.2807
vn 0.8032 -0.5801 -0.1352
vn 0.7904 -0.5817 -0.1922
vn 0.9678 0.1628 -0.1919
vn 0.3876 -0.8782 0.2802
vn 0.9197 -0.3458 0.1860
vn 0.9064 -0.3156 0.2807
vn 0.8198 0.3240 0.4722
vn 0.3123 0.8746 0.3708
vn 0.2571 0.8427 0.4730
vn 0.4848 0.8546 -0.1860
vn 0.4939 0.8230 -0.2807
vn -0.2649 0.9227 -0.2802
vn -0.8032 0.5801 -0.1352
vn -0.7904 0.5817 -0.1922
vn -0.9678 -0.1628 -0.1919
vn -0.3870 -0.9128 -0.1303
vn -0.3986 -0.8898 -0.2224
vn 0.3667 -0.9035 -0.2220
vn -0.8198 -0.3240 0.4722
vn -0.3123 -0.8746 0.3708
vn -0.2571 -0.8427 0.4730
vn 0.8546 -0.4848 -0.1860
vn 0.8230 -0.4939 -0.2807
vn 0.9227 0.2649 -0.2802
vn 0.8782 0.3876 0.2802
vn 0.3457 0.9197 0.1860
vn 0.3156 0.9064 0.2807
vn -0.7608 -0.3117 0.5693
vn -0.9497 -0.2905 -0.1169
vn -0.7337 -0.3830 0.5612
vn -0.8436 0.5253 0.1110
vn -0.8472 0.5165 0.1246
vn 0.0049 0.9400 0.3410
vn -0.7924 -0.4660 -0.3936
vn -0.8502 0.4874 -0.1991
vn -0.8460 0.4914 -0.2070
vn 0.4176 0.9082 -0.0269
vn 0.4172 0.9088 -0.0000
vn 0.9943 0.0949 0.0479
vn -0.7651 0.6439 -0.0000
vn 0.1751 0.9846 -0.0000
vn 0.7606 0.3116 0.5695
vn 0.3474 0.9368 0.0407
vn 0.8509 0.2652 0.4534
vn 0.8731 0.2436 0.4222
vn 0.7353 0.3831 0.5591
vn 0.9497 0.2903 -0.1176
vn 0.8436 -0.5253 0.1110
vn 0.8472 -0.5165 0.1246
vn -0.0049 -0.9400 0.3410
vn 0.7927 0.4656 -0.3936
vn 0.8501 -0.4878 -0.1985
vn 0.8458 -0.4919 -0.2066
vn -0.4176 -0.9082 -0.0269
vn -0.4172 -0.9088 -0.0000
vn -0.9943 -0.0950 0.0479
vn 0.7651 -0.6439 -0.0000
vn -0.1751 -0.9846 -0.0000
vn -0.3467 -0.9371 0.0415
vn -0.8508 -0.2652 0.4537
vn -0.8730 -0.2437 0.4225
vn -0.0000 -0.0000 -1.0000
vn 0.2636 -0.8925 -0.3661
vn 0.9261 0.3355 -0.1726
vn 0.3371 -0.9305 -0.1431
vn -0.2630 0.8918 -0.3681
vn -0.3371 0.9304 -0.1440
vn -0.9259 -0.3354 -0.1737
vt 0.920259 0.855407
vt 0.926081 0.857866
vt 0.918974 0.860945
vt 0.977237 0.515087
vt 0.981494 0.510859
vt 0.981494 0.517998
vt 0.932230 0.857419
vt 0.929514 0.863842
vt 0.991011 0.974215
vt 0.994743 0.971814
vt 0.995384 0.976940
vt 0.977289 0.521295
vt 0.932230 0.902573
vt 0.923539 0.867275
vt 0.994948 0.543920
vt 0.990564 0.547655
vt 0.990564 0.541207
vt 0.991011 0.980925
vt 0.927665 0.896243
vt 0.953995 0.903466
vt 0.949654 0.907405
vt 0.949654 0.900398
vt 0.994231 0.538248
vt 0.952808 0.897861
vt 0.921689 0.899676
vt 0.990897 0.775871
vt 0.995158 0.772766
vt 0.995158 0.778776
vt 0.990897 0.784480
vt 0.994629 0.782079
vt 0.995403 0.787315
vt 0.990957 0.782079
vt 0.930944 0.908111
vt 0.925122 0.905651
vt 0.985837 0.516541
vt 0.981494 0.521271
vt 0.981494 0.513764
vt 0.990897 0.791189
vt 0.918974 0.906098
vt 0.986327 0.647285
vt 0.981902 0.651129
vt 0.981902 0.644666
vt 0.985204 0.510859
vt 0.985261 0.641656
vt 0.842726 0.276247
vt 0.847254 0.268078
vt 0.847382 0.312276
vt 0.838570 0.276627
vt 0.842909 0.303278
vt 0.866875 0.943875
vt 0.871099 0.940425
vt 0.871119 0.952374
vt 0.843559 0.313796
vt 0.852592 0.313734
vt 0.848415 0.313614
vt 0.848184 0.308345
vt 0.866872 0.952374
vt 0.851835 0.301159
vt 0.848184 0.263757
vt 0.856113 0.300604
vt 0.852003 0.273560
vt 0.994416 0.239769
vt 0.990422 0.242671
vt 0.990422 0.231157
vt 0.852985 0.261004
vt 0.843162 0.262309
vt 0.847382 0.262395
vt 0.994635 0.231326
vt 0.048611 0.987881
vt 0.050958 0.982013
vt 0.054505 0.987921
vt 0.060959 0.973833
vt 0.056866 0.978466
vt 0.048097 0.979393
vt 0.060413 0.984374
vt 0.060959 0.992129
vt 0.978112 0.990119
vt 0.978693 0.979572
vt 0.982242 0.985479
vt 0.978112 0.971814
vt 0.984600 0.976022
vt 0.990494 0.976060
vt 0.988150 0.981929
vt 0.991011 0.984548
vt 0.138425 0.922870
vt 0.134010 0.923780
vt 0.134010 0.905513
vt 0.856301 0.275302
vt 0.138303 0.905998
vt 0.614683 0.925679
vt 0.618945 0.924980
vt 0.618945 0.943207
vt 0.614692 0.942657
vt 0.838761 0.301332
vt 0.174366 0.990195
vt 0.157380 0.990195
vt 0.157380 0.964716
vt 0.174366 0.964716
s 0
usemtl MTL1.002
f 12/1/1 1/2/1 4/3/1
f 13/4/2 4/5/3 1/6/4
f 11/7/1 2/8/1 1/2/1
f 16/9/5 1/10/6 2/11/7
f 12/1/1 11/7/1 1/2/1
f 16/12/8 13/4/9 1/6/10
f 11/7/1 6/13/1 2/8/1
f 6/13/1 3/14/1 2/8/1
f 15/15/11 2/16/12 3/17/13
f 16/9/14 2/11/15 15/18/16
f 6/13/1 5/19/1 3/14/1
f 14/20/17 3/21/18 4/22/19
f 4/3/1 3/14/1 5/19/1
f 15/15/20 3/17/21 14/23/22
f 14/20/23 4/22/24 13/24/25
f 4/3/1 5/19/1 8/25/1
f 17/26/26 8/27/27 5/28/28
f 20/29/29 5/30/30 6/31/31
f 20/32/8 17/26/9 5/28/10
f 10/33/1 7/34/1 6/13/1
f 19/35/32 6/36/33 7/37/34
f 20/29/35 6/31/36 19/38/37
f 9/39/1 8/25/1 7/34/1
f 18/40/38 7/41/39 8/42/40
f 10/33/1 9/39/1 7/34/1
f 19/35/20 7/37/21 18/43/22
f 4/3/1 8/25/1 9/39/1
f 18/40/41 8/42/42 17/44/43
f 22/45/44 4/46/44 9/47/44
f 31/48/45 22/45/45 9/47/45
f 31/48/46 9/47/46 28/49/46
f 27/50/47 9/51/48 10/52/49
f 28/49/50 9/47/51 27/53/52
f 26/54/53 10/55/54 6/56/55
f 27/50/56 10/52/57 26/57/57
f 25/58/58 6/56/58 11/59/58
f 26/54/59 6/56/60 25/58/61
f 29/60/62 11/59/62 21/61/62
f 29/60/63 25/58/63 11/59/63
f 24/62/64 11/63/65 12/64/66
f 21/61/67 11/59/68 24/65/69
f 23/66/70 12/67/71 4/46/72
f 24/62/73 12/64/74 23/68/74
f 23/66/75 4/46/76 22/45/77
f 24/69/78 13/70/78 16/71/78
f 22/72/78 14/73/78 13/70/78
f 23/74/78 22/72/78 13/70/78
f 24/69/78 23/74/78 13/70/78
f 22/72/78 15/75/78 14/73/78
f 22/72/78 21/76/78 15/75/78
f 21/76/78 16/71/78 15/75/78
f 21/76/78 24/69/78 16/71/78
f 25/77/78 17/78/78 20/79/78
f 28/80/78 17/78/78 25/77/78
f 28/80/78 18/81/78 17/78/78
f 28/80/78 27/82/78 18/81/78
f 27/82/78 19/83/78 18/81/78
f 25/77/78 20/79/78 19/83/78
f 26/84/78 25/77/78 19/83/78
f 27/82/78 26/84/78 19/83/78
f 30/85/79 21/86/79 22/87/79
f 30/88/80 29/60/80 21/61/80
f 31/89/81 30/85/81 22/87/81
f 32/90/82 28/91/82 25/92/82
f 32/90/83 25/92/83 29/93/83
f 32/94/84 31/48/84 28/49/84
f 32/95/78 29/96/78 30/97/78
f 32/95/78 30/97/78 31/98/78