# Blender 4.0.2
# www.blender.org
mtllib glue_gun.mtl
o Cube.012
v 59.273140 35.611748 -2.121797
v 53.280586 34.912601 -4.286094
v 52.352272 38.653305 -2.940015
v 52.342266 39.934971 1.003893
v 52.352272 37.198494 4.154816
v 52.150692 34.421192 4.519827
v 58.083710 33.412106 2.205219
v 58.477974 37.658501 1.498524
v 59.116486 37.388424 -1.123055
v 42.619324 36.377193 -4.895814
v 42.619881 39.590149 -2.706534
v 42.618744 40.317711 1.098046
v 42.647972 38.127743 4.375090
v 42.617561 34.316486 5.045521
v 42.625893 32.564293 -4.176259
v 42.618744 30.379395 -0.940228
v 42.619881 31.106956 2.864354
v 42.612919 36.713825 -6.579262
v 42.612919 41.020699 -3.662888
v 42.612919 42.006725 1.444182
v 42.612919 39.090351 5.751057
v 42.612919 33.983280 6.737080
v 42.612919 29.676405 3.820705
v 42.612919 28.690382 -1.286365
v 42.612919 31.606754 -5.593238
v 44.996834 37.072449 -5.845599
v 45.012920 41.020699 -3.662888
v 45.012920 42.006725 1.444182
v 44.998901 38.360104 5.435179
v 44.999817 33.616859 6.006472
v 45.012920 31.606754 -5.593238
v 45.012920 28.690382 -1.286365
v 45.012920 29.676405 3.820705
v 45.012920 39.956997 -2.965617
v 45.012920 40.758461 1.188223
v 45.012920 30.740107 3.123435
v 45.012920 29.938644 -1.030405
v 45.012920 32.310204 -4.533609
v 57.906376 35.194817 3.248642
v 52.130157 34.352516 5.034620
v 52.388748 37.406807 4.613779
v 52.637619 40.431206 1.102462
v 52.388748 39.025436 -3.279958
v 52.388748 36.348919 -4.799689
v 52.352272 32.043800 3.097834
v 52.344418 30.768023 -0.874995
v 59.075726 34.036209 -1.671421
v 58.650612 32.932190 -0.192156
v 52.388748 33.290298 -4.455962
v 52.635426 30.272604 -0.978583
v 52.388748 31.671671 3.437777
vn -0.4593 0.5300 0.7129
vn -0.5453 0.0817 0.8343
vn -0.1495 0.5912 0.7926
vn -0.4342 -0.5284 0.7295
vn -0.1201 -0.6414 0.7577
vn -0.2114 -0.0815 0.9740
vn 0.0703 -0.0717 0.9949
vn -0.2825 -0.0699 0.9567
vn -0.2148 -0.6279 0.7481
vn 0.1317 0.5351 0.8345
vn -0.2634 -0.1545 0.9522
vn 0.0951 -0.2079 0.9735
vn -0.4139 -0.8902 0.1903
vn -0.1604 -0.9870 -0.0012
vn -0.1451 -0.8037 0.5770
vn 0.0705 -0.8840 0.4621
vn -0.2084 -0.7925 0.5732
vn -0.1986 -0.9801 -0.0018
vn -0.4083 -0.2595 0.8752
vn -0.4678 -0.6294 0.6205
vn -0.1474 -0.4074 0.9013
vn 0.0754 -0.8339 0.5468
vn 0.0813 -0.2053 0.9753
vn -0.2295 -0.7108 0.6649
vn 0.0703 -0.9776 -0.1984
vn 0.0529 -0.8340 0.5492
vn -0.2238 -0.9700 0.0952
vn -0.3610 -0.7936 -0.4897
vn -0.1345 -0.5139 -0.8473
vn -0.1354 -0.9113 -0.3888
vn 0.0660 -0.6327 -0.7715
vn -0.2005 -0.9029 -0.3802
vn -0.2117 -0.5056 -0.8364
vn -0.4589 -0.8645 0.2048
vn -0.4536 -0.8585 -0.2392
vn -0.2340 -0.9641 -0.1251
vn 0.0488 -0.5540 -0.8311
vn 0.0716 -0.9775 -0.1985
vn -0.2242 -0.8572 -0.4637
vn -0.4438 0.2128 -0.8705
vn -0.2456 0.1954 -0.9495
vn -0.3035 -0.3988 -0.8654
vn 0.1028 -0.5533 -0.8266
vn -0.2328 -0.4103 -0.8817
vn -0.2253 0.1782 -0.9579
vn -0.4971 -0.3625 -0.7883
vn -0.4852 0.1775 -0.8562
vn -0.3187 -0.4242 -0.8476
vn -0.3829 0.6559 -0.6505
vn -0.1674 0.7319 -0.6605
vn -0.1322 0.2137 -0.9679
vn 0.9676 -0.0486 0.2476
vn -0.2312 0.1945 -0.9533
vn 0.0765 0.2159 -0.9734
vn 0.0866 -0.5311 -0.8429
vn -0.1930 0.7227 -0.6637
vn 0.1003 0.1985 -0.9750
vn -0.2178 0.1978 -0.9557
vn 0.0754 0.8332 -0.5478
vn 0.0816 0.2041 -0.9755
vn -0.2296 0.7099 -0.6659
vn -1.0000 -0.0021 0.0034
vn -1.0000 -0.0000 0.0092
vn -1.0000 0.0008 0.0040
vn -1.0000 -0.0045 0.0006
vn -1.0000 -0.0024 0.0036
vn -0.9997 -0.0251 -0.0079
vn -1.0000 -0.0036 0.0007
vn -1.0000 -0.0030 -0.0021
vn -0.9996 0.0031 -0.0276
vn -1.0000 0.0010 -0.0025
vn -1.0000 -0.0006 -0.0029
vn -1.0000 0.0084 0.0035
vn -1.0000 0.0045 -0.0006
vn -1.0000 0.0036 -0.0007
vn -1.0000 0.0030 0.0021
vn -1.0000 0.0024 -0.0036
vn 0.2364 0.1932 -0.9522
vn 0.2265 0.1924 -0.9548
vn 0.1428 0.8284 -0.5416
vn -0.0000 -0.5507 -0.8347
vn -0.0000 0.2009 -0.9796
vn 0.2819 -0.4218 -0.8618
vn 0.2416 0.3404 -0.9087
vn 0.2451 0.3408 -0.9076
vn -0.0000 0.8347 -0.5507
vn -0.0000 0.9796 0.2009
vn 0.0004 0.7817 -0.6236
vn 0.0104 0.1120 -0.9937
vn -0.0063 0.7817 -0.6236
vn -0.0000 0.5507 0.8347
vn 0.2460 0.5374 0.8067
vn 0.2366 0.5395 0.8081
vn 0.1589 -0.2033 0.9661
vn 0.2522 0.3985 0.8818
vn 0.2825 0.9073 0.3114
vn 0.2490 0.3994 0.8823
vn 0.2342 -0.1936 0.9527
vn 0.2242 -0.1928 0.9553
vn 0.1399 -0.8286 0.5420
vn 0.2567 -0.2729 0.9272
vn 0.2982 0.4840 0.8227
vn 0.2472 -0.2717 0.9301
vn -0.0000 -0.8347 0.5507
vn -0.0000 -0.9796 -0.2009
vn 0.0004 -0.7826 0.6225
vn 0.0108 -0.1134 0.9935
vn -0.0064 -0.7826 0.6225
vn 1.0000 0.0029 -0.0019
vn 1.0000 -0.0000 -0.0000
vn 1.0000 -0.0022 -0.0034
vn 1.0000 -0.0006 0.0030
vn 1.0000 0.0018 0.0027
vn 0.3066 0.3549 -0.8832
vn 0.0229 0.3822 -0.9238
vn 0.0192 0.9223 -0.3861
vn 0.2169 -0.4769 -0.8518
vn -0.0601 -0.6129 -0.7879
vn -0.0433 0.1272 -0.9909
vn 0.2580 -0.4074 -0.8761
vn 0.0126 0.2105 -0.9775
vn 0.2840 0.1901 -0.9398
vn 0.2175 0.9733 -0.0733
vn -0.0127 0.8313 -0.5556
vn -0.0959 0.9778 0.1864
vn 0.2183 0.7869 -0.5771
vn -0.0482 0.8838 -0.4654
vn 0.2027 0.9792 0.0052
vn 0.2147 0.1962 -0.9568
vn -0.0690 0.8327 -0.5494
vn 0.2147 0.7211 -0.6587
vn 0.2163 0.9021 0.3734
vn -0.0945 0.9864 0.1347
vn 0.0049 0.6102 0.7922
vn 0.2911 0.3434 0.8930
vn 0.0105 0.4888 0.8723
vn 0.0283 -0.2722 0.9618
vn 0.2508 0.8948 0.3694
vn 0.0249 0.6223 0.7824
vn 0.2888 0.4872 0.8242
vn 0.2939 -0.3587 0.8860
vn 0.0356 -0.3838 0.9227
vn 0.0251 -0.9220 0.3863
vn 0.2862 -0.1995 0.9372
vn 0.2459 0.4010 0.8825
vn 0.0241 -0.2288 0.9732
vn 0.2187 -0.9731 0.0725
vn -0.0104 -0.8313 0.5557
vn -0.0952 -0.9779 -0.1861
vn 0.2276 -0.7267 0.6482
vn 0.2012 -0.2057 0.9577
vn -0.0642 -0.8433 0.5337
vn 0.2187 -0.7890 0.5741
vn -0.0477 -0.8854 0.4624
vn 0.2023 -0.9793 -0.0091
vn 0.2175 -0.8659 -0.4504
vn -0.0959 -0.9722 -0.2135
vn -0.0126 -0.5456 -0.8380
vn 0.2026 -0.9024 -0.3803
vn -0.0482 -0.6295 -0.7755
vn 0.2183 -0.4965 -0.8401
vn 0.2504 -0.7156 0.6520
vn 0.4199 -0.1667 0.8921
vn 0.2054 -0.1980 0.9584
vn 0.4653 -0.5831 0.6659
vn 0.4588 -0.2240 0.8599
vn 0.2450 -0.7568 0.6060
vn 0.4342 0.1937 0.8798
vn 0.2393 0.4091 0.8806
vn 0.1679 -0.1840 0.9685
vn 0.4453 0.6147 0.6510
vn 0.2294 0.8930 0.3872
vn 0.2382 0.4845 0.8417
vn 0.4641 0.2689 0.8440
vn 0.4743 0.5882 0.6550
vn 0.2674 0.4649 0.8440
vn 0.4659 0.7887 -0.4010
vn 0.2112 0.7826 -0.5856
vn 0.2459 0.9693 -0.0018
vn 0.5139 0.7820 0.3528
vn 0.5170 0.8020 -0.2991
vn 0.2880 0.9505 0.1163
vn 0.5018 0.1672 -0.8487
vn 0.2396 0.1943 -0.9512
vn 0.2445 0.7180 -0.6517
vn 0.5234 0.6016 -0.6034
vn 0.5500 0.2850 -0.7850
vn 0.2308 0.8005 -0.5531
vn 0.5118 -0.1588 -0.8443
vn 0.2578 -0.4069 -0.8763
vn 0.2269 0.1905 -0.9551
vn -0.4089 0.9035 -0.1284
vn -0.1889 0.9820 0.0024
vn -0.1967 0.7948 -0.5741
vn 0.0699 0.8855 -0.4594
vn -0.2084 0.7944 -0.5705
vn -0.1986 0.9801 0.0053
vn -0.3836 0.7959 -0.4685
vn -0.3825 0.9233 -0.0358
vn -0.1874 0.8538 -0.4857
vn 0.0694 0.9777 0.1983
vn 0.0517 0.8340 -0.5493
vn -0.2247 0.9698 -0.0947
vn -0.3731 0.7047 0.6034
vn -0.1764 0.3884 0.9045
vn -0.0997 0.8519 0.5141
vn 0.0232 0.5212 0.8531
vn -0.2109 0.8439 0.4933
vn -0.2835 0.3810 0.8800
vn -0.4612 0.8484 0.2599
vn -0.4349 0.6387 0.6348
vn -0.1891 0.8380 0.5118
vn 0.0522 0.5501 0.8335
vn 0.0708 0.9766 0.2029
vn -0.2235 0.8544 0.4691
vn 0.4886 -0.5608 -0.6685
vn 0.2680 -0.8852 -0.3802
vn 0.2354 -0.4833 -0.8432
vn 0.5077 -0.1166 -0.8536
vn 0.5138 -0.4547 -0.7275
vn 0.2591 -0.3587 -0.8968
vn 0.4886 -0.5387 -0.6864
vn 0.5277 -0.8409 -0.1200
vn 0.2784 -0.8788 -0.3875
vn 0.4593 -0.7962 0.3938
vn 0.2330 -0.7834 0.5762
vn 0.3159 -0.9488 -0.0061
vn 0.5125 -0.8581 -0.0326
vn 0.3692 -0.7209 0.5865
vn 0.2328 -0.9515 0.2012
vt 0.785274 0.570291
vt 0.790135 0.569643
vt 0.793433 0.589629
vt 0.203866 0.926248
vt 0.199177 0.904011
vt 0.211240 0.906957
vt 0.210340 0.871971
vt 0.787516 0.625227
vt 0.798432 0.625285
vt 0.197278 0.925672
vt 0.187010 0.902847
vt 0.197513 0.871742
vt 0.187010 0.870567
vt 0.931697 0.678918
vt 0.923692 0.658721
vt 0.937612 0.658763
vt 0.925002 0.626518
vt 0.938162 0.680683
vt 0.938162 0.626389
vt 0.921282 0.676974
vt 0.917140 0.657626
vt 0.925079 0.793359
vt 0.926940 0.811873
vt 0.917878 0.812950
vt 0.849311 0.082201
vt 0.853753 0.076907
vt 0.853753 0.091311
vt 0.915557 0.625857
vt 0.917757 0.844536
vt 0.930600 0.844029
vt 0.786293 0.969515
vt 0.788517 0.964223
vt 0.801518 0.964186
vt 0.774002 0.957211
vt 0.779310 0.955083
vt 0.803686 0.969516
vt 0.810665 0.955016
vt 0.815990 0.939832
vt 0.810745 0.941837
vt 0.815990 0.957224
vt 0.801450 0.932835
vt 0.803699 0.927527
vt 0.788475 0.932857
vt 0.779327 0.942027
vt 0.786307 0.927527
vt 0.774002 0.939818
vt 0.945014 0.013010
vt 0.953081 0.010586
vt 0.953080 0.027811
vt 0.939677 0.507090
vt 0.947686 0.507115
vt 0.946921 0.520005
vt 0.943879 -0.000000
vt 0.945095 0.027700
vt 0.951865 0.041692
vt 0.243072 0.936476
vt 0.243072 0.944500
vt 0.226091 0.944526
vt 0.943879 0.041582
vt 0.225043 0.936531
vt 0.211419 0.944462
vt 0.932990 0.518477
vt 0.925022 0.521247
vt 0.924293 0.504107
vt 0.212208 0.936463
vt 0.932271 0.503910
vt 0.925013 0.489916
vt 0.939677 0.489719
vt 0.947686 0.489743
vt 0.932990 0.489719
vt 0.955698 0.606582
vt 0.958948 0.609324
vt 0.941638 0.615248
vt 0.893602 0.610617
vt 0.896313 0.594605
vt 0.897652 0.611941
vt 0.892515 0.596517
vt 0.884024 0.585858
vt 0.884024 0.623814
vt 0.960032 0.593120
vt 0.964279 0.592773
vt 0.956333 0.577306
vt 0.953571 0.580540
vt 0.941638 0.573979
vt 0.556477 0.922748
vt 0.557247 0.947753
vt 0.543634 0.947753
vt 0.511362 0.924146
vt 0.508516 0.899459
vt 0.521600 0.899459
vt 0.518437 0.924301
vt 0.533106 0.921589
vt 0.532326 0.947020
vt 0.546432 0.923055
vt 0.240030 0.910950
vt 0.240627 0.936452
vt 0.224614 0.911793
vt 0.928165 0.208615
vt 0.926823 0.184510
vt 0.940431 0.184093
vt 0.216228 0.912617
vt 0.951978 0.209972
vt 0.951978 0.184543
vt 0.938353 0.208857
vt 0.496052 0.925574
vt 0.494403 0.900122
vt 0.930970 0.228396
vt 0.937703 0.228571
vt 0.222378 0.893287
vt 0.232384 0.891385
vt 0.545453 0.899792
vt 0.538919 0.901397
vt 0.552093 0.899065
vt 0.510822 0.947844
vt 0.931607 0.791784
vt 0.939026 0.812279
vt 0.940951 0.844536
vt 0.775530 0.592771
vt 0.779195 0.571727
vt 0.774773 0.625285
vt 0.506420 0.947172
vt 0.500192 0.946027
vt 0.944478 0.230709
s 0
usemtl MTL2.002
f 47/1/1 1/2/2 2/3/3
f 1/4/4 3/5/5 2/6/6
f 10/7/7 2/6/8 3/5/9
f 15/8/10 2/3/11 10/9/12
f 9/10/13 4/11/14 3/5/15
f 11/12/16 3/5/17 4/11/18
f 1/4/19 9/10/20 3/5/21
f 11/12/22 10/7/23 3/5/24
f 12/13/25 11/12/26 4/11/27
f 8/14/28 5/15/29 4/16/30
f 13/17/31 4/16/32 5/15/33
f 9/18/34 8/14/35 4/16/36
f 13/17/37 12/19/38 4/16/39
f 7/20/40 6/21/41 5/15/42
f 13/17/43 5/15/44 6/21/45
f 8/14/46 7/20/47 5/15/48
f 7/22/49 45/23/50 6/24/51
f 39/25/52 7/26/52 8/27/52
f 6/21/53 14/28/54 13/17/55
f 45/23/56 14/29/57 6/24/58
f 17/30/59 14/29/60 45/23/61
f 18/31/62 10/32/62 11/33/62
f 25/34/63 15/35/63 10/32/63
f 25/34/64 10/32/64 18/31/64
f 19/36/65 11/33/65 12/37/65
f 19/36/66 18/31/66 11/33/66
f 21/38/67 12/37/67 13/39/67
f 20/40/68 19/36/68 12/37/68
f 21/38/69 20/40/69 12/37/69
f 21/38/70 13/39/70 14/41/70
f 22/42/71 14/41/71 17/43/71
f 22/42/72 21/38/72 14/41/72
f 25/34/73 16/44/73 15/35/73
f 23/45/74 17/43/74 16/44/74
f 24/46/75 23/45/75 16/44/75
f 25/34/76 24/46/76 16/44/76
f 23/45/77 22/42/77 17/43/77
f 26/47/78 18/48/79 19/49/80
f 31/50/81 25/51/81 18/52/82
f 31/53/83 18/48/84 26/47/85
f 27/54/86 19/49/86 20/55/87
f 27/54/88 26/47/89 19/49/90
f 28/56/87 20/57/87 21/58/91
f 28/59/87 27/54/86 20/55/87
f 29/60/92 21/58/93 22/61/94
f 29/60/95 28/56/96 21/58/97
f 30/62/98 22/63/99 23/64/100
f 30/65/101 29/60/102 22/61/103
f 33/66/104 23/64/104 24/67/105
f 33/66/106 30/62/107 23/64/108
f 32/68/105 24/69/105 25/51/81
f 33/66/104 24/67/105 32/70/105
f 32/68/105 25/51/81 31/50/81
f 38/71/109 31/72/109 26/73/109
f 35/74/110 27/75/110 28/76/110
f 34/77/111 26/78/111 27/75/111
f 35/74/110 34/77/110 27/75/110
f 35/74/112 28/76/112 29/79/112
f 37/80/110 32/81/110 31/72/110
f 38/71/110 37/80/110 31/72/110
f 37/80/110 33/82/110 32/81/110
f 36/83/113 30/84/113 33/82/113
f 37/80/110 36/83/110 33/82/110
f 44/85/114 26/86/115 34/87/116
f 49/88/117 38/89/118 26/90/119
f 49/88/120 26/90/121 44/91/122
f 42/92/123 34/87/124 35/93/125
f 43/94/126 34/87/127 42/92/128
f 44/85/129 34/87/130 43/94/131
f 42/95/132 35/96/133 29/60/134
f 41/97/135 29/60/136 30/65/137
f 42/95/138 29/60/139 41/97/140
f 40/98/141 30/99/142 36/100/143
f 40/101/144 41/97/145 30/65/146
f 50/102/147 36/100/148 37/103/149
f 51/104/150 40/98/151 36/100/152
f 51/104/153 36/100/154 50/102/155
f 50/105/156 37/106/157 38/89/158
f 50/105/159 38/89/160 49/88/161
f 51/104/162 39/107/163 40/98/164
f 7/108/165 39/107/166 51/104/167
f 39/109/168 41/97/169 40/101/170
f 8/110/171 42/95/172 41/97/173
f 39/109/174 8/110/175 41/97/176
f 9/111/177 43/94/178 42/92/179
f 8/112/180 9/111/181 42/92/182
f 1/113/183 44/85/184 43/94/185
f 9/111/186 1/113/187 43/94/188
f 1/114/189 49/88/190 44/91/191
f 48/115/192 46/116/193 45/23/194
f 17/30/195 45/23/196 46/116/197
f 7/22/198 48/115/199 45/23/200
f 16/117/201 17/30/202 46/116/203
f 47/1/204 2/3/205 46/118/206
f 15/8/207 46/118/208 2/3/209
f 48/119/210 47/1/211 46/118/212
f 15/8/213 16/120/214 46/118/215
f 47/121/216 50/105/217 49/88/218
f 1/114/219 47/121/220 49/88/221
f 47/121/222 48/122/223 50/105/224
f 7/108/225 51/104/226 50/102/227
f 48/123/228 7/108/229 50/102/230