# Blender 4.0.2
# www.blender.org
mtllib glue_gun.mtl
o Cube.009
v 33.365402 35.348530 5.380871
v 33.392921 35.348553 5.178909
v 32.592918 35.348553 5.178909
v 32.624828 35.348541 5.388954
v 33.319908 40.606083 -0.366217
v 32.650169 40.598061 -0.361231
v 33.292919 39.443157 3.491111
v 33.292919 37.232162 5.064981
v 32.692921 37.232494 5.064856
v 32.692921 39.444302 3.489738
v 33.368034 40.639954 -0.284686
v 33.376019 40.435459 -0.334880
v 33.392921 39.075832 3.559913
v 33.392921 37.196854 4.971422
v 33.392921 39.366089 3.427389
v 32.611984 40.438457 -0.340502
v 32.592918 39.075832 3.559913
v 32.623703 40.641663 -0.290952
v 32.592918 39.367378 3.425840
v 32.592918 37.197247 4.971273
v 15.592920 35.348553 5.178909
v 14.253620 35.348553 5.153294
v 14.273678 35.348549 5.650311
v 15.566732 35.348545 5.642294
v 14.257416 35.348549 -4.991090
v 15.592920 35.348553 -5.021091
v 15.562159 35.348545 -5.492486
v 14.261295 35.348549 -5.480009
v 15.592920 35.348553 4.871426
v 15.592920 38.737373 3.467730
v 15.592920 40.141068 0.078908
v 15.592920 38.737373 -3.309912
v 15.592920 35.348553 -4.713607
v 14.242920 35.348553 -4.713607
v 14.242920 38.737373 -3.309912
v 14.242920 40.141068 0.078908
v 14.242920 38.737373 3.467730
v 14.242920 35.348553 4.871426
v 14.267532 25.348551 5.154301
v 14.242920 25.348553 4.178911
v 14.242920 30.298553 4.178910
v 14.242920 30.298553 -4.021090
v 14.242920 25.348553 -4.021089
v 14.258507 25.348551 -5.001475
v 14.242920 39.227127 -3.809705
v 14.282440 40.908806 0.065765
v 14.242920 39.227215 3.967438
v 14.242920 35.348553 3.671425
v 14.242920 35.348553 -3.513607
v 14.242920 32.808262 -2.461382
v 14.242920 31.756037 0.078910
v 14.242920 32.808262 2.619202
v 15.492920 39.303059 -3.875598
v 15.562664 40.904110 0.093276
v 15.492920 39.303066 4.033409
v 14.342918 39.303066 4.033409
v 14.342918 39.303059 -3.875597
v 15.592920 39.227230 3.967424
v 15.592920 39.227104 -3.809728
v 37.242920 35.348553 3.671425
v 37.218307 35.348553 5.154297
v 36.192921 35.348553 5.178909
v 36.192921 35.348553 4.871243
v 34.592918 35.348553 4.871243
v 34.592918 35.348553 5.178909
v 37.242920 35.348553 -3.513607
v 37.143143 35.348549 -4.999640
v 37.242920 35.348553 -4.821091
v 36.164917 25.348551 -4.002843
v 36.174671 25.348551 4.150908
v 37.228024 25.348551 5.164019
v 37.206429 25.348551 -4.965081
v 37.242920 32.808266 2.619205
v 37.242920 31.756037 0.078910
v 37.242920 32.808266 -2.461385
v 36.174675 30.298553 -3.993086
v 36.164913 30.298553 4.160666
v 36.178921 35.347988 5.641693
v 34.633816 35.348080 5.659126
v 36.166309 38.545967 4.644236
v 34.610474 38.540718 4.636759
v 34.592918 38.097324 4.004559
v 36.192921 38.097324 4.004559
v 36.192921 36.789581 4.649256
v 34.692921 37.205040 5.354101
v 36.092918 37.187389 5.360279
v 34.592918 36.789581 4.649256
v 34.592918 37.171806 5.259912
vn -0.0000 -1.0000 -0.0001
vn 0.0104 0.3402 0.9403
vn 0.0090 -0.0140 0.9999
vn 0.0131 -0.0140 0.9998
vn 0.0021 0.3438 0.9390
vn -0.0061 -0.0102 0.9999
vn 0.0018 0.3438 0.9390
vn 0.9996 0.0277 -0.0073
vn -0.0027 0.3491 0.9371
vn 0.0094 -0.0142 0.9999
vn 0.9907 0.0152 0.1350
vn -0.0000 -0.7308 -0.6825
vn -0.0000 -0.0000 -1.0000
vn 1.0000 -0.0000 -0.0000
vn -0.9885 0.0169 0.1502
vn -1.0000 -0.0000 -0.0000
vn -1.0000 -0.0071 -0.0007
vn -0.9999 -0.0169 0.0015
vn -0.0031 0.3817 0.9243
vn 0.0065 -0.1786 -0.9839
vn -0.0059 -0.1274 -0.9918
vn -0.0007 0.7725 0.6350
vn 0.0041 0.9972 -0.0744
vn -0.0003 0.9972 -0.0745
vn -0.0607 0.6993 -0.7122
vn 0.0018 1.0000 0.0064
vn 0.0681 0.9977 0.0019
vn -0.9999 -0.0059 0.0118
vn 0.0026 0.7693 0.6388
vn -0.0084 0.9972 -0.0744
vn -0.0120 0.5617 -0.8272
vn 0.0259 0.5818 -0.8129
vn -0.0588 0.9838 -0.1691
vn -0.0022 0.7725 0.6350
vn -0.0023 0.7723 0.6353
vn 0.0071 0.9972 -0.0744
vn -0.0000 0.3534 0.9355
vn 0.0001 0.3534 0.9355
vn -0.0000 0.7682 0.6402
vn -0.0000 0.7684 0.6399
vn 1.0000 -0.0014 -0.0027
vn 1.0000 -0.0001 -0.0067
vn 0.0025 0.7601 0.6497
vn -0.0000 0.7684 0.6400
vn -0.0000 0.7685 0.6399
vn 0.9993 0.0375 0.0062
vn 0.5690 0.0336 -0.8217
vn 0.9368 0.2869 -0.2002
vn 0.5677 0.0326 -0.8226
vn 1.0000 -0.0024 -0.0052
vn -0.0043 -0.9973 0.0735
vn 0.0005 -0.9973 0.0735
vn -0.0028 -0.7349 -0.6782
vn 0.0018 -0.7347 -0.6784
vn -0.0018 -0.9973 0.0733
vn 0.0029 -0.7347 -0.6784
vn -1.0000 -0.0027 -0.0058
vn -0.9984 0.0550 0.0106
vn -0.6592 0.1348 -0.7397
vn -0.9953 0.0626 -0.0743
vn -0.9846 0.1643 -0.0593
vn -0.0000 -1.0000 -0.0000
vn -0.0191 -0.0428 0.9989
vn 0.9983 0.0176 0.0564
vn -0.0000 1.0000 -0.0000
vn -0.0000 -0.0015 1.0000
vn -0.0004 0.0001 1.0000
vn -0.9991 0.0096 0.0403
vn -0.9992 0.0088 0.0379
vn -0.9987 -0.0336 0.0379
vn -0.9997 -0.0014 0.0252
vn -0.9999 -0.0000 0.0110
vn -1.0000 0.0016 0.0026
vn -0.0032 0.7158 0.6983
vn -1.0000 -0.0035 -0.0014
vn -1.0000 -0.0077 0.0004
vn 0.0052 0.7027 0.7115
vn 0.0040 -0.0062 1.0000
vn 0.0081 -0.0062 0.9999
vn 0.0021 0.7039 0.7103
vn -0.0060 -0.0045 1.0000
vn 0.0019 0.7039 0.7103
vn 0.9999 0.0109 -0.0070
vn -0.0024 0.7061 0.7081
vn 0.0089 -0.0063 0.9999
vn -1.0000 -0.0003 -0.0079
vn -1.0000 -0.0033 -0.0033
vn -0.9984 0.0216 -0.0522
vn -0.9986 -0.0001 -0.0522
vn -0.0225 0.0010 -0.9997
vn 0.9977 0.0203 -0.0651
vn 0.0010 -0.0021 -1.0000
vn 1.0000 -0.0036 0.0013
vn 1.0000 -0.0077 -0.0004
vn 0.0032 0.7158 -0.6983
vn -0.0078 0.7021 -0.7121
vn -0.0073 -0.0071 -0.9999
vn -0.0116 -0.0071 -0.9999
vn -0.0019 0.7039 -0.7103
vn -0.0021 0.7039 -0.7103
vn 0.0060 -0.0045 -1.0000
vn 0.0027 0.7058 -0.7085
vn -0.0097 -0.0072 -0.9999
vn -0.9999 0.0121 0.0077
vn -0.0000 -0.7071 -0.7071
vn -0.0000 -0.7071 0.7071
vn 0.9991 0.0399 -0.0165
vn 0.9992 0.0394 0.0093
vn -0.0000 -0.0000 1.0000
vn 1.0000 0.0055 0.0054
vn -1.0000 -0.0016 -0.0000
vn -0.9986 0.0512 -0.0120
vn -0.9986 0.0516 0.0121
vn -0.0008 -0.0000 -1.0000
vn -0.0013 0.0020 -1.0000
vn -0.9999 -0.0000 -0.0159
vn -0.0008 -0.0000 1.0000
vn -0.9995 0.0032 -0.0323
vn -0.0013 -0.0020 1.0000
vn -0.0025 0.6995 -0.7147
vn -1.0000 0.0008 0.0049
vn -1.0000 0.0026 0.0090
vn -0.0064 0.9999 -0.0082
vn -0.9999 -0.0047 0.0090
vn 0.0027 0.7095 0.7047
vn -0.0000 0.7071 -0.7071
vn -0.0000 0.7071 0.7071
vn 0.0039 1.0000 0.0090
vn 0.0079 0.9999 0.0091
vn 0.0105 0.7134 -0.7006
vn 0.0020 0.7112 -0.7030
vn -0.0055 1.0000 0.0058
vn 0.0018 0.7112 -0.7030
vn 1.0000 0.0005 0.0037
vn 0.0020 0.7011 -0.7130
vn 1.0000 0.0019 0.0069
vn -0.0020 0.7118 0.7023
vn -0.0021 0.7118 0.7023
vn 0.0063 1.0000 -0.0067
vn -0.0007 1.0000 -0.0081
vn -0.0051 0.7128 0.7014
vn 0.0033 1.0000 -0.0080
vn 1.0000 0.0015 -0.0071
vn 0.0021 0.6997 0.7145
vn 1.0000 -0.0000 -0.0034
vn 0.9999 0.0010 0.0166
vn 1.0000 -0.0011 0.0026
vn 0.0240 0.0010 0.9997
vn -0.0000 -1.0000 -0.0010
vn 0.9995 0.0111 0.0302
vn -0.0001 -1.0000 -0.0012
vn -0.0000 -0.3007 -0.9537
vn -0.9964 -0.0038 0.0849
vn 0.0016 -0.0034 -1.0000
vn 0.6215 0.0017 -0.7834
vn 0.6215 0.0020 -0.7834
vn 0.9934 0.0038 -0.1146
vn 1.0000 -0.0036 -0.0039
vn -1.0000 0.0020 0.0012
vn -1.0000 -0.0020 -0.0012
vn 1.0000 -0.0042 -0.0021
vn 1.0000 -0.0017 0.0007
vn 1.0000 -0.0035 -0.0014
vn 0.9992 0.0152 0.0362
vn -0.9951 -0.0285 -0.0943
vn -0.7708 -0.0199 0.6368
vn -0.9951 -0.0295 -0.0939
vn 0.0095 0.3144 0.9492
vn 0.0102 -0.0152 0.9998
vn 0.0137 -0.0152 0.9998
vn 0.1122 0.3277 0.9381
vn -0.6244 0.4384 0.6465
vn 0.1018 -0.0090 0.9948
vn 0.0009 0.3228 0.9465
vn 0.0017 0.3260 0.9454
vn -0.0043 -0.0063 1.0000
vn -0.1569 0.3308 0.9306
vn 0.5885 0.0176 0.8083
vn -0.1439 0.5815 0.8007
vn -0.0000 0.8187 -0.5742
vn -0.0046 0.3488 0.9372
vn -0.0048 0.5881 0.8087
vn -0.0083 0.5881 0.8087
vn -0.0020 0.3402 0.9404
vn 0.0050 0.5833 0.8122
vn -0.0009 0.3433 0.9392
vn -0.9997 0.0193 0.0142
vn -0.0000 -0.5736 -0.8192
vn 0.9994 0.0152 0.0309
vt 0.493662 0.558675
vt 0.494337 0.558767
vt 0.494364 0.561243
vt 0.063275 0.786853
vt 0.061040 0.780469
vt 0.063516 0.780472
vt 0.061269 0.786854
vt 0.063610 0.786775
vt 0.977815 0.414625
vt 0.981427 0.409429
vt 0.981886 0.409925
vt 0.493662 0.561350
vt 0.494278 0.873889
vt 0.491612 0.861012
vt 0.494287 0.861012
vt 0.976398 0.422354
vt 0.491603 0.873888
vt 0.979734 0.631074
vt 0.975660 0.626373
vt 0.976137 0.625858
vt 0.981152 0.638801
vt 0.060935 0.786776
vt 0.493662 0.561540
vt 0.494239 0.561350
vt 0.494239 0.563904
vt 0.493700 0.563779
vt 0.874117 0.607583
vt 0.871965 0.594997
vt 0.874454 0.594997
vt 0.872128 0.594724
vt 0.874454 0.607369
vt 0.874367 0.594759
vt 0.872111 0.607571
vt 0.063282 0.794845
vt 0.975985 0.423338
vt 0.975647 0.423358
vt 0.977512 0.414477
vt 0.061276 0.794850
vt 0.981270 0.435350
vt 0.980036 0.630926
vt 0.981902 0.639811
vt 0.981565 0.639792
vt 0.981886 0.435009
vt 0.981536 0.435474
vt 0.494215 0.861012
vt 0.491660 0.860993
vt 0.491603 0.847836
vt 0.494278 0.847836
vt 0.975660 0.651478
vt 0.976273 0.651817
vt 0.976007 0.651892
vt 0.853910 0.441266
vt 0.852250 0.441365
vt 0.852250 0.436886
vt 0.102149 0.796322
vt 0.135331 0.868665
vt 0.135342 0.873143
vt 0.853800 0.436944
vt 0.144411 0.933446
vt 0.157379 0.927845
vt 0.157380 0.929395
vt 0.157380 0.930423
vt 0.394381 0.844688
vt 0.393353 0.781156
vt 0.394381 0.781156
vt 0.135320 0.805133
vt 0.102165 0.873097
vt 0.650707 0.940717
vt 0.654673 0.927748
vt 0.656335 0.927749
vt 0.653730 0.927748
vt 0.646199 0.919254
vt 0.651414 0.894313
vt 0.654676 0.894313
vt 0.651414 0.910863
vt 0.561183 0.991136
vt 0.560849 0.990912
vt 0.560945 0.977342
vt 0.565029 0.991136
vt 0.565268 0.977344
vt 0.565363 0.990911
vt 0.626374 0.939079
vt 0.619117 0.927749
vt 0.620752 0.927749
vt 0.624702 0.940717
vt 0.621680 0.927749
vt 0.620717 0.894314
vt 0.855487 0.441285
vt 0.853910 0.441353
vt 0.853910 0.436886
vt 0.097256 0.874270
vt 0.063941 0.874274
vt 0.063933 0.869808
vt 0.855543 0.436936
vt 0.144410 0.959450
vt 0.157378 0.963501
vt 0.157377 0.965076
vt 0.157378 0.962473
vt 0.854351 0.076907
vt 0.849311 0.004514
vt 0.850339 0.004514
vt 0.849383 0.076573
vt 0.063949 0.797750
vt 0.144152 0.959669
vt 0.991328 0.521237
vt 0.987243 0.508518
vt 0.991592 0.508515
vt 0.987483 0.521236
vt 0.624483 0.940974
vt 0.994382 0.572198
vt 0.989868 0.572197
vt 0.989876 0.560509
vt 0.146049 0.935117
vt 0.994390 0.560510
vt 0.389341 0.776642
vt 0.393353 0.776642
vt 0.924132 0.508433
vt 0.919618 0.508433
vt 0.919618 0.496963
vt 0.141355 0.946448
vt 0.924132 0.496963
vt 0.924132 0.519615
vt 0.919618 0.519615
vt 0.138803 0.946399
vt 0.146048 0.957779
vt 0.935297 0.844536
vt 0.939811 0.844536
vt 0.939805 0.855193
vt 0.935291 0.855193
vt 0.850339 -0.000000
vt 0.625692 0.927748
vt 0.854351 -0.000000
vt 0.637705 0.943772
vt 0.649036 0.939079
vt 0.637661 0.946341
vt 0.649718 0.927748
vt 0.217568 0.797221
vt 0.220952 0.870471
vt 0.217693 0.870555
vt 0.308997 0.793765
vt 0.325485 0.867067
vt 0.308992 0.867067
vt 0.325487 0.793733
vt 0.637705 0.915736
vt 0.623996 0.910864
vt 0.798631 0.551768
vt 0.825943 0.625103
vt 0.798537 0.625103
vt 0.825882 0.551801
vt 0.623996 0.894313
vt 0.858573 0.521423
vt 0.875014 0.594724
vt 0.858592 0.594724
vt 0.629211 0.919255
vt 0.874991 0.521390
vt 0.187010 0.870516
vt 0.190316 0.797265
vt 0.190287 0.870567
vt 0.650928 0.940974
vt 0.493852 0.770924
vt 0.493842 0.847830
vt 0.485676 0.847836
vt 0.393352 0.850038
vt 0.389341 0.853549
vt 0.485687 0.770930
vt 0.393352 0.844688
vt 0.857051 0.184093
vt 0.857064 0.261000
vt 0.848197 0.261005
vt 0.846657 0.390886
vt 0.846657 0.313979
vt 0.855105 0.313979
vt 0.848184 0.184098
vt 0.855105 0.390885
vt 0.863644 0.313979
vt 0.863644 0.390886
vt 0.881284 0.930906
vt 0.877004 0.930998
vt 0.877237 0.917659
vt 0.881082 0.917659
vt 0.881082 0.944102
vt 0.877237 0.944102
vt 0.144154 0.933223
vt 0.394299 0.853467
vt 0.753415 0.928634
vt 0.719980 0.933625
vt 0.719979 0.928666
vt 0.728473 0.937143
vt 0.394381 0.850038
vt 0.135329 0.796355
vt 0.135319 0.799783
vt 0.825913 0.928239
vt 0.825673 0.923111
vt 0.826654 0.923421
vt 0.485664 0.822090
vt 0.484059 0.822227
vt 0.484059 0.816877
vt 0.824198 0.922645
vt 0.485606 0.816924
vt 0.918779 0.991088
vt 0.913430 0.986223
vt 0.918780 0.986224
vt 0.913429 0.991087
vt 0.371855 0.918588
vt 0.368783 0.913164
vt 0.369764 0.912855
vt 0.369524 0.917983
vt 0.371296 0.912372
vt 0.849980 0.076907
vt 0.728472 0.954131
vt 0.719978 0.962022
vt 0.719979 0.957650
vt 0.097277 0.797538
vt 0.753412 0.962502
vt 0.719974 0.962617
vt 0.187099 0.793783
vt 0.905262 0.091083
vt 0.888711 0.091116
vt 0.888711 0.063851
vt 0.220952 0.793697
vt 0.905262 0.063819
vt 0.731991 0.945637
vt 0.824163 0.933846
vt 0.246274 0.514843
vt 0.246863 0.508627
vt 0.246863 0.519837
vt 0.925271 0.372781
vt 0.920370 0.366571
vt 0.925536 0.366560
vt 0.494359 0.575972
vt 0.493435 0.580954
vt 0.493435 0.569746
vt 0.920590 0.372858
vt 0.823243 0.928796
vt 0.912383 0.849331
vt 0.914516 0.849390
vt 0.914541 0.854592
vt 0.925536 0.377586
vt 0.920334 0.377590
vt 0.371245 0.923580
vt 0.368783 0.922801
vt 0.912383 0.854681
vt 0.918775 0.995628
vt 0.913425 0.995627
vt 0.826654 0.933058
s 0
usemtl MTL3.002
f 2/1/1 1/2/1 4/3/1
f 8/4/2 4/5/3 1/6/4
f 9/7/5 4/5/6 8/4/7
f 14/8/8 8/4/9 1/6/10
f 14/9/11 1/10/11 2/11/11
f 4/3/1 3/12/1 2/1/1
f 17/13/12 2/14/13 3/15/13
f 14/9/14 2/11/14 13/16/14
f 17/13/12 13/17/12 2/14/13
f 20/18/15 3/19/15 4/20/15
f 20/18/16 17/21/16 3/19/16
f 20/22/17 4/5/18 9/7/19
f 5/23/20 12/24/20 16/25/20
f 6/26/21 5/23/21 16/25/21
f 10/27/22 11/28/23 18/29/24
f 5/30/25 18/29/26 11/28/27
f 19/31/28 10/27/29 18/29/30
f 5/30/31 6/32/32 18/29/33
f 10/27/34 7/33/35 11/28/36
f 9/7/37 8/4/38 7/34/39
f 15/35/14 7/36/39 8/37/37
f 10/38/40 9/7/37 7/34/39
f 15/35/41 11/39/42 7/36/43
f 15/35/14 8/37/37 14/9/14
f 20/18/16 9/40/37 10/41/44
f 20/18/16 10/41/45 19/42/16
f 15/35/46 12/43/46 11/39/46
f 5/44/47 11/39/48 12/43/49
f 15/35/50 13/16/50 12/43/50
f 16/45/51 12/46/52 13/47/53
f 15/35/14 14/9/14 13/16/14
f 17/48/54 16/45/55 13/47/56
f 19/42/57 16/49/57 17/21/57
f 19/42/58 18/50/58 16/49/58
f 6/51/59 16/49/60 18/50/61
f 20/18/16 19/42/16 17/21/16
f 23/52/62 22/53/62 21/54/62
f 71/55/63 21/56/63 22/57/63
f 24/58/62 23/52/62 21/54/62
f 58/59/64 24/60/64 21/61/64
f 58/59/14 21/61/14 29/62/14
f 65/63/65 29/64/65 21/65/65
f 71/55/66 65/66/66 21/56/66
f 71/55/67 22/57/67 39/67/67
f 47/68/68 22/69/68 23/70/68
f 47/68/69 38/71/69 22/69/69
f 52/72/70 22/69/70 38/71/70
f 40/73/71 39/74/71 22/69/71
f 41/75/72 40/73/72 22/69/72
f 52/72/73 41/75/73 22/69/73
f 56/76/74 47/77/75 23/78/76
f 55/79/77 23/78/78 24/80/79
f 56/76/80 23/78/81 55/79/82
f 58/81/83 55/79/84 24/80/85
f 35/82/86 28/83/86 25/84/86
f 45/85/87 28/83/87 35/82/87
f 35/82/88 25/84/88 34/86/88
f 44/87/89 34/86/89 25/84/89
f 27/88/62 26/89/62 25/90/62
f 44/91/90 25/92/90 26/93/90
f 28/94/62 27/88/62 25/90/62
f 59/95/91 26/96/91 27/97/91
f 59/95/14 33/98/14 26/96/14
f 66/99/65 26/100/65 33/101/65
f 67/102/65 26/100/65 66/99/65
f 44/91/92 26/93/92 67/103/92
f 59/95/93 27/97/94 53/104/95
f 57/105/96 27/106/97 28/107/98
f 57/105/99 53/108/100 27/106/101
f 57/109/102 28/83/103 45/85/104
f 37/110/105 30/111/105 29/112/13
f 58/59/14 29/62/14 30/113/14
f 38/114/13 37/110/105 29/112/13
f 48/115/65 38/116/65 29/64/65
f 65/63/65 48/115/65 29/64/65
f 36/117/62 31/118/62 30/119/105
f 58/59/14 30/113/14 31/120/14
f 37/121/105 36/117/62 30/119/105
f 35/122/106 32/123/106 31/118/62
f 54/124/107 31/120/107 32/125/107
f 36/117/62 35/122/106 31/118/62
f 54/124/108 58/59/108 31/120/108
f 34/126/109 33/127/109 32/128/106
f 59/95/14 32/125/14 33/98/14
f 35/129/106 34/126/109 32/128/106
f 59/95/110 54/124/110 32/125/110
f 66/99/65 33/101/65 34/130/65
f 49/131/111 34/86/111 44/87/111
f 66/99/65 34/130/65 49/132/65
f 45/85/16 35/82/16 36/133/16
f 47/68/16 36/133/16 37/134/16
f 46/135/112 45/85/112 36/133/112
f 47/68/113 46/135/113 36/133/113
f 47/68/16 37/134/16 38/71/16
f 52/72/16 38/71/16 48/136/16
f 70/137/62 39/138/62 40/139/62
f 77/140/114 40/141/114 41/142/114
f 77/140/115 70/143/115 40/141/115
f 51/144/16 42/145/16 41/75/16
f 76/146/62 41/147/62 42/148/62
f 52/72/16 51/144/16 41/75/16
f 77/149/62 41/147/62 76/146/62
f 44/87/116 43/150/116 42/145/116
f 69/151/117 42/152/117 43/153/117
f 49/131/118 44/87/118 42/145/118
f 50/154/16 49/131/16 42/145/16
f 51/144/16 50/154/16 42/145/16
f 76/155/119 42/152/119 69/151/119
f 44/156/62 69/157/62 43/158/62
f 57/109/120 45/85/121 46/135/122
f 46/135/123 47/68/124 56/159/125
f 73/160/126 52/161/126 48/162/13
f 63/163/65 60/164/65 48/115/65
f 73/160/126 48/162/13 60/165/13
f 64/166/65 63/163/65 48/115/65
f 65/63/65 64/166/65 48/115/65
f 66/167/109 49/168/109 50/169/127
f 75/170/127 50/171/127 51/172/65
f 75/173/127 66/167/109 50/169/127
f 74/174/65 51/172/65 52/175/126
f 75/170/127 51/172/65 74/174/65
f 74/174/65 52/175/126 73/176/126
f 46/177/128 54/178/129 53/179/130
f 57/180/131 46/177/132 53/179/133
f 59/95/134 53/104/135 54/124/136
f 56/181/137 55/182/138 54/178/139
f 46/177/140 56/181/141 54/178/142
f 54/124/143 55/183/144 58/59/145
f 63/163/65 61/184/65 60/164/65
f 71/185/146 60/186/146 61/187/146
f 73/188/147 60/186/147 71/185/147
f 63/163/65 62/189/65 61/184/65
f 71/55/148 61/190/148 62/191/148
f 84/192/14 62/193/14 63/194/14
f 71/55/66 62/191/66 65/66/66
f 79/195/149 65/196/149 62/197/149
f 84/192/150 78/198/150 62/193/150
f 78/199/151 79/195/151 62/197/151
f 87/200/152 63/201/13 64/202/13
f 87/200/152 84/203/152 63/201/13
f 88/204/16 64/205/16 65/206/16
f 88/204/16 87/207/16 64/205/16
f 88/204/153 65/206/153 79/208/153
f 68/209/65 67/102/65 66/99/65
f 75/210/14 68/211/14 66/212/14
f 44/91/154 67/103/154 72/213/154
f 72/214/155 67/215/156 68/211/157
f 75/210/158 72/214/158 68/211/158
f 44/156/62 72/216/62 69/157/62
f 72/216/62 70/137/62 69/157/62
f 76/217/159 69/218/159 70/219/159
f 72/216/62 71/220/62 70/137/62
f 76/217/160 70/219/160 77/221/160
f 71/220/62 39/138/62 70/137/62
f 75/210/161 71/185/161 72/214/161
f 74/222/162 73/188/162 71/185/162
f 75/210/163 74/222/163 71/185/163
f 84/192/164 80/223/164 78/198/164
f 88/224/165 79/225/166 81/226/167
f 86/227/168 79/228/169 78/229/170
f 85/230/171 81/231/172 79/232/173
f 86/227/174 85/233/175 79/228/176
f 86/234/177 78/198/178 80/223/179
f 82/235/180 81/236/180 80/237/180
f 85/233/181 80/238/182 81/239/183
f 86/227/184 80/238/185 85/233/186
f 88/204/187 81/240/187 82/241/187
f 80/237/180 83/242/180 82/235/180
f 84/203/152 82/243/188 83/244/188
f 87/200/152 82/243/188 84/203/152
f 88/204/16 82/241/16 87/207/16
f 84/192/189 83/245/189 80/223/189