# Blender 4.0.2
# www.blender.org
mtllib glue_gun.mtl
o Cube.003
v -28.980553 25.848553 6.828911
v -28.980553 27.848553 6.828911
v -10.080551 27.848553 6.828911
v -10.080551 25.848553 6.828911
v -28.980553 25.848551 -9.421089
v -10.080555 26.515215 -9.421089
v -28.980553 27.848551 -9.421089
v -10.080555 24.549372 -4.049181
v -10.080555 24.715218 -6.921089
v -33.480553 24.148552 -6.921089
v -10.080555 25.943352 1.918478
v -10.080555 28.848551 4.328910
v -10.080555 28.265215 -6.921090
v -10.080551 27.848553 -3.921090
v -10.080555 27.767780 1.280161
v -23.080559 40.689560 0.608412
v -33.480553 40.255325 3.224931
v -33.480553 40.347385 -5.832950
v -33.480553 27.098553 1.328910
v -33.480553 37.139076 1.985497
v -33.480553 40.210262 0.453908
v -33.480553 40.210262 -3.046092
v -33.480553 37.432804 -5.006667
v -33.480553 34.215599 -3.921091
v -33.480553 24.448471 -4.098057
v -33.480553 38.148552 -6.921092
v -33.480553 38.148552 4.328909
v -33.480553 25.848553 4.328911
v -33.480553 26.045183 1.880417
v -30.985847 28.561184 -3.921091
v -30.950005 27.722399 -6.921096
v -32.392853 29.143581 -6.921092
v -32.908897 27.667929 -6.921090
v -32.742287 28.909319 -3.921077
v -32.951721 28.718359 1.328891
v -32.975426 27.736423 4.328900
v -32.370949 29.090498 4.328912
v -30.891106 27.864029 4.328959
v -31.038246 28.537880 1.328889
v -32.114517 27.045223 -3.921090
v -31.568733 27.153231 1.328910
v -28.980553 25.848551 -6.921090
v -23.080559 39.829041 -6.697370
v -28.980553 27.848551 -6.921090
v -23.080551 29.098551 -6.921090
v -23.080559 37.249775 -4.739356
v -23.080559 28.681885 -3.921090
v -23.080559 28.473551 1.328910
v -23.080551 34.215603 1.328909
v -28.980553 25.848553 4.328911
v -23.080559 39.544575 3.935682
v -23.080551 29.098553 4.328910
v -28.980553 27.848553 4.328910
v -23.080551 40.210262 -3.046092
v -23.080551 37.432804 2.414485
vn -0.0000 -0.0000 1.0000
vn -1.0000 -0.0000 -0.0000
vn -0.0000 -0.9998 -0.0193
vn 0.0050 -1.0000 -0.0000
vn -0.0000 1.0000 -0.0000
vn 1.0000 -0.0000 -0.0000
vn -0.0491 0.9274 0.3709
vn 0.0353 -0.9994 -0.0000
vn -0.0000 -0.0000 -1.0000
vn -0.0486 -0.8106 -0.5836
vn 0.0577 0.8179 -0.5725
vn -0.0220 0.9998 -0.0000
vn 0.0044 -0.9983 -0.0577
vn 0.0241 -0.9941 0.1056
vn -0.0042 -0.9968 -0.0800
vn -0.0000 -0.9992 -0.0393
vn 0.0639 0.9966 -0.0517
vn -0.0995 0.9856 0.1369
vn -0.0379 0.9985 0.0396
vn 0.0188 0.9788 -0.2039
vn -0.0025 -0.0388 0.9992
vn -0.0018 -0.0671 0.9977
vn 0.0054 -0.0040 1.0000
vn 0.0005 -0.0296 0.9996
vn -0.0543 -0.9984 -0.0155
vn -0.0639 -0.9972 -0.0396
vn -0.0286 0.9996 -0.0003
vn -0.0028 0.0179 -0.9998
vn 0.0004 0.0561 -0.9984
vn -0.0002 0.0561 -0.9984
vn 0.0034 -0.6663 -0.7457
vn -0.0017 -0.7676 -0.6410
vn 0.0031 -0.0895 -0.9960
vn -0.0033 -0.7676 -0.6410
vn 0.0397 0.9923 -0.1169
vn 1.0000 0.0002 -0.0000
vn -0.0392 0.9992 0.0102
vn 0.0171 0.7496 0.6617
vn 0.0233 0.9979 -0.0612
vn 0.0209 0.7493 0.6618
vn -0.1960 0.0640 -0.9785
vn -0.0418 0.0751 -0.9963
vn 0.0421 0.0082 -0.9991
vn 0.0441 0.0083 -0.9990
vn 0.0441 -0.8031 -0.5943
vn 0.0268 -0.1439 -0.9892
vn 0.0268 0.7140 -0.6996
vn 0.0437 -0.1438 -0.9886
vn -0.0000 -1.0000 -0.0000
vn 0.0437 -0.9906 0.1299
vn 0.0315 -0.0357 -0.9989
vn 0.0353 -0.8284 -0.5590
vn 0.0315 -0.8285 -0.5591
vn -0.0000 -0.8844 0.4667
vn -0.0000 -0.1438 0.9896
vn -0.0272 -0.1438 0.9892
vn -0.0167 -0.1439 0.9895
vn -0.0167 0.7141 0.6998
vn -0.0277 -0.8359 0.5482
vn -0.0269 -0.0490 0.9984
vn -0.0277 -0.0489 0.9984
vn -0.1291 -0.0180 0.9915
vn 0.0505 0.0949 0.9942
vn -0.0787 -0.0265 0.9965
vn 0.0048 0.0705 -0.9975
vn -0.0094 0.0687 -0.9976
vn -0.0730 0.7507 -0.6566
vn 0.0211 0.0025 -0.9998
vn 0.0040 0.7667 0.6419
vn -0.0032 0.7671 0.6415
vn -0.0380 0.0894 0.9953
vn 0.0327 0.0376 0.9988
vn -0.5019 0.8499 -0.1607
vn -0.9581 0.2371 -0.1607
vn -0.5095 0.8524 -0.1176
vn -0.0012 0.0193 -0.9998
vn -0.9029 -0.3749 0.2105
vn -0.3642 -0.9151 0.1732
vn -0.9095 -0.3780 0.1730
vn 0.0111 0.0113 -0.9999
vn -0.5543 -0.8273 -0.0912
vn 0.1969 -0.9762 -0.0911
vn 0.1929 -0.9704 -0.1452
vn 0.9988 0.0487 0.0044
vn 0.9953 0.0574 0.0775
vn 0.7427 -0.6652 0.0775
vn 0.7387 0.6529 -0.1678
vn 0.9869 -0.0710 -0.1446
vn 0.9831 -0.0730 -0.1678
vn 0.6809 -0.7237 -0.1123
vn 0.6811 -0.7230 -0.1157
vn 0.9930 -0.0243 -0.1158
vn -0.3101 -0.9465 0.0899
vn -0.8705 -0.4506 0.1977
vn -0.2812 -0.9390 0.1978
vn 0.2965 -0.9344 -0.1976
vn -0.4660 -0.8624 -0.1978
vn -0.4504 -0.8883 -0.0899
vn -0.7188 0.6855 0.1156
vn -0.9932 -0.0295 0.1122
vn -0.9928 -0.0297 0.1156
vn -0.4068 0.8988 0.1634
vn -0.4079 0.8922 0.1940
vn 0.3577 0.9135 0.1940
vn -0.4336 0.8709 -0.2312
vn 0.3272 0.9234 -0.2008
vn -0.4373 0.8767 -0.2005
vn 0.4222 0.8840 0.2008
vn 0.9293 0.3102 0.2005
vn 0.9226 0.3087 0.2312
vn -0.0044 0.0208 -0.9998
vt 0.672786 0.888965
vt 0.666104 0.825770
vt 0.672791 0.825770
vt 0.375901 0.704920
vt 0.369214 0.696561
vt 0.375900 0.696561
vt 0.830297 0.521416
vt 0.846719 0.521390
vt 0.846829 0.584571
vt 0.838472 0.584580
vt 0.369215 0.704920
vt 0.666099 0.888965
vt 0.657739 0.825770
vt 0.666099 0.825770
vt 0.666095 0.888963
vt 0.920381 0.129403
vt 0.925891 0.146128
vt 0.919214 0.145783
vt 0.929663 0.137952
vt 0.657753 0.888998
vt 0.816287 0.178120
vt 0.807930 0.178120
vt 0.807837 0.114990
vt 0.709900 0.884553
vt 0.709900 0.821199
vt 0.716568 0.884082
vt 0.362526 0.696561
vt 0.369214 0.704920
vt 0.362528 0.704920
vt 0.917811 0.099676
vt 0.924253 0.091638
vt 0.929663 0.100287
vt 0.816347 0.114853
vt 0.243072 0.891385
vt 0.234682 0.891324
vt 0.234708 0.828177
vt 0.243068 0.828177
vt 0.369213 0.696561
vt 0.848184 0.262309
vt 0.838570 0.184119
vt 0.848184 0.184093
vt 0.927752 0.110233
vt 0.916760 0.109237
vt 0.838773 0.262300
vt 0.725653 0.806852
vt 0.721854 0.870048
vt 0.719974 0.791805
vt 0.073964 0.907927
vt 0.070334 0.918683
vt 0.063933 0.874274
vt 0.063933 0.921077
vt 0.073373 0.875275
vt 0.731736 0.793717
vt 0.766765 0.791805
vt 0.731917 0.800267
vt 0.732338 0.806852
vt 0.830297 0.599648
vt 0.838499 0.599623
vt 0.180321 0.808775
vt 0.176972 0.871970
vt 0.176140 0.828502
vt 0.881347 0.916167
vt 0.918974 0.959610
vt 0.881347 0.959604
vt 0.926582 0.127586
vt 0.891371 0.916148
vt 0.908922 0.916134
vt 0.918964 0.916152
vt 0.736512 0.826580
vt 0.733719 0.870048
vt 0.812519 0.826589
vt 0.826328 0.870053
vt 0.815302 0.870056
vt 0.817994 0.796382
vt 0.826671 0.791810
vt 0.812925 0.800156
vt 0.947229 0.178482
vt 0.929748 0.134961
vt 0.947141 0.134971
vt 0.929663 0.178482
vt 0.492362 0.526126
vt 0.492362 0.447863
vt 0.492376 0.454257
vt 0.830269 0.826675
vt 0.826671 0.870059
vt 0.826671 0.798179
vt 0.842740 0.704096
vt 0.840352 0.625858
vt 0.846516 0.625858
vt 0.846318 0.704100
vt 0.844011 0.408311
vt 0.809224 0.429849
vt 0.809256 0.405406
vt 0.938162 0.708789
vt 0.950345 0.706935
vt 0.962524 0.705410
vt 0.844011 0.438596
vt 0.809262 0.440955
vt 0.076890 0.927967
vt 0.097858 0.928114
vt 0.067572 0.928427
vt 0.088593 0.927965
vt 0.101550 0.921071
vt 0.093714 0.917697
vt 0.091519 0.884132
vt 0.832032 0.793706
vt 0.826671 0.791784
vt 0.860148 0.792724
vt 0.093363 0.880610
vt 0.849452 0.827221
vt 0.860089 0.827503
vt 0.870565 0.793051
vt 0.083806 0.928427
vt 0.095630 0.963157
vt 0.083931 0.963193
vt 0.095981 0.928427
vt 0.871154 0.827854
vt 0.774002 0.826614
vt 0.774005 0.791840
vt 0.783226 0.791784
vt 0.783844 0.826566
vt 0.794019 0.791815
vt 0.811761 0.794283
vt 0.772352 0.826576
vt 0.774002 0.791784
vt 0.736668 0.795442
vt 0.141200 0.828491
vt 0.138803 0.793697
vt 0.145884 0.793728
vt 0.101550 0.879951
vt 0.180697 0.795417
vt 0.187010 0.793728
vt 0.176170 0.797438
vt 0.180270 0.802387
vt 0.187009 0.808775
vt 0.981360 0.897740
vt 0.986507 0.897740
vt 0.983653 0.907755
vt 0.937769 0.563982
vt 0.942702 0.573968
vt 0.937769 0.573941
vt 0.943667 0.563900
vt 0.956843 0.615773
vt 0.961800 0.625441
vt 0.956843 0.625822
vt 0.963006 0.615248
vt 0.930641 0.845131
vt 0.930641 0.855267
vt 0.926109 0.854663
vt 0.029790 0.939921
vt 0.023389 0.929465
vt 0.028417 0.929838
vt 0.023389 0.939565
vt 0.949215 0.573941
vt 0.951666 0.563900
vt 0.953882 0.573941
vt 0.831246 0.800084
vt 0.055568 0.812770
vt 0.049232 0.804076
vt 0.055568 0.802409
vt 0.979345 0.538248
vt 0.986144 0.546997
vt 0.979345 0.548549
vt 0.925546 0.844536
vt 0.952466 0.668345
vt 0.962524 0.669531
vt 0.955799 0.696924
vt 0.947973 0.136453
vt 0.958109 0.134961
vt 0.956979 0.154123
vt 0.952722 0.164644
vt 0.947229 0.171391
vt 0.958109 0.175870
s 0
usemtl MTL2.002
f 4/1/1 2/2/1 1/3/1
f 53/4/2 1/5/2 2/6/2
f 11/7/3 4/8/3 1/9/3
f 50/10/4 11/7/4 1/9/4
f 53/4/2 50/11/2 1/5/2
f 4/1/1 3/12/1 2/2/1
f 53/13/5 2/14/5 3/15/5
f 11/16/6 3/17/6 4/18/6
f 12/19/6 3/17/6 11/16/6
f 53/13/7 3/15/7 12/20/7
f 42/21/8 5/22/8 6/23/8
f 7/24/9 6/25/9 5/26/9
f 42/27/2 7/28/2 5/29/2
f 9/30/6 6/31/6 13/32/6
f 42/21/10 6/23/10 9/33/10
f 13/34/11 6/35/11 7/36/11
f 44/37/12 13/34/12 7/36/12
f 44/38/2 7/28/2 42/27/2
f 25/39/13 9/40/13 8/41/13
f 14/42/6 8/43/6 9/30/6
f 25/39/14 10/44/14 9/40/14
f 42/45/9 9/46/9 10/47/9
f 24/48/2 23/49/2 10/50/2
f 26/51/2 10/50/2 23/49/2
f 25/52/2 24/48/2 10/50/2
f 33/53/9 10/47/9 26/54/9
f 31/55/9 10/47/9 33/53/9
f 44/56/9 10/47/9 31/55/9
f 44/56/9 42/45/9 10/47/9
f 29/57/15 11/7/15 28/58/15
f 50/10/16 28/58/16 11/7/16
f 53/59/1 12/60/1 52/61/1
f 45/62/17 12/63/17 13/64/17
f 14/42/6 13/32/6 12/19/6
f 15/65/6 14/42/6 12/19/6
f 11/16/6 15/65/6 12/19/6
f 47/66/18 12/63/18 45/62/18
f 48/67/19 12/63/19 47/66/19
f 52/68/20 12/63/20 48/67/20
f 45/69/9 13/70/9 44/56/9
f 14/42/6 9/30/6 13/32/6
f 47/71/21 8/72/21 14/73/21
f 40/74/22 25/75/22 8/72/22
f 40/74/23 8/72/23 30/76/23
f 47/71/24 30/76/24 8/72/24
f 48/77/25 14/78/25 15/79/25
f 48/77/26 47/80/26 14/78/26
f 15/81/27 19/82/27 41/83/27
f 48/84/28 15/85/28 41/86/28
f 19/87/29 15/88/30 11/89/31
f 29/90/32 19/87/33 11/89/34
f 18/91/35 16/92/35 43/93/35
f 16/94/36 54/95/36 43/96/36
f 18/91/37 17/97/37 16/92/37
f 51/98/38 16/92/39 17/97/40
f 22/99/2 17/100/2 18/101/2
f 22/99/2 21/102/2 17/100/2
f 27/103/2 20/104/2 19/105/2
f 35/106/41 19/107/41 20/108/41
f 29/109/2 27/103/2 19/105/2
f 41/86/9 19/107/9 35/106/9
f 49/110/42 35/106/42 20/108/42
f 17/100/2 21/102/2 20/104/2
f 55/111/43 20/108/44 21/112/45
f 27/103/2 17/100/2 20/104/2
f 55/111/46 49/110/47 20/108/48
f 54/113/49 21/114/49 22/115/49
f 16/116/50 21/114/50 54/113/50
f 55/111/51 21/112/52 16/117/53
f 26/51/2 23/49/2 22/99/2
f 54/118/54 22/119/54 23/120/55
f 18/101/2 26/51/2 22/99/2
f 46/121/56 23/120/57 24/122/58
f 54/118/59 23/120/60 46/121/61
f 34/123/62 24/122/62 25/75/62
f 47/71/1 24/122/1 30/76/1
f 30/76/1 24/122/1 34/123/1
f 47/71/63 46/121/63 24/122/63
f 40/74/64 34/123/64 25/75/64
f 43/124/65 26/54/66 18/125/67
f 33/53/9 26/54/9 32/126/9
f 43/124/68 32/126/68 26/54/68
f 51/127/69 17/128/70 27/129/71
f 29/109/2 28/130/2 27/103/2
f 36/131/1 27/129/1 28/132/1
f 37/133/1 27/129/1 36/131/1
f 38/134/1 27/129/1 37/133/1
f 50/135/1 27/129/1 38/134/1
f 53/59/1 27/129/1 50/135/1
f 52/61/72 51/127/72 27/129/72
f 53/59/1 52/61/1 27/129/1
f 50/135/1 36/131/1 28/132/1
f 40/136/73 30/137/74 31/138/75
f 44/56/76 31/55/76 43/124/76
f 30/139/77 32/140/78 31/141/79
f 43/124/80 31/55/80 32/126/80
f 30/139/81 34/142/82 32/140/83
f 34/143/84 33/144/85 32/145/86
f 40/146/87 33/144/88 34/143/89
f 35/147/90 37/148/91 36/149/92
f 35/150/93 38/151/94 37/152/95
f 35/150/96 39/153/97 38/151/98
f 41/154/99 38/155/100 39/156/101
f 49/110/9 41/86/9 39/157/9
f 49/110/9 39/157/9 35/106/9
f 40/158/102 31/159/103 33/160/104
f 41/161/105 36/162/106 38/163/107
f 50/135/1 38/134/1 36/131/1
f 41/164/108 35/147/109 36/149/110
f 49/110/9 48/84/9 41/86/9
f 45/69/111 44/56/111 43/124/111
f 47/165/6 45/166/6 43/96/6
f 47/165/6 43/96/6 46/167/6
f 52/168/6 48/169/6 49/170/6
f 55/171/6 52/168/6 49/170/6
f 55/171/6 51/172/6 52/168/6
f 55/171/6 16/173/6 51/172/6
f 43/96/6 54/95/6 46/167/6