# Blender 4.0.2
# www.blender.org
mtllib key.mtl
o Torus.001
v 0.000000 -1.190000 1.317167
v -0.181898 -1.119336 1.317167
v -0.294318 -0.934336 1.317167
v -0.294318 -0.705664 1.317167
v -0.181898 -0.520664 1.317167
v 0.000000 -0.450000 1.317167
v 0.181899 -0.520664 1.317167
v 0.294318 -0.705664 1.317167
v 0.294318 -0.934336 1.317167
v 0.181899 -1.119336 1.317167
v 0.000000 -0.911593 0.552249
v -0.181898 -0.857461 0.597671
v -0.294318 -0.715743 0.716587
v -0.294318 -0.540570 0.863575
v -0.181898 -0.398852 0.982490
v 0.000000 -0.344720 1.027912
v 0.181899 -0.398852 0.982490
v 0.294318 -0.540570 0.863575
v 0.294318 -0.715743 0.716587
v 0.181899 -0.857461 0.597671
v 0.000000 -0.206641 0.145245
v -0.181898 -0.194371 0.214836
v -0.294318 -0.162246 0.397025
v -0.294318 -0.122537 0.622223
v -0.181899 -0.090412 0.804413
v 0.000000 -0.078142 0.874003
v 0.181899 -0.090412 0.804413
v 0.294318 -0.122537 0.622223
v 0.294318 -0.162246 0.397025
v 0.181899 -0.194371 0.214836
v -0.000000 0.595000 0.286596
v -0.181899 0.559668 0.347793
v -0.294318 0.467168 0.508008
v -0.294318 0.352832 0.706044
v -0.181899 0.260332 0.866258
v -0.000000 0.225000 0.927455
v 0.181898 0.260332 0.866258
v 0.294318 0.352832 0.706044
v 0.294318 0.467168 0.508008
v 0.181898 0.559668 0.347793
v -0.000000 1.118234 0.910162
v -0.181899 1.051832 0.934331
v -0.294318 0.877989 0.997604
v -0.294318 0.663107 1.075815
v -0.181899 0.489264 1.139089
v -0.000000 0.422862 1.163257
v 0.181898 0.489264 1.139089
v 0.294318 0.663107 1.075815
v 0.294318 0.877989 0.997604
v 0.181898 1.051832 0.934331
v -0.000000 1.118234 1.724170
v -0.181899 1.051832 1.700002
v -0.294318 0.877989 1.636728
v -0.294318 0.663107 1.558518
v -0.181899 0.489264 1.495244
v -0.000000 0.422862 1.471076
v 0.181898 0.489264 1.495244
v 0.294318 0.663107 1.558518
v 0.294318 0.877989 1.636728
v 0.181898 1.051832 1.700002
v -0.000000 0.595000 2.347737
v -0.181899 0.559668 2.286541
v -0.294318 0.467168 2.126326
v -0.294318 0.352832 1.928290
v -0.181899 0.260332 1.768075
v -0.000000 0.225000 1.706878
v 0.181898 0.260332 1.768075
v 0.294318 0.352832 1.928290
v 0.294318 0.467168 2.126326
v 0.181898 0.559668 2.286541
v 0.000000 -0.206641 2.489088
v -0.181898 -0.194371 2.419498
v -0.294318 -0.162246 2.237309
v -0.294318 -0.122537 2.012110
v -0.181899 -0.090412 1.829921
v 0.000000 -0.078142 1.760330
v 0.181899 -0.090412 1.829921
v 0.294318 -0.122537 2.012110
v 0.294318 -0.162246 2.237309
v 0.181899 -0.194371 2.419498
v 0.000000 -0.911593 2.082084
v -0.181898 -0.857461 2.036662
v -0.294318 -0.715743 1.917747
v -0.294318 -0.540570 1.770759
v -0.181898 -0.398852 1.651843
v 0.000000 -0.344720 1.606421
v 0.181899 -0.398852 1.651843
v 0.294318 -0.540570 1.770759
v 0.294318 -0.715743 1.917747
v 0.181899 -0.857461 2.036662
vn -0.3429 -0.8827 -0.3213
vn -0.8397 -0.5103 -0.1857
vn -1.0000 -0.0000 -0.0000
vn -0.8397 0.5103 0.1857
vn -0.3429 0.8827 0.3213
vn 0.3429 0.8827 0.3213
vn 0.8397 0.5103 0.1857
vn 1.0000 -0.0000 -0.0000
vn 0.8397 -0.5103 -0.1857
vn 0.3429 -0.8827 -0.3213
vn -0.3429 -0.4697 -0.8135
vn -0.8397 -0.2715 -0.4703
vn -0.8397 0.2715 0.4703
vn -0.3429 0.4697 0.8135
vn 0.3429 0.4697 0.8135
vn 0.8397 0.2715 0.4703
vn 0.8397 -0.2715 -0.4703
vn 0.3429 -0.4697 -0.8135
vn -0.3429 0.1631 -0.9251
vn -0.8397 0.0943 -0.5348
vn -0.8397 -0.0943 0.5348
vn -0.3429 -0.1631 0.9251
vn 0.3429 -0.1631 0.9251
vn 0.8397 -0.0943 0.5348
vn 0.8397 0.0943 -0.5348
vn 0.3429 0.1631 -0.9251
vn -0.3429 0.7196 -0.6038
vn -0.8397 0.4160 -0.3490
vn -0.8397 -0.4160 0.3490
vn -0.3429 -0.7196 0.6038
vn 0.3429 -0.7196 0.6038
vn 0.8397 -0.4160 0.3490
vn 0.8397 0.4160 -0.3490
vn 0.3429 0.7196 -0.6038
vn -0.3429 0.9394 -0.0000
vn -0.8397 0.5430 -0.0000
vn -0.8397 -0.5430 -0.0000
vn -0.3429 -0.9394 -0.0000
vn 0.3429 -0.9394 -0.0000
vn 0.8397 -0.5430 -0.0000
vn 0.8397 0.5430 -0.0000
vn 0.3429 0.9394 -0.0000
vn -0.3429 0.7196 0.6038
vn -0.8397 0.4160 0.3490
vn -0.8397 -0.4160 -0.3490
vn -0.3429 -0.7196 -0.6038
vn 0.3429 -0.7196 -0.6038
vn 0.8397 -0.4160 -0.3490
vn 0.8397 0.4160 0.3490
vn 0.3429 0.7196 0.6038
vn -0.3429 0.1631 0.9251
vn -0.8397 0.0943 0.5348
vn -0.8397 -0.0943 -0.5348
vn -0.3429 -0.1631 -0.9251
vn 0.3429 -0.1631 -0.9251
vn 0.8397 -0.0943 -0.5348
vn 0.8397 0.0943 0.5348
vn 0.3429 0.1631 0.9251
vn -0.3429 -0.4697 0.8135
vn -0.8397 -0.2715 0.4703
vn -0.8397 0.2715 -0.4703
vn -0.3429 0.4697 -0.8135
vn 0.3429 0.4697 -0.8135
vn 0.8397 0.2715 -0.4703
vn 0.8397 -0.2715 0.4703
vn 0.3429 -0.4697 0.8135
vn -0.3429 -0.8827 0.3213
vn -0.8397 -0.5103 0.1857
vn -0.8397 0.5103 -0.1857
vn -0.3429 0.8827 -0.3213
vn 0.3429 0.8827 -0.3213
vn 0.8397 0.5103 -0.1857
vn 0.8397 -0.5103 0.1857
vn 0.3429 -0.8827 0.3213
vt 0.067600 0.445060
vt 0.037401 0.580244
vt 0.004155 0.576576
vt 0.032561 0.449419
vt 0.624364 0.412309
vt 0.684898 0.509670
vt 0.645128 0.509946
vt 0.594599 0.428676
vt 0.607660 0.522425
vt 0.569498 0.461046
vt 0.224965 0.739381
vt 0.233973 0.821025
vt 0.200824 0.821025
vt 0.194178 0.760785
vt 0.159665 0.821025
vt 0.153921 0.768960
vt 0.126218 0.821025
vt 0.119571 0.760785
vt 0.752757 0.582044
vt 0.799496 0.619270
vt 0.781571 0.654773
vt 0.718225 0.604319
vt 0.825625 0.078564
vt 0.749791 0.078272
vt 0.731552 0.041595
vt 0.831959 0.041981
vt 0.728000 0.004155
vt 0.848289 0.004618
vt 0.106717 0.457601
vt 0.078312 0.584758
vt 0.037401 0.718760
vt 0.004155 0.706867
vt 0.659614 0.635614
vt 0.624023 0.615074
vt 0.591720 0.601824
vt 0.224965 0.902668
vt 0.194178 0.881264
vt 0.153921 0.873089
vt 0.119571 0.881264
vt 0.775752 0.100177
vt 0.739232 0.139037
vt 0.700294 0.130939
vt 0.666015 0.111329
vt 0.111261 0.588394
vt 0.111261 0.697150
vt 0.078312 0.715049
vt 0.684898 0.655598
vt 0.579360 0.757230
vt 0.560343 0.731210
vt 0.541160 0.694871
vt 0.529137 0.662091
vt 0.710138 0.883080
vt 0.693208 0.816524
vt 0.725749 0.805135
vt 0.738240 0.854243
vt 0.766675 0.800785
vt 0.777471 0.843228
vt 0.767954 0.132530
vt 0.767954 0.184173
vt 0.739232 0.198790
vt 0.700294 0.211923
vt 0.666015 0.218555
vt 0.527038 0.036948
vt 0.444737 0.094468
vt 0.410031 0.073063
vt 0.508627 0.004155
vt 0.106717 0.787509
vt 0.067600 0.795795
vt 0.444547 0.779043
vt 0.433536 0.751728
vt 0.435310 0.711998
vt 0.449193 0.675026
vt 0.693208 0.729640
vt 0.725749 0.741029
vt 0.766675 0.745379
vt 0.800355 0.741029
vt 0.800355 0.805135
vt 0.775752 0.251476
vt 0.749791 0.283329
vt 0.731552 0.313101
vt 0.412234 0.202568
vt 0.371092 0.202568
vt 0.338526 0.202568
vt 0.379922 0.064888
vt 0.619587 0.373727
vt 0.581331 0.264416
vt 0.621720 0.256503
vt 0.657704 0.359324
vt 0.338526 0.687567
vt 0.356003 0.658441
vt 0.389296 0.634577
vt 0.710138 0.663083
vt 0.738240 0.691921
vt 0.777471 0.702936
vt 0.830690 0.560599
vt 0.841486 0.518156
vt 0.882413 0.522506
vt 0.869921 0.571614
vt 0.831705 0.272443
vt 0.825625 0.311746
vt 0.831959 0.350726
vt 0.444737 0.310669
vt 0.410031 0.332073
vt 0.379922 0.340249
vt 0.568519 0.118460
vt 0.609669 0.119215
vt 0.643080 0.127714
vt 0.653140 0.242312
vt 0.340347 0.559260
vt 0.377472 0.559670
vt 0.416963 0.569823
vt 0.425688 0.625091
vt 0.807806 0.522506
vt 0.807806 0.458400
vt 0.841486 0.462750
vt 0.882413 0.458400
vt 0.914953 0.447011
vt 0.914953 0.533895
vt 0.892312 0.283877
vt 0.920256 0.313827
vt 0.527038 0.368189
vt 0.508627 0.400982
vt 0.547400 0.263027
vt 0.535348 0.125739
vt 0.587144 0.004155
vt 0.627188 0.011697
vt 0.657704 0.037967
vt 0.395668 0.460864
vt 0.419253 0.485356
vt 0.447791 0.514991
vt 0.470381 0.538449
vt 0.443737 0.585839
vt 0.830690 0.420307
vt 0.869921 0.409292
vt 0.799496 0.438146
vt 0.752757 0.463823
vt 0.718226 0.444093
vt 0.781571 0.409292
vt 0.918649 0.212763
vt 0.955128 0.219668
vt 0.995845 0.217488
vt 0.954069 0.330290
vt 0.552868 0.018222
vt 0.168210 0.720421
vt 0.153019 0.582741
vt 0.194178 0.582741
vt 0.208467 0.712246
vt 0.227327 0.582741
vt 0.239254 0.690841
vt 0.496080 0.409292
vt 0.495090 0.446406
vt 0.503746 0.486252
vt 0.518742 0.513610
vt 0.782085 0.466507
vt 0.766131 0.515624
vt 0.734298 0.520653
vt 0.693208 0.521115
vt 0.892312 0.131679
vt 0.920256 0.112308
vt 0.954069 0.088870
vt 0.133860 0.712246
vt 0.119571 0.582741
vt 0.168210 0.445060
vt 0.208467 0.453236
vt 0.239254 0.474640
vt 0.558647 0.497054
vt 0.177348 0.728732
vt 0.139375 0.741258
vt 0.782085 0.568683
vt 0.133860 0.453236
s 0
f 1/1/1 2/4/1 12/3/1 11/2/1
f 2/5/2 3/8/2 13/7/2 12/6/2
f 3/8/3 4/10/3 14/9/3 13/7/3
f 4/11/4 5/14/4 15/13/4 14/12/4
f 5/14/5 6/16/5 16/15/5 15/13/5
f 6/16/6 7/18/6 17/17/6 16/15/6
f 7/19/7 8/22/7 18/21/7 17/20/7
f 8/23/8 9/26/8 19/25/8 18/24/8
f 9/26/9 10/28/9 20/27/9 19/25/9
f 10/29/10 1/1/10 11/2/10 20/30/10
f 11/2/11 12/3/11 22/32/11 21/31/11
f 12/6/12 13/7/12 23/34/12 22/33/12
f 13/7/3 14/9/3 24/35/3 23/34/3
f 14/12/13 15/13/13 25/37/13 24/36/13
f 15/13/14 16/15/14 26/38/14 25/37/14
f 16/15/15 17/17/15 27/39/15 26/38/15
f 17/40/16 18/24/16 28/42/16 27/41/16
f 18/24/8 19/25/8 29/43/8 28/42/8
f 19/44/17 20/30/17 30/46/17 29/45/17
f 20/30/18 11/2/18 21/31/18 30/46/18
f 21/47/19 22/33/19 32/49/19 31/48/19
f 22/33/20 23/34/20 33/50/20 32/49/20
f 23/34/3 24/35/3 34/51/3 33/50/3
f 24/52/21 25/55/21 35/54/21 34/53/21
f 25/55/22 26/57/22 36/56/22 35/54/22
f 26/58/23 27/41/23 37/60/23 36/59/23
f 27/41/24 28/42/24 38/61/24 37/60/24
f 28/42/8 29/43/8 39/62/8 38/61/8
f 29/63/25 30/66/25 40/65/25 39/64/25
f 30/46/26 21/31/26 31/68/26 40/67/26
f 31/48/27 32/49/27 42/70/27 41/69/27
f 32/49/28 33/50/28 43/71/28 42/70/28
f 33/50/3 34/51/3 44/72/3 43/71/3
f 34/53/29 35/54/29 45/74/29 44/73/29
f 35/54/30 36/56/30 46/75/30 45/74/30
f 36/56/31 37/77/31 47/76/31 46/75/31
f 37/60/32 38/61/32 48/79/32 47/78/32
f 38/61/8 39/62/8 49/80/8 48/79/8
f 39/64/33 40/65/33 50/82/33 49/81/33
f 40/65/34 31/84/34 41/83/34 50/82/34
f 41/85/35 42/88/35 52/87/35 51/86/35
f 42/70/36 43/71/36 53/90/36 52/89/36
f 43/71/3 44/72/3 54/91/3 53/90/3
f 44/73/37 45/74/37 55/93/37 54/92/37
f 45/74/38 46/75/38 56/94/38 55/93/38
f 46/95/39 47/98/39 57/97/39 56/96/39
f 47/78/40 48/79/40 58/100/40 57/99/40
f 48/79/8 49/80/8 59/101/8 58/100/8
f 49/81/41 50/82/41 60/103/41 59/102/41
f 50/82/42 41/83/42 51/104/42 60/103/42
f 51/86/43 52/87/43 62/106/43 61/105/43
f 52/87/44 53/108/44 63/107/44 62/106/44
f 53/90/3 54/91/3 64/110/3 63/109/3
f 54/91/45 55/112/45 65/111/45 64/110/45
f 55/113/46 56/96/46 66/115/46 65/114/46
f 56/96/47 57/97/47 67/116/47 66/115/47
f 57/97/48 58/118/48 68/117/48 67/116/48
f 58/100/8 59/101/8 69/120/8 68/119/8
f 59/102/49 60/103/49 70/122/49 69/121/49
f 60/123/50 51/86/50 61/105/50 70/124/50
f 61/105/51 62/106/51 72/126/51 71/125/51
f 62/106/52 63/107/52 73/127/52 72/126/52
f 63/109/3 64/110/3 74/129/3 73/128/3
f 64/110/53 65/111/53 75/130/53 74/129/53
f 65/111/54 66/132/54 76/131/54 75/130/54
f 66/115/55 67/116/55 77/134/55 76/133/55
f 67/135/56 68/138/56 78/137/56 77/136/56
f 68/119/8 69/120/8 79/140/8 78/139/8
f 69/120/57 70/142/57 80/141/57 79/140/57
f 70/124/58 61/105/58 71/125/58 80/143/58
f 71/144/59 72/147/59 82/146/59 81/145/59
f 72/147/60 73/149/60 83/148/60 82/146/60
f 73/128/3 74/129/3 84/151/3 83/150/3
f 74/129/61 75/130/61 85/152/61 84/151/61
f 75/130/62 76/131/62 86/153/62 85/152/62
f 76/154/63 77/136/63 87/156/63 86/155/63
f 77/136/64 78/137/64 88/157/64 87/156/64
f 78/139/8 79/140/8 89/159/8 88/158/8
f 79/140/65 80/141/65 90/160/65 89/159/65
f 80/161/66 71/144/66 81/145/66 90/162/66
f 81/145/67 82/146/67 2/164/67 1/163/67
f 82/146/68 83/148/68 3/165/68 2/164/68
f 83/150/3 84/151/3 4/10/3 3/8/3
f 84/151/69 85/152/69 5/166/69 4/10/69
f 85/167/70 86/168/70 6/16/70 5/14/70
f 86/155/71 87/156/71 7/19/71 6/169/71
f 87/156/72 88/157/72 8/22/72 7/19/72
f 88/158/8 89/159/8 9/26/8 8/23/8
f 89/159/73 90/160/73 10/28/73 9/26/73
f 90/162/74 81/145/74 1/163/74 10/170/74
o Cylinder
v 0.000000 0.300000 0.421723
v 0.176336 0.242705 0.421723
v 0.285317 0.092705 0.421723
v 0.285317 -0.092705 0.421723
v 0.176336 -0.242705 0.421723
v 0.000000 -0.300000 0.421723
v -0.176336 -0.242705 0.421723
v -0.285317 -0.092705 0.421723
v -0.285317 0.092705 0.421723
v -0.176336 0.242705 0.421723
v 0.000000 -0.070230 -2.095340
v 0.146946 -0.076486 -2.047594
v 0.237764 -0.076486 -1.922594
v 0.237764 -0.076486 -1.768086
v 0.146946 -0.076486 -1.643086
v 0.000000 -0.070230 -1.595340
v -0.146946 -0.070230 -1.643086
v -0.237764 -0.070230 -1.768086
v -0.237764 -0.070230 -1.922594
v -0.146946 -0.070230 -2.047594
v 0.000000 0.062466 -1.315363
v 0.146946 0.062466 -1.267617
v 0.237764 0.062466 -1.142617
v 0.237764 0.062466 -0.988109
v 0.146946 0.062466 -0.863109
v 0.000000 0.062466 -0.815363
v -0.146946 0.062466 -0.863109
v -0.237764 0.062466 -0.988109
v -0.237764 0.062466 -1.142617
v -0.146946 0.062466 -1.267617
v 0.000000 -0.916538 -1.863277
v 0.000000 -0.823540 -1.961060
v 0.089470 -0.916538 -1.834206
v 0.146946 -0.829796 -1.913315
v 0.237764 -0.829796 -1.788315
v 0.144766 -0.916538 -1.758098
v 0.146946 -0.829796 -1.913315
v 0.089470 -0.916538 -1.834206
v 0.000000 -0.823540 -1.961060
v 0.000000 -0.916538 -1.863277
v -0.146946 -0.070230 -1.913315
v -0.237764 -0.070230 -1.788315
v -0.237764 -0.070230 -1.633806
v -0.146946 -0.070230 -1.508806
v 0.000000 -0.070230 -1.461061
v 0.146946 -0.076486 -1.508806
v 0.237764 -0.076486 -1.633806
v 0.237764 -0.076486 -1.788315
v 0.146946 -0.076486 -1.913315
v 0.000000 -0.070230 -1.961060
v 0.000000 -0.760230 -1.217579
v 0.000000 -0.667232 -1.315363
v 0.089470 -0.760230 -1.188508
v 0.146946 -0.667232 -1.267617
v 0.237764 -0.667232 -1.142617
v 0.144766 -0.760230 -1.112400
v 0.144766 -0.760230 -1.018325
v 0.237764 -0.667232 -0.988109
v 0.089470 -0.760230 -0.942217
v 0.146946 -0.667232 -0.863108
v 0.000000 -0.760230 -0.913147
v 0.000000 -0.667232 -0.815363
v -0.089470 -0.760230 -0.942217
v -0.146946 -0.667232 -0.863108
v -0.144766 -0.760230 -1.018325
v -0.237764 -0.667232 -0.988109
v -0.144766 -0.760230 -1.112400
v -0.237764 -0.667232 -1.142617
v -0.089470 -0.760230 -1.188508
v -0.146946 -0.667232 -1.267617
v 0.144766 -0.916538 -1.664023
v 0.237764 -0.829796 -1.633806
v 0.089470 -0.916538 -1.587915
v 0.146946 -0.829796 -1.508806
v 0.000000 -0.916538 -1.558844
v 0.000000 -0.823540 -1.461060
v -0.089470 -0.916538 -1.587915
v -0.146946 -0.823540 -1.508806
v -0.144766 -0.916538 -1.664023
v -0.237764 -0.823540 -1.633806
v -0.144766 -0.916538 -1.758098
v -0.237764 -0.823540 -1.788315
v -0.089470 -0.916538 -1.834206
v -0.146946 -0.823540 -1.913315
v 0.000000 0.151897 -2.122512
v 0.000000 0.300000 -1.981657
v 0.089283 0.122887 -2.122512
v 0.176336 0.242705 -1.981657
v 0.144462 0.046939 -2.122512
v 0.285317 0.092705 -1.981657
v 0.144462 -0.046939 -2.122512
v 0.285317 -0.092705 -1.981657
v 0.089283 -0.122887 -2.122512
v 0.176336 -0.242705 -1.981657
v -0.000000 -0.151897 -2.122512
v 0.000000 -0.300000 -1.981657
v -0.089283 -0.122887 -2.122512
v -0.176336 -0.242705 -1.981657
v -0.144462 -0.046939 -2.122512
v -0.285317 -0.092705 -1.981657
v -0.144462 0.046939 -2.122512
v -0.285317 0.092705 -1.981657
v -0.089283 0.122887 -2.122512
v -0.176336 0.242705 -1.981657
vn -0.3090 0.9511 -0.0000
vn 1.0000 -0.0000 -0.0000
vn 0.8090 -0.5878 -0.0000
vn 0.3090 -0.9511 -0.0000
vn -0.3090 -0.9511 -0.0000
vn -0.8090 -0.5878 -0.0000
vn -1.0000 -0.0000 -0.0000
vn -0.8090 0.5878 -0.0000
vn -0.0000 -0.0000 1.0000
vn 0.8090 0.5878 -0.0000
vn 0.3090 0.9511 -0.0000
vn -0.8090 -0.0000 0.5878
vn 0.8090 -0.0000 0.5878
vn -0.0000 -1.0000 -0.0000
vn -0.2185 -0.7071 -0.6725
vn -0.5721 -0.7071 -0.4156
vn -0.3090 -0.0000 0.9511
vn -0.7071 -0.7071 -0.0000
vn -0.5721 -0.7071 0.4156
vn -0.2185 -0.7071 0.6725
vn 0.3090 -0.0000 0.9511
vn 0.1975 -0.7190 0.6664
vn 0.5518 -0.7313 0.4009
vn 0.0154 0.9999 -0.0000
vn -0.3090 -0.0000 -0.9511
vn 0.6821 -0.7313 -0.0000
vn 0.5518 -0.7313 -0.4009
vn -0.8090 -0.0000 -0.5878
vn -0.0000 1.0000 -0.0000
vn 0.3090 -0.0000 -0.9511
vn 0.8090 -0.0000 -0.5878
vn 0.5721 -0.7071 0.4156
vn 0.1975 -0.7190 -0.6664
vn 0.5721 -0.7071 -0.4156
vn 0.7071 -0.7071 -0.0000
vn 0.2185 -0.7071 -0.6725
vn 0.2185 -0.7071 0.6725
vn 0.2185 0.6725 -0.7071
vn 0.5721 0.4156 -0.7071
vn 0.7071 -0.0000 -0.7071
vn 0.5721 -0.4156 -0.7071
vn 0.2185 -0.6725 -0.7071
vn -0.2185 -0.6725 -0.7071
vn -0.5721 -0.4156 -0.7071
vn -0.7071 -0.0000 -0.7071
vn -0.5721 0.4156 -0.7071
vn -0.2185 0.6725 -0.7071
vn -0.0000 -0.0000 -1.0000
vt 0.064527 0.436750
vt 0.064527 0.004155
vt 0.091526 0.004155
vt 0.091526 0.436750
vt 0.160209 0.436750
vt 0.160209 0.004155
vt 0.187208 0.004155
vt 0.187208 0.436750
vt 0.195518 0.436750
vt 0.195518 0.004155
vt 0.227767 0.004155
vt 0.227767 0.436750
vt 0.258905 0.004155
vt 0.258905 0.436750
vt 0.267215 0.436749
vt 0.267215 0.004155
vt 0.297450 0.004155
vt 0.297450 0.436749
vt 0.330215 0.004155
vt 0.330215 0.436749
vt 0.004155 0.436750
vt 0.004155 0.004155
vt 0.031154 0.004155
vt 0.031154 0.436750
vt 0.911376 0.865273
vt 0.911376 0.898646
vt 0.891760 0.925645
vt 0.860021 0.935957
vt 0.828282 0.925645
vt 0.808666 0.898646
vt 0.808666 0.865273
vt 0.828282 0.838274
vt 0.860021 0.827961
vt 0.891760 0.838274
vt 0.126836 0.436750
vt 0.126836 0.004155
vt 0.099837 0.436750
vt 0.099837 0.004155
vt 0.634784 0.796962
vt 0.634784 0.903219
vt 0.612284 0.893611
vt 0.612284 0.787354
vt 0.867569 0.819651
vt 0.867569 0.713393
vt 0.890069 0.703785
vt 0.890069 0.810042
vt 0.727349 0.962011
vt 0.717962 0.952237
vt 0.716324 0.936596
vt 0.723060 0.921060
vt 0.735597 0.911565
vt 0.749147 0.911737
vt 0.758534 0.921510
vt 0.760173 0.937152
vt 0.753437 0.952688
vt 0.740899 0.962183
vt 0.300464 0.461799
vt 0.274014 0.461799
vt 0.274014 0.445060
vt 0.290118 0.445060
vt 0.674027 0.837664
vt 0.662080 0.860163
vt 0.643094 0.845924
vt 0.650368 0.832225
vt 0.274014 0.783081
vt 0.274014 0.914422
vt 0.247565 0.914422
vt 0.247565 0.783081
vt 0.839759 0.819651
vt 0.839759 0.713393
vt 0.674027 0.809853
vt 0.650368 0.815292
vt 0.662080 0.787354
vt 0.643094 0.801593
vt 0.274014 0.622440
vt 0.247565 0.622440
vt 0.257910 0.605701
vt 0.274014 0.605701
vt 0.300464 0.783081
vt 0.300464 0.914422
vt 0.879988 0.620711
vt 0.875837 0.635881
vt 0.863922 0.647911
vt 0.848793 0.652208
vt 0.836229 0.647130
vt 0.831030 0.634616
vt 0.835181 0.619446
vt 0.847097 0.607415
vt 0.862225 0.603118
vt 0.874789 0.608197
vt 0.724863 0.891391
vt 0.746466 0.891391
vt 0.704272 0.906986
vt 0.948586 0.744486
vt 0.932128 0.753080
vt 0.916581 0.744486
vt 0.906973 0.721987
vt 0.906973 0.694176
vt 0.916581 0.671677
vt 0.932128 0.663083
vt 0.948586 0.671677
vt 0.958194 0.694176
vt 0.958194 0.721987
vt 0.391424 0.804093
vt 0.391424 0.935434
vt 0.364975 0.935434
vt 0.364975 0.804093
vt 0.693208 0.932501
vt 0.695899 0.958191
vt 0.584474 0.893611
vt 0.584474 0.787354
vt 0.561974 0.903219
vt 0.561974 0.796962
vt 0.817260 0.703785
vt 0.808666 0.688238
vt 0.817260 0.672692
vt 0.839759 0.663083
vt 0.867569 0.663083
vt 0.890069 0.672692
vt 0.898663 0.688238
vt 0.338525 0.935434
vt 0.338525 0.804093
vt 0.817260 0.810042
vt 0.834194 0.586981
vt 0.859042 0.579924
vt 0.308774 0.466663
vt 0.308774 0.445060
vt 0.328948 0.455794
vt 0.329120 0.469344
vt 0.807806 0.631655
vt 0.814624 0.606741
vt 0.274014 0.597391
vt 0.247565 0.596264
vt 0.247565 0.460673
vt 0.472544 0.796962
vt 0.472544 0.906658
vt 0.450045 0.897049
vt 0.450045 0.787354
vt 0.503354 0.787354
vt 0.503354 0.897049
vt 0.480855 0.906658
vt 0.480855 0.796962
vt 0.531165 0.787354
vt 0.531164 0.897049
vt 0.553664 0.796962
vt 0.553664 0.906658
vt 0.274014 0.758031
vt 0.247565 0.758031
vt 0.816345 0.652208
vt 0.300464 0.621314
vt 0.300464 0.756905
vt 0.422234 0.787354
vt 0.422234 0.897049
vt 0.399735 0.906658
vt 0.399735 0.796962
vt 0.879676 0.588265
vt 0.257910 0.766342
vt 0.274014 0.766342
vt 0.907285 0.579924
vt 0.919231 0.602423
vt 0.895572 0.607862
vt 0.888299 0.594163
vt 0.919231 0.630234
vt 0.895572 0.624795
vt 0.907285 0.652733
vt 0.888299 0.638494
vt 0.364975 0.787354
vt 0.381079 0.787354
vt 0.300464 0.597391
vt 0.106866 0.874790
vt 0.087250 0.901789
vt 0.071581 0.880223
vt 0.081513 0.866553
vt 0.055511 0.912102
vt 0.055511 0.885444
vt 0.023771 0.901789
vt 0.039440 0.880223
vt 0.004155 0.874790
vt 0.029508 0.866553
vt 0.004155 0.841418
vt 0.029508 0.849655
vt 0.023771 0.814418
vt 0.039440 0.835985
vt 0.055511 0.804106
vt 0.055511 0.830763
vt 0.087250 0.814418
vt 0.071581 0.835985
vt 0.106866 0.841418
vt 0.081513 0.849655
s 0
usemtl Material.001
f 194/171/75 100/172/75 91/173/75 176/174/75
f 180/175/76 93/176/76 94/177/76 182/178/76
f 182/179/77 94/180/77 95/181/77 184/182/77
f 184/182/78 95/181/78 96/183/78 186/184/78
f 186/185/79 96/186/79 97/187/79 188/188/79
f 188/188/80 97/187/80 98/189/80 190/190/80
f 190/191/81 98/192/81 99/193/81 192/194/81
f 192/194/82 99/193/82 100/172/82 194/171/82
f 92/195/83 91/196/83 100/197/83 99/198/83 98/199/83 97/200/83 96/201/83 95/202/83 94/203/83 93/204/83
f 178/205/84 92/206/84 93/176/84 180/175/84
f 176/207/85 91/208/85 92/206/85 178/205/85
f 154/209/86 117/210/86 118/211/86 156/212/86
f 148/213/87 114/214/87 115/215/87 150/216/87
f 130/217/88 128/218/88 126/219/88 161/220/88 163/221/88 165/222/88 167/223/88 169/224/88 171/225/88 173/226/88
f 174/227/89 129/228/89 130/229/89 173/230/89
f 172/231/90 174/232/90 173/233/90 171/234/90
f 152/235/91 116/236/91 117/237/91 154/238/91
f 145/239/76 113/240/76 114/214/76 148/213/76
f 170/241/92 172/231/92 171/234/92 169/242/92
f 168/243/93 170/241/93 169/242/93 167/244/93
f 166/245/94 168/246/94 167/247/94 165/248/94
f 150/249/95 115/250/95 116/236/95 152/235/95
f 153/251/88 155/252/88 157/253/88 159/254/88 141/255/88 143/256/88 146/257/88 147/258/88 149/259/88 151/260/88
f 164/261/96 166/262/96 165/222/96 163/221/96
f 162/263/97 164/261/97 163/221/97 161/220/97
f 102/264/98 101/265/98 110/266/98 109/267/98 108/268/98 107/269/98 106/270/98 105/271/98 104/272/98 103/273/98
f 160/274/99 120/275/99 111/276/99 142/277/99
f 125/278/100 162/263/100 161/220/100 126/219/100
f 127/279/101 125/278/101 126/219/101 128/218/101
f 156/212/81 118/211/81 119/280/81 158/281/81
f 158/281/102 119/280/102 120/282/102 160/283/102
f 114/214/103 113/240/103 112/284/103 111/285/103 120/286/103 119/287/103 118/288/103 117/289/103 116/290/103 115/215/103
f 142/277/104 111/276/104 112/291/104 144/292/104
f 144/293/105 112/284/105 113/240/105 145/239/105
f 148/294/106 150/295/106 149/259/106 147/258/106
f 122/296/107 124/297/107 123/298/107 121/299/107
f 144/300/108 145/301/108 146/257/108 143/256/108
f 129/228/104 140/302/104 139/303/104 127/304/104
f 127/305/105 139/306/105 138/307/105 125/308/105
f 172/309/102 132/310/102 131/311/102 174/312/102
f 145/301/109 148/294/109 147/258/109 146/257/109
f 170/313/81 133/314/81 132/310/81 172/309/81
f 168/315/86 134/316/86 133/314/86 170/313/86
f 166/245/91 135/317/91 134/318/91 168/246/91
f 142/319/110 144/300/110 143/256/110 141/255/110
f 164/320/95 136/321/95 135/317/95 166/245/95
f 162/322/87 137/323/87 136/324/87 164/325/87
f 125/308/76 138/307/76 137/323/76 162/322/76
f 150/295/111 152/326/111 151/260/111 149/259/111
f 152/235/94 154/238/94 153/327/94 151/328/94
f 154/329/93 156/330/93 155/331/93 153/332/93
f 156/330/92 158/333/92 157/334/92 155/331/92
f 158/333/90 160/335/90 159/336/90 157/334/90
f 160/274/89 142/277/89 141/337/89 159/338/89
f 174/227/99 131/339/99 140/302/99 129/228/99
f 176/340/112 178/341/112 177/342/112 175/343/112
f 178/341/113 180/344/113 179/345/113 177/342/113
f 180/344/114 182/346/114 181/347/114 179/345/114
f 182/346/115 184/348/115 183/349/115 181/347/115
f 184/348/116 186/350/116 185/351/116 183/349/116
f 186/350/117 188/352/117 187/353/117 185/351/117
f 188/352/118 190/354/118 189/355/118 187/353/118
f 190/354/119 192/356/119 191/357/119 189/355/119
f 192/356/120 194/358/120 193/359/120 191/357/120
f 194/358/121 176/340/121 175/343/121 193/359/121
f 175/343/122 177/342/122 179/345/122 181/347/122 183/349/122 185/351/122 187/353/122 189/355/122 191/357/122 193/359/122
