# Blender 4.0.2
# www.blender.org
mtllib rocketL1.mtl
o obj11
v -0.563968 0.260124 -0.215423
v -0.558111 0.274039 -0.222804
v -0.540174 0.316657 -0.210006
v -0.534148 0.330973 -0.212921
v -0.512450 0.382527 -0.178465
v -0.512440 0.382550 -0.185798
v -0.490495 0.434688 -0.130808
v -0.492238 0.430549 -0.123330
v -0.482161 0.454490 -0.067502
v -0.478629 0.462880 -0.060571
v -0.478915 0.462202 -0.006498
v -0.476302 0.468410 0.001324
v -0.482789 0.452998 0.054262
v -0.480991 0.457268 0.062324
v -0.497062 0.419086 0.123171
v -0.500002 0.412100 0.143732
v -0.519901 0.364823 0.171007
v -0.536542 0.325285 0.197241
v -0.548547 0.296763 0.196496
v -0.566340 0.254489 0.201309
v -0.589786 0.198782 0.186803
v -0.610601 0.149330 0.155317
v -0.626972 0.110432 0.109540
v -0.637788 0.084736 0.057077
v -0.639417 0.080866 0.002361
v -0.641861 0.075057 -0.004216
v -0.635296 0.090655 -0.072750
v -0.638912 0.082065 -0.065935
v -0.624647 0.115957 -0.127868
v -0.625808 0.113198 -0.137228
v -0.608168 0.155109 -0.172445
v -0.603851 0.165365 -0.188857
v -0.587325 0.204631 -0.202520
v -0.581877 0.217573 -0.214518
v -1.692690 0.729252 -0.215013
v -1.686571 0.743791 -0.222804
v -1.710534 0.686856 -0.212921
v -1.715905 0.674095 -0.200514
v -1.732242 0.635280 -0.185798
v -1.736431 0.625327 -0.169020
v -1.754186 0.583142 -0.130809
v -1.752444 0.587282 -0.123330
v -1.762521 0.563339 -0.067502
v -1.766053 0.554949 -0.060571
v -1.765767 0.555627 -0.006498
v -1.768379 0.549420 0.001324
v -1.761893 0.564831 0.054262
v -1.763690 0.560562 0.062324
v -1.747620 0.598744 0.123171
v -1.752382 0.587428 0.117254
v -1.725079 0.652298 0.181093
v -1.724781 0.653007 0.171007
v -1.702431 0.706107 0.192739
v -1.690422 0.734641 0.201754
v -1.666579 0.791288 0.198574
v -1.649510 0.831844 0.177744
v -1.634081 0.868500 0.155316
v -1.617710 0.907398 0.109540
v -1.607209 0.932345 0.053417
v -1.602821 0.942772 -0.004216
v -1.607509 0.931633 -0.059224
v -1.605770 0.935764 -0.065935
v -1.623659 0.893263 -0.141660
v -1.618874 0.904631 -0.137228
v -1.646498 0.838999 -0.189496
v -1.640831 0.852464 -0.188856
v -1.668848 0.785898 -0.211228
v -1.662805 0.800256 -0.214518
vn 0.9217 -0.3879 -0.0000
vn -0.9217 0.3879 -0.0000
vn -0.9217 0.3880 -0.0000
vn -0.0231 -0.0568 -0.9981
vn -0.0235 -0.0566 -0.9981
vn -0.0804 -0.1897 -0.9786
vn -0.0328 -0.0790 -0.9963
vn -0.0897 -0.2113 -0.9733
vn -0.0894 -0.2115 -0.9733
vn -0.1332 -0.3184 -0.9386
vn -0.1336 -0.3182 -0.9386
vn -0.1858 -0.4404 -0.8783
vn -0.1429 -0.3405 -0.9293
vn -0.1949 -0.4612 -0.8656
vn -0.1945 -0.4614 -0.8656
vn -0.2388 -0.5702 -0.7860
vn -0.2394 -0.5700 -0.7860
vn -0.2825 -0.6688 -0.6877
vn -0.2490 -0.5926 -0.7660
vn -0.2913 -0.6884 -0.6643
vn -0.2907 -0.6886 -0.6643
vn -0.3362 -0.8024 -0.4930
vn -0.3368 -0.8022 -0.4930
vn -0.3621 -0.8593 -0.3611
vn -0.3426 -0.8163 -0.4651
vn -0.3670 -0.8692 -0.3313
vn -0.3665 -0.8694 -0.3313
vn -0.3799 -0.9044 -0.1944
vn -0.3802 -0.9043 -0.1944
vn -0.3878 -0.9204 -0.0495
vn -0.3820 -0.9086 -0.1688
vn -0.3885 -0.9212 -0.0236
vn -0.3882 -0.9213 -0.0236
vn -0.3855 -0.9177 0.0965
vn -0.3858 -0.9175 0.0965
vn -0.3769 -0.8945 0.2403
vn -0.3847 -0.9149 0.1223
vn -0.3747 -0.8883 0.2655
vn -0.3744 -0.8885 0.2655
vn -0.3542 -0.8436 0.4036
vn -0.3545 -0.8435 0.4036
vn -0.3286 -0.7801 0.5325
vn -0.3536 -0.8442 0.4030
vn -0.3277 -0.7808 0.5320
vn -0.3275 -0.7809 0.5320
vn -0.3014 -0.7223 0.6224
vn -0.3017 -0.7222 0.6224
vn -0.2639 -0.6308 0.7297
vn -0.2815 -0.6672 0.6897
vn -0.2390 -0.5677 0.7878
vn -0.2389 -0.5678 0.7878
vn -0.2172 -0.5245 0.8232
vn -0.2169 -0.5246 0.8232
vn -0.1662 -0.4094 0.8971
vn -0.1163 -0.2805 0.9528
vn -0.1172 -0.2802 0.9528
vn -0.0650 -0.1482 0.9868
vn -0.1136 -0.2731 0.9552
vn -0.0609 -0.1410 0.9881
vn -0.0601 -0.1413 0.9881
vn -0.0070 -0.0189 0.9998
vn -0.0074 -0.0187 0.9998
vn 0.0479 0.1161 0.9921
vn -0.0061 -0.0205 0.9998
vn 0.0480 0.1148 0.9922
vn 0.0486 0.1145 0.9922
vn 0.1372 0.3337 0.9326
vn 0.1911 0.4541 0.8702
vn 0.1907 0.4543 0.8702
vn 0.1657 0.3960 0.9032
vn 0.1653 0.3961 0.9032
vn 0.2147 0.5130 0.8311
vn 0.1672 0.3921 0.9046
vn 0.2137 0.5106 0.8329
vn 0.2143 0.5103 0.8329
vn 0.2602 0.6324 0.7297
vn 0.3007 0.7226 0.6224
vn 0.3004 0.7228 0.6224
vn 0.3170 0.7528 0.5769
vn 0.3169 0.7529 0.5769
vn 0.3467 0.8220 0.4518
vn 0.3348 0.7993 0.4990
vn 0.3586 0.8581 0.3675
vn 0.3589 0.8580 0.3675
vn 0.3734 0.8889 0.2655
vn 0.3731 0.8890 0.2655
vn 0.3836 0.9153 0.1223
vn 0.3744 0.8890 0.2637
vn 0.3844 0.9153 0.1205
vn 0.3846 0.9152 0.1205
vn 0.3885 0.9212 -0.0235
vn 0.3882 0.9213 -0.0235
vn 0.3820 0.9086 -0.1688
vn 0.3878 0.9204 -0.0495
vn 0.3799 0.9044 -0.1944
vn 0.3802 0.9043 -0.1944
vn 0.3670 0.8692 -0.3313
vn 0.3665 0.8694 -0.3313
vn 0.3426 0.8163 -0.4651
vn 0.3621 0.8593 -0.3611
vn 0.3362 0.8024 -0.4930
vn 0.3368 0.8022 -0.4930
vn 0.2913 0.6884 -0.6643
vn 0.2907 0.6886 -0.6643
vn 0.2490 0.5926 -0.7660
vn 0.2825 0.6688 -0.6877
vn 0.2388 0.5702 -0.7860
vn 0.2394 0.5700 -0.7860
vn 0.1949 0.4612 -0.8656
vn 0.1945 0.4614 -0.8656
vn 0.1429 0.3406 -0.9293
vn 0.1858 0.4404 -0.8784
vn 0.1332 0.3183 -0.9386
vn 0.1336 0.3182 -0.9386
vn 0.0897 0.2113 -0.9733
vn 0.0894 0.2115 -0.9733
vn 0.0328 0.0790 -0.9963
vn 0.0804 0.1897 -0.9786
vn 0.0231 0.0568 -0.9981
vn 0.0235 0.0566 -0.9981
vn -0.1120 -0.2721 -0.9557
vn -0.0549 -0.1380 -0.9889
vn -0.1115 -0.2723 -0.9557
vn -0.1017 -0.2336 -0.9670
vn -0.0999 -0.2344 -0.9670
vn -0.1565 -0.3638 -0.9182
vn -0.2217 -0.5260 -0.8211
vn -0.2242 -0.5250 -0.8210
vn -0.2667 -0.6329 -0.7268
vn -0.2235 -0.5079 -0.8319
vn -0.1759 -0.3868 -0.9052
vn -0.2264 -0.5068 -0.8318
vn -0.3054 -0.7218 -0.6210
vn -0.2663 -0.6284 -0.7309
vn -0.3056 -0.7218 -0.6210
vn -0.3329 -0.7761 -0.5356
vn -0.3339 -0.7757 -0.5356
vn -0.3602 -0.8409 -0.4038
vn -0.3634 -0.8568 -0.3659
vn -0.3394 -0.7964 -0.5005
vn -0.3645 -0.8563 -0.3659
vn -0.3811 -0.8941 -0.2354
vn -0.3823 -0.8936 -0.2354
vn -0.3905 -0.9164 -0.0880
vn -0.3826 -0.9203 0.0816
vn -0.3834 -0.9211 -0.0679
vn -0.3830 -0.9201 0.0816
vn -0.3888 -0.9193 0.0615
vn -0.3871 -0.9200 0.0615
vn -0.3809 -0.9006 0.2095
vn -0.3625 -0.8626 0.3529
vn -0.3643 -0.8618 0.3530
vn -0.3381 -0.8045 0.4884
vn -0.3287 -0.7909 0.5162
vn -0.3562 -0.8524 0.3828
vn -0.3301 -0.7903 0.5162
vn -0.3037 -0.7142 0.6306
vn -0.3044 -0.7139 0.6306
vn -0.2639 -0.6196 0.7392
vn -0.2181 -0.5275 0.8210
vn -0.2638 -0.6342 0.7268
vn -0.2188 -0.5272 0.8211
vn -0.1845 -0.4334 0.8821
vn -0.1852 -0.4331 0.8821
vn -0.1314 -0.3074 0.9425
vn -0.1078 -0.2606 0.9594
vn -0.1631 -0.3891 0.9066
vn -0.1088 -0.2601 0.9594
vn -0.0635 -0.1493 0.9868
vn -0.0644 -0.1487 0.9868
vn -0.0057 -0.0120 0.9999
vn 0.0067 0.0116 0.9999
vn -0.0522 -0.1255 0.9907
vn 0.0057 0.0120 0.9999
vn 0.0522 0.1255 0.9907
vn 0.0512 0.1259 0.9907
vn 0.1088 0.2602 0.9594
vn 0.1208 0.2826 0.9516
vn 0.0635 0.1493 0.9868
vn 0.1198 0.2831 0.9516
vn 0.1631 0.3891 0.9067
vn 0.1621 0.3895 0.9066
vn 0.2137 0.5093 0.8337
vn 0.2243 0.5286 0.8187
vn 0.1735 0.4106 0.8951
vn 0.2233 0.5290 0.8187
vn 0.2595 0.6181 0.7420
vn 0.2585 0.6185 0.7420
vn 0.2995 0.7132 0.6338
vn 0.3080 0.7275 0.6131
vn 0.2682 0.6356 0.7239
vn 0.3070 0.7279 0.6131
vn 0.3328 0.7922 0.5115
vn 0.3318 0.7927 0.5114
vn 0.3586 0.8537 0.3777
vn 0.3645 0.8617 0.3530
vn 0.3391 0.8041 0.4884
vn 0.3635 0.8621 0.3530
vn 0.3783 0.9007 0.2136
vn 0.3768 0.9013 0.2136
vn 0.3864 0.9200 0.0656
vn 0.3886 0.9194 0.0615
vn 0.3789 0.9014 0.2095
vn 0.3867 0.9201 0.0615
vn 0.3769 0.8958 -0.2354
vn 0.3880 0.9175 -0.0880
vn 0.3786 0.8951 -0.2354
vn 0.3754 0.9017 -0.2144
vn 0.3749 0.9019 -0.2144
vn 0.3588 0.8623 -0.3575
vn 0.3339 0.7757 -0.5356
vn 0.3602 0.8409 -0.4038
vn 0.3329 0.7761 -0.5356
vn 0.3056 0.7218 -0.6210
vn 0.3054 0.7218 -0.6210
vn 0.2663 0.6284 -0.7309
vn 0.2314 0.5201 -0.8222
vn 0.2279 0.5215 -0.8223
vn 0.1814 0.4012 -0.8978
vn 0.2239 0.5252 -0.8210
vn 0.2654 0.6335 -0.7268
vn 0.2204 0.5265 -0.8211
vn 0.1262 0.2782 -0.9522
vn 0.1235 0.2793 -0.9522
vn 0.0699 0.1443 -0.9871
vn 0.1117 0.2590 -0.9594
vn 0.1632 0.3890 -0.9067
vn 0.1089 0.2601 -0.9594
vn -0.0033 -0.0310 -0.9995
vn -0.0052 -0.0301 -0.9995
vn -0.0609 -0.1680 -0.9839
vn 0.0704 0.1951 -0.9783
vn 0.1239 0.3281 -0.9365
vn 0.0682 0.1959 -0.9783
vt 0.106643 0.924103
vt 0.103959 0.922325
vt 0.101588 0.913444
vt 0.099600 0.911161
vt 0.099867 0.898577
vt 0.098653 0.899284
vt 0.102251 0.884604
vt 0.103922 0.884621
vt 0.110625 0.874914
vt 0.110887 0.872737
vt 0.119892 0.867613
vt 0.120532 0.865742
vt 0.130900 0.863369
vt 0.131782 0.861822
vt 0.145853 0.862764
vt 0.149986 0.862021
vt 0.159468 0.867850
vt 0.167963 0.872392
vt 0.170842 0.877577
vt 0.176086 0.884688
vt 0.176086 0.919413
vt 0.170123 0.929108
vt 0.161491 0.935109
vt 0.161015 0.936788
vt 0.148051 0.940641
vt 0.150081 0.941519
vt 0.136282 0.941452
vt 0.135026 0.942854
vt 0.124796 0.938758
vt 0.121005 0.938512
vt 0.114615 0.932799
vt 0.111271 0.931643
vt 0.753904 0.297320
vt 0.754395 0.300654
vt 0.749221 0.289843
vt 0.749668 0.286310
vt 0.747398 0.278070
vt 0.748865 0.274540
vt 0.749898 0.263164
vt 0.751566 0.263057
vt 0.757533 0.252880
vt 0.757633 0.250690
vt 0.766234 0.244913
vt 0.766733 0.243000
vt 0.776896 0.239866
vt 0.777662 0.238257
vt 0.791764 0.238154
vt 0.789494 0.236865
vt 0.807223 0.240999
vt 0.805718 0.242219
vt 0.815421 0.248929
vt 0.820215 0.252825
vt 0.480477 0.461876
vt 0.482497 0.473493
vt 0.480477 0.482598
vt 0.820215 0.302790
vt 0.812366 0.310853
vt 0.802381 0.314943
vt 0.801812 0.316381
vt 0.784854 0.317366
vt 0.786897 0.318827
vt 0.770901 0.313302
vt 0.772593 0.315534
vt 0.761198 0.306592
vt 0.762377 0.309405
vt 0.439737 0.602240
vt 0.439801 0.836422
vt 0.428035 0.836378
vt 0.427868 0.602195
vt 0.417089 0.836335
vt 0.417048 0.602153
vt 0.406054 0.836289
vt 0.406006 0.602107
vt 0.832644 0.000318
vt 0.832644 0.234501
vt 0.819080 0.234434
vt 0.819274 0.000252
vt 0.807278 0.234374
vt 0.807433 0.000191
vt 0.795508 0.234312
vt 0.795715 0.000129
vt 0.785381 0.234256
vt 0.785112 0.000071
vt 0.776495 0.234206
vt 0.772688 -0.000000
vt 0.725901 0.804379
vt 0.725608 0.570138
vt 0.735142 0.570344
vt 0.746333 0.570587
vt 0.742459 0.804739
vt 0.761040 0.570907
vt 0.754225 0.804995
vt 0.763048 0.805187
vt 0.780119 0.571324
vt 0.771101 0.805363
vt 0.780119 0.805561
vt 0.785440 0.804349
vt 0.780119 0.570138
vt 0.795715 0.570218
vt 0.796192 0.804404
vt 0.807401 0.570280
vt 0.807233 0.804462
vt 0.819260 0.570342
vt 0.819057 0.804524
vt 0.832717 0.570413
vt 0.832717 0.804597
vt 0.472843 0.602351
vt 0.472844 0.836532
vt 0.462214 0.836499
vt 0.462195 0.602318
vt 0.451596 0.836464
vt 0.451441 0.602282
vt 0.756088 0.569578
vt 0.753551 0.335289
vt 0.773838 0.335727
vt 0.770324 0.569887
vt 0.781778 0.570138
vt 0.781538 0.335895
vt 0.714815 0.234257
vt 0.714815 0.000000
vt 0.723465 0.000221
vt 0.727910 0.234593
vt 0.734139 0.000495
vt 0.739519 0.234894
vt 0.755712 0.001056
vt 0.751224 0.235198
vt 0.761987 0.235481
vt 0.771613 0.001473
vt 0.772689 0.235764
vt 0.292568 0.602193
vt 0.299666 0.836362
vt 0.289489 0.836378
vt 0.279643 0.602213
vt 0.278989 0.836394
vt 0.268083 0.602230
vt 0.267371 0.836411
vt 0.256343 0.602247
vt 0.255666 0.836428
vt 0.245466 0.602262
vt 0.244915 0.836443
vt 0.236419 0.602274
vt 0.236072 0.836454
vt 0.781778 0.568880
vt 0.782647 0.334700
vt 0.792337 0.568879
vt 0.793343 0.334699
vt 0.806727 0.568879
vt 0.805030 0.334699
vt 0.816671 0.334699
vt 0.827262 0.568880
vt 0.829874 0.334700
vt 0.836033 0.568881
vt 0.725608 0.568929
vt 0.725608 0.334699
vt 0.735766 0.569144
vt 0.736704 0.334931
vt 0.747286 0.569389
vt 0.747656 0.335164
s 0
usemtl mat5
f 1/1/1 2/2/1 3/3/1
f 3/3/1 2/2/1 4/4/1
f 3/3/1 4/4/1 5/5/1
f 5/5/1 4/4/1 6/6/1
f 5/5/1 6/6/1 7/7/1
f 5/5/1 7/7/1 8/8/1
f 8/8/1 7/7/1 9/9/1
f 9/9/1 7/7/1 10/10/1
f 9/9/1 10/10/1 11/11/1
f 11/11/1 10/10/1 12/12/1
f 11/11/1 12/12/1 13/13/1
f 13/13/1 12/12/1 14/14/1
f 13/13/1 14/14/1 15/15/1
f 15/15/1 14/14/1 16/16/1
f 15/15/1 16/16/1 17/17/1
f 17/17/1 16/16/1 18/18/1
f 17/17/1 18/18/1 19/19/1
f 19/19/1 18/18/1 20/20/1
f 23/21/1 24/22/1 25/23/1
f 25/23/1 24/22/1 26/24/1
f 25/23/1 26/24/1 27/25/1
f 27/25/1 26/24/1 28/26/1
f 27/25/1 28/26/1 29/27/1
f 29/27/1 28/26/1 30/28/1
f 29/27/1 30/28/1 31/29/1
f 31/29/1 30/28/1 32/30/1
f 31/29/1 32/30/1 33/31/1
f 33/31/1 32/30/1 34/32/1
f 33/31/1 34/32/1 1/1/1
f 1/1/1 34/32/1 2/2/1
f 35/33/2 36/34/2 37/35/2
f 35/33/2 37/35/2 38/36/2
f 38/36/2 37/35/2 39/37/2
f 38/36/2 39/37/2 40/38/2
f 40/38/2 39/37/2 41/39/2
f 40/38/2 41/39/2 42/40/2
f 42/40/2 41/39/2 43/41/2
f 43/41/2 41/39/2 44/42/2
f 43/41/2 44/42/2 45/43/2
f 45/43/3 44/42/3 46/44/3
f 45/43/2 46/44/2 47/45/2
f 47/45/2 46/44/2 48/46/2
f 47/45/2 48/46/2 49/47/2
f 49/47/2 48/46/2 50/48/2
f 49/47/2 50/48/2 51/49/2
f 49/47/2 51/49/2 52/50/2
f 52/50/2 51/49/2 53/51/2
f 53/51/2 51/49/2 54/52/2
f 54/53/2 55/54/2 56/55/2
f 59/56/2 60/57/2 61/58/2
f 61/58/2 60/57/2 62/59/2
f 61/58/3 62/59/3 63/60/3
f 63/60/2 62/59/2 64/61/2
f 63/60/2 64/61/2 65/62/2
f 65/62/2 64/61/2 66/63/2
f 65/62/2 66/63/2 67/64/2
f 67/64/2 66/63/2 68/65/2
f 67/64/2 68/65/2 35/33/2
f 35/33/2 68/65/2 36/34/2
f 36/66/4 2/67/5 34/68/6
f 36/66/7 34/68/8 37/69/9
f 37/69/10 34/68/11 32/70/12
f 37/69/13 32/70/14 39/71/15
f 39/71/16 32/70/17 30/72/18
f 39/71/19 30/72/20 41/73/21
f 41/74/22 30/75/23 28/76/24
f 41/74/25 28/76/26 44/77/27
f 44/77/28 28/76/29 26/78/30
f 44/77/31 26/78/32 46/79/33
f 46/79/34 26/78/35 24/80/36
f 46/79/37 24/80/38 48/81/39
f 48/81/40 24/80/41 23/82/42
f 48/81/43 23/82/44 50/83/45
f 50/83/46 23/82/47 22/84/48
f 50/83/49 22/84/50 51/85/51
f 51/86/52 22/87/53 21/88/54
f 51/86/55 21/88/56 20/89/57
f 51/86/58 20/89/59 54/90/60
f 54/90/61 20/89/62 18/91/63
f 54/90/64 18/91/65 55/92/66
f 55/92/67 18/91/68 56/93/69
f 56/93/70 18/91/71 16/94/72
f 56/93/73 16/94/74 57/95/75
f 57/95/76 16/94/77 58/96/78
f 58/97/79 16/98/80 14/99/81
f 58/97/82 14/99/83 59/100/84
f 59/100/85 14/99/86 12/101/87
f 59/100/88 12/101/89 60/102/90
f 60/102/91 12/101/92 10/103/93
f 60/102/94 10/103/95 62/104/96
f 62/104/97 10/103/98 7/105/99
f 62/104/100 7/105/101 64/106/102
f 64/107/103 7/108/104 6/109/105
f 64/107/106 6/109/107 66/110/108
f 66/110/109 6/109/110 4/111/111
f 66/110/112 4/111/113 68/112/114
f 68/112/115 4/111/116 2/67/117
f 68/112/118 2/67/119 36/66/120
f 19/113/121 54/114/122 56/115/123
f 19/113/124 56/115/125 17/116/126
f 17/116/127 56/115/128 15/117/129
f 15/117/130 56/115/131 57/118/132
f 15/119/133 57/120/134 58/121/135
f 15/119/136 58/121/137 13/122/138
f 13/122/139 58/121/140 59/123/141
f 13/122/142 59/123/143 11/124/144
f 11/124/145 59/123/146 61/125/147
f 11/124/148 61/125/149 9/126/150
f 9/126/151 61/125/152 8/127/153
f 8/127/154 61/125/155 63/128/156
f 8/127/157 63/128/158 5/129/159
f 5/130/160 63/131/161 65/132/162
f 5/130/163 65/132/164 3/133/165
f 3/133/166 65/132/167 67/134/168
f 3/133/169 67/134/170 1/135/171
f 1/135/172 67/134/173 35/136/174
f 1/135/175 35/136/176 33/137/177
f 33/137/178 35/136/179 38/138/180
f 33/137/181 38/138/182 31/139/183
f 31/139/184 38/138/185 40/140/186
f 31/139/187 40/140/188 29/141/189
f 29/141/190 40/140/191 42/142/192
f 29/143/193 42/144/194 27/145/195
f 27/145/196 42/144/197 43/146/198
f 27/145/199 43/146/200 25/147/201
f 25/147/202 43/146/203 45/148/204
f 25/147/205 45/148/206 47/149/207
f 25/147/208 47/149/209 23/150/210
f 23/150/211 47/149/212 49/151/213
f 23/150/214 49/151/215 22/152/216
f 22/153/217 49/154/218 21/155/219
f 21/155/220 49/154/221 52/156/222
f 21/155/223 52/156/224 20/157/225
f 20/157/226 52/156/227 53/158/228
f 20/157/229 53/158/230 19/113/231
f 19/113/232 53/158/233 54/114/234