# Blender 4.0.2
# www.blender.org
mtllib rocketL1.mtl
o obj10
v -0.227825 0.004640 -0.185363
v -0.227825 -0.111181 0.093665
v -0.227825 -0.135258 0.110951
v -0.227825 -0.135079 0.046398
v -0.227825 -0.165101 0.046736
v -0.227825 -0.144493 -0.020134
v -0.227825 -0.172831 -0.010221
v -0.227825 -0.164563 -0.067102
v -0.227825 -0.127878 -0.083233
v -0.227825 -0.140936 -0.119501
v -0.227825 -0.079907 -0.148420
v -0.227825 -0.103781 -0.163357
v -0.227825 -0.055977 -0.195274
v -0.227825 -0.001570 -0.212741
v -0.227825 0.071691 -0.213052
v -0.227825 0.069855 -0.183205
v -0.227825 0.132181 -0.158093
v -0.227825 0.137765 -0.187591
v -0.227825 0.193801 -0.140930
v -0.227825 0.178519 -0.112154
v -0.227825 0.207126 -0.051353
v -0.227825 0.233518 -0.064414
v -0.227825 0.208219 0.028077
v -0.227825 0.238680 0.021641
v -0.227825 0.215540 0.088563
v -0.227825 0.174739 0.100116
v -0.227825 0.170864 0.146194
v -0.227825 0.101177 0.157226
v -0.227825 0.110121 0.182585
v -0.227825 0.038852 0.198015
v -0.227825 0.023815 0.168167
v -0.227825 -0.028040 0.157380
v -0.227825 -0.031071 0.186848
v -0.227825 -0.074412 0.131789
v -0.227825 -0.082613 0.161407
v -1.013602 -0.108394 0.097479
v -1.013602 -0.121826 0.126641
v -1.013602 -0.059163 0.143211
v -1.013602 -0.078347 0.164237
v -1.013602 -0.011393 0.193123
v -1.013602 0.002120 0.165617
v -1.013602 0.055063 0.167148
v -1.013602 0.059371 0.195653
v -1.013602 0.106105 0.153005
v -1.013602 0.114853 0.180631
v -1.013602 0.161645 0.115185
v -1.013602 0.176241 0.141277
v -1.013602 0.207931 0.034372
v -1.013602 -0.005931 -0.211938
v -1.013602 -0.001976 -0.184144
v -1.013602 -0.060561 -0.192994
v -1.013602 -0.085743 -0.143447
v -1.013602 -0.107560 -0.159902
v -1.013602 -0.143615 -0.115138
v -1.013602 -0.129788 -0.078912
v -1.013602 -0.165936 -0.062170
v -1.013602 -0.144777 -0.013412
v -1.013602 -0.172792 -0.005101
v -1.013602 -0.133540 0.050864
v -1.013602 -0.159300 0.066559
v -1.013602 0.225137 0.070275
v -1.013602 0.239917 0.001024
v -1.013602 0.205416 -0.057859
v -1.013602 0.231456 -0.071402
v -1.013602 0.167314 -0.127564
v -1.013602 0.189075 -0.146476
v -1.013602 0.115358 -0.167038
v -1.013602 0.119822 -0.197821
v -1.013602 0.065218 -0.184106
v -1.013602 0.051129 -0.215008
vn 1.0000 -0.0000 -0.0000
vn -1.0000 -0.0000 -0.0000
vn 0.0016 -0.0586 -0.9983
vn -0.0002 -0.0586 -0.9983
vn 0.0007 -0.1970 -0.9804
vn 0.0042 -0.0817 -0.9966
vn 0.0016 -0.2196 -0.9756
vn -0.0008 -0.2196 -0.9756
vn 0.0015 -0.3304 -0.9439
vn -0.0003 -0.3304 -0.9439
vn 0.0008 -0.4585 -0.8887
vn 0.0041 -0.3537 -0.9354
vn 0.0015 -0.4804 -0.8771
vn -0.0008 -0.4804 -0.8771
vn 0.0015 -0.5777 -0.8162
vn -0.0003 -0.5777 -0.8162
vn 0.0008 -0.6857 -0.7279
vn 0.0041 -0.5978 -0.8016
vn 0.0015 -0.7036 -0.7106
vn -0.0008 -0.7035 -0.7107
vn 0.0015 -0.7803 -0.6254
vn -0.0003 -0.7803 -0.6254
vn 0.0008 -0.8598 -0.5107
vn 0.0041 -0.7956 -0.6058
vn 0.0015 -0.8722 -0.4892
vn -0.0008 -0.8722 -0.4892
vn 0.0015 -0.9225 -0.3861
vn -0.0003 -0.9225 -0.3861
vn 0.0008 -0.9672 -0.2539
vn 0.0041 -0.9318 -0.3630
vn 0.0015 -0.9732 -0.2298
vn -0.0008 -0.9732 -0.2299
vn 0.0015 -0.9931 -0.1168
vn -0.0003 -0.9932 -0.1168
vn 0.0008 -0.9997 0.0225
vn 0.0024 -0.9978 -0.0658
vn -0.0008 -0.9973 0.0737
vn -0.0026 -0.9973 0.0737
vn 0.0007 -0.9833 0.1820
vn -0.0005 -0.9833 0.1820
vn 0.0039 -0.9484 0.3171
vn 0.0007 -0.9536 0.3010
vn -0.0023 -0.9025 0.4308
vn -0.0039 -0.9025 0.4307
vn -0.0005 -0.8501 0.5266
vn -0.0019 -0.8501 0.5266
vn 0.0026 -0.7685 0.6398
vn 0.0041 -0.8220 0.5695
vn 0.0015 -0.7348 0.6783
vn -0.0008 -0.7348 0.6783
vn 0.0015 -0.6522 0.7580
vn -0.0004 -0.6522 0.7580
vn 0.0008 -0.5404 0.8414
vn 0.0024 -0.6125 0.7904
vn -0.0008 -0.4966 0.8680
vn -0.0026 -0.4966 0.8680
vn 0.0007 -0.3989 0.9170
vn -0.0005 -0.3989 0.9170
vn 0.0039 -0.2674 0.9636
vn 0.0007 -0.2837 0.9589
vn -0.0023 -0.1475 0.9891
vn -0.0039 -0.1476 0.9890
vn -0.0005 -0.0388 0.9992
vn -0.0019 -0.0388 0.9992
vn 0.0026 0.1006 0.9949
vn 0.0041 0.0124 0.9999
vn 0.0015 0.1514 0.9885
vn -0.0008 0.1514 0.9885
vn 0.0027 0.2838 0.9589
vn -0.0002 0.2838 0.9589
vn 0.0010 0.4145 0.9100
vn 0.0062 0.3128 0.9498
vn 0.0022 0.4419 0.8970
vn -0.0016 0.4419 0.8971
vn 0.0027 0.6126 0.7904
vn -0.0000 0.6126 0.7904
vn 0.0016 0.7166 0.6975
vn 0.0047 0.6562 0.7545
vn 0.0001 0.7548 0.6560
vn -0.0031 0.7548 0.6560
vn 0.0007 0.8338 0.5521
vn -0.0006 0.8338 0.5521
vn 0.0039 0.9025 0.4307
vn 0.0007 0.8951 0.4459
vn -0.0023 0.9484 0.3171
vn -0.0039 0.9484 0.3171
vn 0.0011 0.9816 0.1909
vn -0.0013 0.9816 0.1909
vn 0.0031 0.9986 0.0524
vn 0.0062 0.9908 0.1352
vn 0.0022 1.0000 -0.0040
vn -0.0016 1.0000 -0.0039
vn 0.0040 0.9744 -0.2248
vn 0.0002 0.9744 -0.2248
vn 0.0018 0.9336 -0.3583
vn 0.0088 0.9658 -0.2591
vn 0.0034 0.9204 -0.3910
vn -0.0018 0.9204 -0.3909
vn 0.0027 0.8113 -0.5846
vn -0.0001 0.8113 -0.5846
vn 0.0016 0.7220 -0.6919
vn 0.0047 0.7770 -0.6295
vn 0.0001 0.6819 -0.7315
vn -0.0031 0.6819 -0.7314
vn 0.0007 0.5809 -0.8140
vn -0.0005 0.5809 -0.8140
vn 0.0039 0.4619 -0.8869
vn 0.0007 0.4769 -0.8790
vn -0.0023 0.3500 -0.9367
vn -0.0039 0.3500 -0.9367
vn -0.0005 0.2452 -0.9695
vn -0.0018 0.2452 -0.9695
vn 0.0026 0.1080 -0.9942
vn 0.0043 0.1969 -0.9804
vn 0.0017 0.0586 -0.9983
vn -0.0007 0.0586 -0.9983
vn 0.0034 -0.1622 -0.9868
vn 0.0034 -0.0133 -0.9999
vn 0.0040 -0.1622 -0.9868
vn 0.0095 -0.4713 -0.8819
vn 0.0009 -0.3343 -0.9425
vn 0.0076 -0.4712 -0.8820
vn -0.0048 -0.3923 -0.9198
vn 0.0028 -0.3924 -0.9198
vn -0.0043 -0.5250 -0.8511
vn 0.0126 -0.8095 -0.5869
vn 0.0048 -0.7129 -0.7012
vn 0.0116 -0.8095 -0.5870
vn -0.0029 -0.7699 -0.6381
vn 0.0079 -0.7701 -0.6379
vn -0.0012 -0.8565 -0.5162
vn 0.0005 -0.9706 -0.2409
vn -0.0144 -0.9706 -0.2404
vn -0.0048 -0.9956 -0.0934
vn 0.0006 -0.9968 -0.0800
vn 0.0019 -0.9737 -0.2277
vn 0.0025 -0.9968 -0.0800
vn -0.0015 -0.9833 0.1818
vn -0.0093 -0.9833 0.1819
vn -0.0047 -0.9452 0.3263
vn 0.0039 -0.9238 0.3828
vn 0.0030 -0.9706 0.2409
vn 0.0048 -0.9238 0.3828
vn -0.0038 -0.8614 0.5079
vn -0.0071 -0.8614 0.5079
vn -0.0057 -0.7761 0.6306
vn 0.0051 -0.6868 0.7268
vn 0.0038 -0.7875 0.6163
vn 0.0056 -0.6868 0.7268
vn -0.0025 -0.5972 0.8021
vn -0.0062 -0.5972 0.8021
vn -0.0045 -0.4710 0.8821
vn 0.0005 -0.4218 0.9067
vn 0.0008 -0.5523 0.8337
vn 0.0012 -0.4218 0.9067
vn -0.0009 -0.2860 0.9582
vn -0.0088 -0.2859 0.9582
vn -0.0040 -0.1399 0.9902
vn 0.0011 -0.1077 0.9942
vn 0.0015 -0.2547 0.9670
vn 0.0022 -0.1077 0.9942
vn -0.0019 0.1543 0.9880
vn -0.0157 0.1547 0.9878
vn -0.0073 0.3000 0.9539
vn 0.0012 0.3381 0.9411
vn 0.0024 0.1940 0.9810
vn 0.0031 0.3381 0.9411
vn -0.0022 0.6283 0.7780
vn -0.0130 0.6284 0.7778
vn -0.0064 0.7373 0.6755
vn -0.0000 0.7608 0.6490
vn 0.0011 0.6555 0.7552
vn 0.0015 0.7608 0.6490
vn -0.0009 0.8706 0.4921
vn -0.0088 0.8706 0.4920
vn -0.0040 0.9342 0.3568
vn 0.0011 0.9453 0.3263
vn 0.0015 0.8861 0.4635
vn 0.0022 0.9453 0.3263
vn -0.0015 0.9932 0.1162
vn -0.0093 0.9932 0.1160
vn -0.0046 0.9994 -0.0332
vn 0.0003 0.9978 -0.0656
vn 0.0009 0.9965 0.0838
vn 0.0014 0.9978 -0.0656
vn -0.0008 0.9778 -0.2095
vn -0.0057 0.9778 -0.2096
vn -0.0028 0.9356 -0.3530
vn 0.0005 0.9259 -0.3777
vn 0.0008 0.9719 -0.2355
vn 0.0012 0.9259 -0.3777
vn -0.0008 0.8726 -0.4884
vn -0.0057 0.8726 -0.4885
vn -0.0028 0.7900 -0.6131
vn 0.0037 0.7552 -0.6555
vn 0.0025 0.8445 -0.5356
vn 0.0043 0.7552 -0.6555
vn -0.0032 0.6899 -0.7239
vn -0.0036 0.6898 -0.7239
vn -0.0040 0.5742 -0.8187
vn 0.0062 0.4420 -0.8970
vn 0.0032 0.5708 -0.8211
vn -0.0024 0.4458 -0.8951
vn 0.0013 0.4458 -0.8951
vn -0.0020 0.3075 -0.9516
vn 0.0058 0.1358 -0.9907
vn 0.0024 0.2820 -0.9594
vn 0.0053 0.1358 -0.9907
vn -0.0041 0.1162 -0.9932
vn -0.0067 0.1162 -0.9932
vn -0.0061 -0.0331 -0.9994
vt 0.956279 0.299169
vt 0.961776 0.300595
vt 0.952250 0.308482
vt 0.955980 0.312861
vt 0.943608 0.318025
vt 0.948542 0.320982
vt 0.939154 0.326738
vt 0.932282 0.323314
vt 0.928543 0.329683
vt 0.916803 0.324243
vt 0.917531 0.329589
vt 0.906971 0.326464
vt 0.900999 0.316324
vt 0.897730 0.320595
vt 0.888703 0.309847
vt 0.893322 0.306458
vt 0.889378 0.294204
vt 0.884351 0.296998
vt 0.884351 0.283028
vt 0.890461 0.281750
vt 0.895905 0.270084
vt 0.890747 0.267800
vt 0.907466 0.260185
vt 0.902784 0.256490
vt 0.915473 0.251692
vt 0.922176 0.256283
vt 0.929435 0.251205
vt 0.939603 0.260112
vt 0.942240 0.255686
vt 0.953249 0.264287
vt 0.950698 0.270160
vt 0.955467 0.279117
vt 0.960177 0.275951
vt 0.957384 0.289082
vt 0.962750 0.286658
vt 0.513391 0.899553
vt 0.508251 0.896174
vt 0.516757 0.887127
vt 0.511507 0.885654
vt 0.519462 0.874170
vt 0.524447 0.877271
vt 0.532898 0.871655
vt 0.530709 0.866584
vt 0.542630 0.868778
vt 0.541251 0.863401
vt 0.555493 0.869295
vt 0.555220 0.863574
vt 0.571211 0.877739
vt 0.559244 0.934543
vt 0.561419 0.939462
vt 0.550618 0.941922
vt 0.541501 0.936421
vt 0.539623 0.941308
vt 0.529223 0.937687
vt 0.527798 0.930396
vt 0.520224 0.931340
vt 0.518720 0.921268
vt 0.513323 0.922758
vt 0.514030 0.909680
vt 0.508251 0.909741
vt 0.570368 0.870158
vt 0.579791 0.879917
vt 0.580153 0.892987
vt 0.585760 0.892548
vt 0.581027 0.908181
vt 0.586482 0.909049
vt 0.576583 0.919866
vt 0.580430 0.924417
vt 0.570163 0.927724
vt 0.571006 0.934176
vt 0.600814 0.819688
vt 0.600270 0.669143
vt 0.608319 0.669144
vt 0.609130 0.819688
vt 0.618154 0.669144
vt 0.619085 0.819688
vt 0.628973 0.669144
vt 0.629951 0.819688
vt 0.639939 0.669144
vt 0.640889 0.819689
vt 0.650202 0.669144
vt 0.651050 0.819689
vt 0.658967 0.669144
vt 0.599366 0.604363
vt 0.591951 0.754908
vt 0.588617 0.604364
vt 0.579699 0.754911
vt 0.575745 0.604367
vt 0.565765 0.754915
vt 0.564735 0.604371
vt 0.555051 0.754920
vt 0.551326 0.604378
vt 0.543370 0.754926
vt 0.540577 0.604384
vt 0.115411 0.753014
vt 0.113492 0.602458
vt 0.124123 0.602514
vt 0.124145 0.753061
vt 0.136724 0.602582
vt 0.137273 0.753132
vt 0.150694 0.602659
vt 0.153770 0.753222
vt 0.163577 0.602730
vt 0.166036 0.753291
vt 0.176086 0.602801
vt 0.176086 0.753348
vt 0.060850 0.752970
vt 0.060249 0.602422
vt 0.075407 0.602476
vt 0.076229 0.753025
vt 0.089376 0.602527
vt 0.092729 0.753085
vt 0.102272 0.602575
vt 0.105012 0.753131
vt 0.113116 0.602617
vt 0.113116 0.753162
vt 0.878344 0.150559
vt 0.884351 0.301103
vt 0.877173 0.301103
vt 0.865624 0.301103
vt 0.861877 0.150558
vt 0.847782 0.301103
vt 0.846707 0.150558
vt 0.833569 0.150558
vt 0.832644 0.301103
vt 0.878969 0.570138
vt 0.878748 0.720686
vt 0.867317 0.570200
vt 0.864607 0.720762
vt 0.854866 0.570268
vt 0.852117 0.720830
vt 0.842601 0.570337
vt 0.842634 0.720883
vt 0.832717 0.570394
vt 0.832717 0.720940
vt 0.832717 0.871759
vt 0.832717 0.721211
vt 0.848167 0.871659
vt 0.848648 0.721108
vt 0.863671 0.871561
vt 0.863596 0.721014
vt 0.875213 0.871488
vt 0.875316 0.720941
vt 0.832644 0.150544
vt 0.833450 -0.000000
vt 0.842093 0.150545
vt 0.842897 0.000001
vt 0.851363 0.150546
vt 0.852273 0.000002
vt 0.861437 0.150548
vt 0.865119 0.000005
vt 0.871422 0.150551
vt 0.876933 0.000008
vt 0.880430 0.150554
vt 0.884982 0.000011
vt 0.890597 0.150558
s 0
usemtl mat4
f 2/1/1 3/2/1 4/3/1
f 4/3/1 3/2/1 5/4/1
f 4/3/1 5/4/1 6/5/1
f 6/5/1 5/4/1 7/6/1
f 6/5/1 7/6/1 8/7/1
f 6/5/1 8/7/1 9/8/1
f 9/8/1 8/7/1 10/9/1
f 9/8/1 10/9/1 11/10/1
f 11/10/1 10/9/1 12/11/1
f 11/10/1 12/11/1 13/12/1
f 11/10/1 13/12/1 1/13/1
f 1/13/1 13/12/1 14/14/1
f 1/13/1 14/14/1 15/15/1
f 1/13/1 15/15/1 16/16/1
f 16/16/1 15/15/1 17/17/1
f 17/17/1 15/15/1 18/18/1
f 17/17/1 18/18/1 19/19/1
f 17/17/1 19/19/1 20/20/1
f 20/20/1 19/19/1 21/21/1
f 21/21/1 19/19/1 22/22/1
f 21/21/1 22/22/1 23/23/1
f 23/23/1 22/22/1 24/24/1
f 23/23/1 24/24/1 25/25/1
f 23/23/1 25/25/1 26/26/1
f 26/26/1 25/25/1 27/27/1
f 26/26/1 27/27/1 28/28/1
f 28/28/1 27/27/1 29/29/1
f 28/28/1 29/29/1 30/30/1
f 28/28/1 30/30/1 31/31/1
f 31/31/1 30/30/1 32/32/1
f 32/32/1 30/30/1 33/33/1
f 32/32/1 33/33/1 34/34/1
f 34/34/1 33/33/1 35/35/1
f 34/34/1 35/35/1 2/1/1
f 2/1/1 35/35/1 3/2/1
f 36/36/2 37/37/2 38/38/2
f 38/38/2 37/37/2 39/39/2
f 38/38/2 39/39/2 40/40/2
f 38/38/2 40/40/2 41/41/2
f 41/41/2 40/40/2 42/42/2
f 42/42/2 40/40/2 43/43/2
f 42/42/2 43/43/2 44/44/2
f 44/44/2 43/43/2 45/45/2
f 44/44/2 45/45/2 46/46/2
f 46/46/2 45/45/2 47/47/2
f 46/46/2 47/47/2 48/48/2
f 50/49/2 49/50/2 51/51/2
f 50/49/2 51/51/2 52/52/2
f 52/52/2 51/51/2 53/53/2
f 52/52/2 53/53/2 54/54/2
f 52/52/2 54/54/2 55/55/2
f 55/55/2 54/54/2 56/56/2
f 55/55/2 56/56/2 57/57/2
f 57/57/2 56/56/2 58/58/2
f 57/57/2 58/58/2 59/59/2
f 59/59/2 58/58/2 60/60/2
f 59/59/2 60/60/2 36/36/2
f 36/36/2 60/60/2 37/37/2
f 47/47/2 61/61/2 48/48/2
f 48/48/2 61/61/2 62/62/2
f 48/48/2 62/62/2 63/63/2
f 63/63/2 62/62/2 64/64/2
f 63/63/2 64/64/2 65/65/2
f 65/65/2 64/64/2 66/66/2
f 65/65/2 66/66/2 67/67/2
f 67/67/2 66/66/2 68/68/2
f 67/67/2 68/68/2 69/69/2
f 69/69/2 68/68/2 70/70/2
f 69/69/2 70/70/2 50/49/2
f 50/49/2 70/70/2 49/50/2
f 49/71/3 14/72/4 13/73/5
f 49/71/6 13/73/7 51/74/8
f 51/74/9 13/73/10 12/75/11
f 51/74/12 12/75/13 53/76/14
f 53/76/15 12/75/16 10/77/17
f 53/76/18 10/77/19 54/78/20
f 54/78/21 10/77/22 8/79/23
f 54/78/24 8/79/25 56/80/26
f 56/80/27 8/79/28 7/81/29
f 56/80/30 7/81/31 58/82/32
f 58/82/33 7/81/34 5/83/35
f 58/84/36 5/85/37 60/86/38
f 60/86/39 5/85/40 3/87/41
f 60/86/42 3/87/43 37/88/44
f 37/88/45 3/87/46 35/89/47
f 37/88/48 35/89/49 39/90/50
f 39/90/51 35/89/52 33/91/53
f 39/90/54 33/91/55 40/92/56
f 40/92/57 33/91/58 30/93/59
f 40/92/60 30/93/61 43/94/62
f 43/95/63 30/96/64 29/97/65
f 43/95/66 29/97/67 45/98/68
f 45/98/69 29/97/70 27/99/71
f 45/98/72 27/99/73 47/100/74
f 47/100/75 27/99/76 25/101/77
f 47/100/78 25/101/79 61/102/80
f 61/102/81 25/101/82 24/103/83
f 61/102/84 24/103/85 62/104/86
f 62/104/87 24/103/88 22/105/89
f 62/104/90 22/105/91 64/106/92
f 64/107/93 22/108/94 19/109/95
f 64/107/96 19/109/97 66/110/98
f 66/110/99 19/109/100 18/111/101
f 66/110/102 18/111/103 68/112/104
f 68/112/105 18/111/106 15/113/107
f 68/112/108 15/113/109 70/114/110
f 70/114/111 15/113/112 14/115/113
f 70/114/114 14/115/115 49/116/116
f 28/117/117 42/118/118 44/119/119
f 28/117/120 44/119/121 46/120/122
f 28/117/123 46/120/124 26/121/125
f 26/121/126 46/120/127 48/122/128
f 26/121/129 48/122/130 23/123/131
f 23/123/132 48/122/133 21/124/134
f 21/124/135 48/122/136 63/125/137
f 21/126/138 63/127/139 20/128/140
f 20/128/141 63/127/142 65/129/143
f 20/128/144 65/129/145 17/130/146
f 17/130/147 65/129/148 67/131/149
f 17/130/150 67/131/151 16/132/152
f 16/132/153 67/131/154 69/133/155
f 16/132/156 69/133/157 1/134/158
f 1/134/159 69/133/160 50/135/161
f 1/136/162 50/137/163 11/138/164
f 11/138/165 50/137/166 52/139/167
f 11/138/168 52/139/169 9/140/170
f 9/140/171 52/139/172 55/141/173
f 9/140/174 55/141/175 6/142/176
f 6/142/177 55/141/178 57/143/179
f 6/144/180 57/145/181 4/146/182
f 4/146/183 57/145/184 59/147/185
f 4/146/186 59/147/187 2/148/188
f 2/148/189 59/147/190 36/149/191
f 2/148/192 36/149/193 34/150/194
f 34/150/195 36/149/196 38/151/197
f 34/150/198 38/151/199 32/152/200
f 32/152/201 38/151/202 41/153/201
f 32/152/203 41/153/204 31/154/205
f 31/154/206 41/153/207 42/155/208
f 31/154/209 42/155/210 28/156/211