# Blender 4.0.2
# www.blender.org
mtllib rocketL3.mtl
o obj8
v 0.073181 -0.277567 -1.049148
v 0.072099 -0.280639 -1.068349
v 0.074491 -0.351054 -1.279182
v 0.190229 -0.301795 -1.296405
v 0.191276 -0.304358 -1.295833
v 0.190310 -0.272465 -1.199357
v 0.191386 -0.275049 -1.198898
v 0.074491 -0.286265 -1.066634
v 0.073035 -0.351406 -1.292623
vn -1.0000 -0.0000 -0.0000
vn -0.9999 0.0033 0.0114
vn -1.0000 0.0021 0.0073
vn -0.8987 -0.3435 -0.2726
vn -1.0000 -0.0009 -0.0029
vn -0.9869 -0.0770 -0.1420
vn 0.0578 -0.2274 -0.9721
vn 0.0580 -0.2274 -0.9721
vn 0.0582 -0.2273 -0.9721
vn 0.9991 -0.0048 -0.0420
vn 0.9998 0.0007 -0.0179
vn 1.0000 0.0043 -0.0050
vn 0.9996 -0.0123 -0.0242
vn 1.0000 -0.0059 -0.0003
vn 0.9999 -0.0080 -0.0076
vn 0.7706 0.1242 0.6251
vn 0.8622 0.3873 0.3264
vn 0.7598 0.1251 0.6380
vn 0.0165 -0.9462 0.3232
vn 0.0150 -0.9544 0.2980
vn 0.0155 -0.9505 0.3104
vn 0.0129 -0.9556 0.2944
vn 0.0130 -0.9583 0.2856
vn 0.0130 -0.9586 0.2844
vn 0.0172 0.9602 -0.2788
vn 0.0173 0.9577 -0.2871
vn 0.0166 0.9639 -0.2659
vn -0.0058 0.9556 -0.2945
vn -0.0058 0.9553 -0.2957
vn -0.0057 0.9541 -0.2995
vn 0.1789 -0.8747 0.4505
vn 0.1790 -0.8754 0.4490
vn 0.1789 -0.8745 0.4509
vn 0.0004 -0.9996 0.0272
vn 0.0005 -0.9996 0.0275
vn 0.0040 -0.9986 0.0521
vn 0.1569 0.9792 -0.1286
vn 0.1567 0.9799 -0.1234
vn 0.1571 0.9786 -0.1326
vt 0.578028 0.465091
vt 0.576673 0.473075
vt 0.575401 0.465118
vt 0.577057 0.373163
vt 0.575401 0.367819
vt 0.180712 0.599268
vt 0.179543 0.599268
vt 0.179754 0.546601
vt 0.526970 0.426650
vt 0.528137 0.426777
vt 0.526970 0.468595
vt 0.528137 0.468675
vt 0.527228 0.367819
vt 0.578028 0.836365
vt 0.578028 0.794481
vt 0.630467 0.835471
vt 0.630467 0.743576
vt 0.881100 0.805259
vt 0.881076 0.847165
vt 0.828693 0.754321
vt 0.828693 0.851465
vt 0.630387 0.735652
vt 0.630378 0.840876
vt 0.828764 0.746306
s 0
usemtl mat1
f 8/1/1 1/2/2 2/3/3
f 8/1/1 2/3/1 3/4/1
f 3/4/4 2/3/5 9/5/6
f 4/6/7 5/7/8 9/8/9
f 6/9/10 7/10/11 4/11/12
f 4/11/13 7/10/14 5/12/15
f 6/9/16 1/13/17 7/10/18
f 5/14/19 7/15/20 3/16/21
f 3/16/22 7/15/23 8/17/24
f 6/18/25 4/19/26 2/20/27
f 2/20/28 4/19/29 9/21/30
f 8/17/31 7/15/32 1/22/33
f 3/16/34 9/23/35 5/14/36
f 1/24/37 6/18/38 2/20/39