# Blender 4.0.2
# www.blender.org
mtllib rocketL3.mtl
o obj21
v -0.031567 0.169635 0.657299
v -0.031322 0.169411 0.657422
v -0.031393 0.169340 0.657172
v -0.031870 0.169959 0.658222
v -0.031994 0.170012 0.658697
v -0.032118 0.170065 0.658222
v -0.031567 0.169635 0.656799
v -0.031322 0.169411 0.656922
v -0.031393 0.169340 0.656672
v -0.031658 0.169746 0.658422
v -0.031358 0.169375 0.658297
v -0.031729 0.169676 0.658172
v -0.032799 0.170787 0.658222
v -0.032776 0.170809 0.658697
v -0.032648 0.170595 0.658697
v -0.032648 0.170595 0.658222
v -0.032401 0.170489 0.658697
v -0.032224 0.170312 0.658697
v -0.032312 0.170401 0.658222
v -0.031322 0.169411 0.657672
v -0.031567 0.169635 0.657795
v -0.031393 0.169340 0.657922
v -0.033326 0.171364 0.657666
v -0.032966 0.171055 0.657922
v -0.033346 0.171344 0.657928
v -0.033037 0.170984 0.657672
v -0.032754 0.170843 0.656397
v -0.032799 0.170787 0.656872
v -0.032794 0.170769 0.656397
v -0.032648 0.170595 0.656872
v -0.032966 0.171055 0.658422
v -0.032966 0.171055 0.658172
v -0.033322 0.171365 0.658422
v -0.033345 0.171341 0.658172
v -0.032966 0.171055 0.656922
v -0.032966 0.171055 0.656672
v -0.033322 0.171365 0.656922
v -0.033345 0.171341 0.656672
v -0.031967 0.170035 0.656729
v -0.031870 0.169959 0.656397
v -0.032118 0.170065 0.656397
v -0.032325 0.170392 0.656540
v -0.032401 0.170489 0.656872
v -0.032295 0.170241 0.656872
v -0.033345 0.171341 0.657172
v -0.033322 0.171365 0.657422
v -0.032966 0.171055 0.657172
v -0.032966 0.171055 0.657422
vn -0.0031 0.9839 0.1786
vn -0.0546 0.9941 0.0938
vn 0.0399 0.9700 0.2398
vn -0.0591 -0.9947 0.0836
vn -0.0344 -0.9895 0.1402
vn -0.0771 -0.9959 0.0467
vn 0.0036 0.9984 -0.0565
vn 0.0108 0.9953 -0.0961
vn -0.0001 1.0000 -0.0000
vn -0.0036 -0.9984 -0.0565
vn -0.0108 -0.9953 -0.0961
vn 0.0001 -1.0000 -0.0000
vn 0.0587 0.9947 -0.0845
vn 0.0201 0.9842 -0.1761
vn -0.0025 0.9701 -0.2428
vn 0.0803 -0.9957 -0.0462
vn -0.0623 -0.9611 -0.2692
vn 0.0339 -0.9910 -0.1293
vn -0.0251 0.9986 -0.0473
vn -0.0308 0.9978 -0.0589
vn -0.0786 0.9822 -0.1707
vn -0.0884 -0.9871 -0.1337
vn -0.0821 -0.9887 -0.1253
vn -0.1068 -0.9818 -0.1572
vn -0.2587 0.9655 -0.0307
vn -0.2582 0.9658 -0.0221
vn -0.2584 0.9657 -0.0264
vn -0.1319 0.9910 0.0242
vn -0.1320 0.9911 0.0177
vn -0.1321 0.9912 -0.0000
vn -0.2442 -0.9686 0.0463
vn -0.2436 -0.9682 0.0566
vn -0.2439 -0.9684 0.0524
vn -0.1197 -0.9928 0.0019
vn -0.1196 -0.9928 -0.0000
vn -0.1197 -0.9928 -0.0000
vn 0.0073 0.9927 -0.1207
vn -0.0000 1.0000 -0.0000
vn 0.0154 0.9846 -0.1743
vn -0.0073 -0.9927 -0.1207
vn -0.0000 -1.0000 -0.0000
vn -0.0154 -0.9846 -0.1743
vn 0.0399 0.9700 -0.2396
vn -0.0545 0.9941 -0.0939
vn -0.0030 0.9839 -0.1785
vn -0.0590 -0.9948 -0.0836
vn -0.0769 -0.9959 -0.0467
vn -0.0343 -0.9895 -0.1402
vn -0.0708 0.9975 -0.0075
vn -0.0725 0.9973 -0.0118
vn -0.0706 0.9975 -0.0070
vn -0.1356 0.9873 0.0824
vn -0.1346 0.9888 0.0646
vn -0.1350 0.9884 0.0703
vn -0.1303 -0.9893 -0.0660
vn -0.1295 -0.9887 -0.0753
vn -0.1288 -0.9882 -0.0831
vn -0.0781 -0.9969 -0.0094
vn -0.0647 -0.9979 0.0091
vn -0.0628 -0.9980 0.0115
vn 0.7510 0.6406 -0.1601
vn 0.7079 0.6560 -0.2617
vn 0.7027 0.6568 -0.2734
vn -0.2609 0.9637 0.0569
vn -0.2627 0.9620 0.0746
vn -0.2630 0.9617 0.0774
vn -0.1195 -0.9928 0.0104
vn -0.1656 -0.9412 -0.2945
vn -0.1408 -0.9704 -0.1964
vn 0.0197 -0.0217 -0.9996
vn 0.0110 -0.0378 -0.9992
vn 0.0148 -0.0306 -0.9994
vn -0.0679 0.9977 -0.0000
vn -0.0679 0.9977 0.0019
vn -0.0679 0.9977 0.0012
vn -0.1394 0.9869 -0.0816
vn -0.1405 0.9858 -0.0917
vn -0.1396 0.9867 -0.0835
vn -0.0704 -0.9975 -0.0000
vn -0.0704 -0.9975 0.0015
vn -0.0702 -0.9975 -0.0001
vn -0.1337 -0.9843 0.1155
vn -0.1339 -0.9845 0.1133
vn -0.1342 -0.9849 0.1094
vn -0.0682 0.9977 0.0001
vn -0.0682 0.9977 0.0019
vn -0.0684 0.9977 0.0012
vn -0.1395 0.9869 -0.0815
vn -0.1397 0.9867 -0.0834
vn -0.0701 -0.9975 -0.0000
vn -0.0701 -0.9975 0.0015
vn -0.0700 -0.9975 -0.0000
vn -0.1336 -0.9843 0.1155
vn -0.1337 -0.9845 0.1133
vn -0.1342 -0.9849 0.1093
vn 0.0573 0.9808 0.1861
vn 0.0055 0.9945 0.1044
vn 0.0553 0.9815 0.1835
vn -0.0045 -0.9842 0.1769
vn -0.0080 -0.9809 0.1944
vn 0.0016 -0.9961 0.0878
vn -0.0019 0.9993 0.0376
vn 0.0336 0.9769 -0.2112
vn 0.0258 0.9850 -0.1704
vn 0.0021 -0.9993 0.0368
vn 0.0187 -0.9745 -0.2236
vn 0.0177 -0.9862 -0.1646
vn -0.0679 0.9977 0.0020
vn -0.0679 0.9977 0.0001
vn -0.1344 -0.9849 0.1093
vn -0.1339 -0.9842 0.1156
vn -0.1343 -0.9845 0.1130
vt 0.942029 0.999409
vt 0.941931 0.999300
vt 0.942029 0.999261
vt 0.945187 0.999301
vt 0.945087 0.999408
vt 0.945087 0.999261
vt 0.738797 0.999261
vt 0.738740 0.999457
vt 0.738693 0.999261
vt 0.713884 0.999434
vt 0.713984 0.999261
vt 0.713984 0.999465
vt 0.942128 0.999261
vt 0.942128 0.999409
vt 0.942029 0.999300
vt 0.945287 0.999301
vt 0.945187 0.999408
vt 0.945187 0.999261
vt 0.715371 0.999465
vt 0.715269 0.999437
vt 0.715371 0.999261
vt 0.713485 0.999436
vt 0.713382 0.999465
vt 0.713382 0.999261
vt 0.732921 0.999262
vt 0.732921 0.999459
vt 0.732821 0.999261
vt 0.732821 0.999457
vt 0.731246 0.999459
vt 0.731246 0.999263
vt 0.731345 0.999456
vt 0.731346 0.999261
vt 0.718417 0.999287
vt 0.718517 0.999261
vt 0.718517 0.999464
vt 0.720222 0.999436
vt 0.720122 0.999463
vt 0.720122 0.999261
vt 0.964658 0.999261
vt 0.964753 0.999295
vt 0.964658 0.999407
vt 0.993148 0.999292
vt 0.993241 0.999261
vt 0.993241 0.999405
vt 0.737744 0.999262
vt 0.737744 0.999457
vt 0.737638 0.999261
vt 0.737637 0.999457
vt 0.735661 0.999456
vt 0.735661 0.999262
vt 0.735767 0.999458
vt 0.735768 0.999261
vt 0.611380 0.999476
vt 0.611347 0.999487
vt 0.611347 0.999261
vt 0.641483 0.999261
vt 0.641483 0.999480
vt 0.641394 0.999307
vt 0.671130 0.999302
vt 0.671039 0.999476
vt 0.671039 0.999261
vt 0.750833 0.999261
vt 0.750828 0.999458
vt 0.750799 0.999261
vt 0.741542 0.999261
vt 0.741646 0.999262
vt 0.741542 0.999456
vt 0.741647 0.999456
vt 0.739068 0.999261
vt 0.739171 0.999261
vt 0.739067 0.999457
vt 0.739171 0.999456
vt 0.741647 0.999261
vt 0.741750 0.999261
vt 0.741647 0.999456
vt 0.741751 0.999456
vt 0.739173 0.999261
vt 0.739275 0.999261
vt 0.739171 0.999457
vt 0.739275 0.999456
vt 0.929638 0.999261
vt 0.929734 0.999370
vt 0.929638 0.999410
vt 0.968871 0.999261
vt 0.968871 0.999406
vt 0.968771 0.999294
vt 0.986220 0.999261
vt 0.986220 0.999405
vt 0.986123 0.999296
vt 0.084597 0.999853
vt 0.084654 0.999718
vt 0.084699 0.999853
vt 0.741855 0.999456
vt 0.741751 0.999456
vt 0.741854 0.999261
vt 0.741751 0.999261
vt 0.739380 0.999456
vt 0.739276 0.999457
vt 0.739380 0.999261
vt 0.739277 0.999261
s 0
usemtl mat6
f 1/1/1 2/2/2 3/3/3
f 2/4/4 1/5/5 3/6/6
f 6/7/7 5/8/8 4/9/9
f 4/10/10 5/11/11 6/12/12
f 9/13/13 7/14/14 8/15/15
f 8/16/16 7/17/17 9/18/18
f 12/19/19 10/20/20 11/21/21
f 10/22/22 12/23/23 11/24/24
f 13/25/25 14/26/26 16/27/27
f 16/27/28 14/26/29 15/28/30
f 14/29/31 13/30/32 15/31/33
f 15/31/34 13/30/35 16/32/36
f 17/33/37 18/34/38 19/35/39
f 18/36/40 17/37/41 19/38/42
f 22/39/43 20/40/44 21/41/45
f 20/42/46 22/43/47 21/44/48
f 26/45/49 23/46/50 24/47/51
f 24/47/52 23/46/53 25/48/54
f 23/49/55 26/50/56 25/51/57
f 25/51/58 26/50/59 24/52/60
f 29/53/61 27/54/62 30/55/63
f 30/56/64 27/57/65 28/58/66
f 28/59/67 29/60/68 30/61/69
f 29/62/70 28/63/71 27/64/72
f 31/65/73 32/66/74 33/67/75
f 33/67/76 32/66/77 34/68/78
f 32/69/79 31/70/80 34/71/81
f 34/71/82 31/70/83 33/72/84
f 35/73/85 36/74/86 37/75/87
f 37/75/88 36/74/77 38/76/89
f 36/77/90 35/78/91 38/79/92
f 38/79/93 35/78/94 37/80/95
f 39/81/96 40/82/97 41/83/98
f 40/84/99 39/85/100 41/86/101
f 44/87/102 42/88/103 43/89/104
f 43/90/105 42/91/106 44/92/107
f 45/93/89 46/94/88 47/95/77
f 47/95/108 46/94/75 48/96/109
f 46/97/110 45/98/111 48/99/112
f 48/99/91 45/98/90 47/100/90