# Blender 4.0.2
# www.blender.org
mtllib rocketL3.mtl
o obj3
v 0.026857 -0.447998 -1.249632
v 0.078997 -0.559323 -1.217906
v 0.076379 -0.560383 -1.217792
v 0.078756 -0.529840 -1.120905
v 0.076150 -0.530961 -1.120891
v 0.026857 -0.383209 -1.037083
v 0.030080 -0.376340 -1.019040
v 0.030439 -0.450384 -1.262452
v 0.032740 -0.380922 -1.037780
vn -0.9998 -0.0057 -0.0192
vn -0.9995 -0.0087 -0.0294
vn -1.0000 -0.0000 -0.0000
vn -0.9211 0.1438 0.3617
vn -1.0000 0.0008 0.0024
vn -0.3872 0.4971 0.7765
vn 0.1464 -0.2657 -0.9529
vn 0.1472 -0.2661 -0.9526
vn 0.1463 -0.2657 -0.9529
vn 0.9993 0.0155 0.0327
vn 0.9947 0.0332 0.0972
vn 1.0000 0.0067 0.0027
vn 0.9996 0.0030 0.0297
vn 0.9999 -0.0028 0.0102
vn 0.9978 0.0129 0.0645
vn 0.7068 0.1625 0.6885
vn 0.3237 -0.9346 0.1474
vn 0.6859 0.1813 0.7048
vn 0.0147 -0.9654 0.2605
vn 0.0149 -0.9589 0.2834
vn 0.0133 -0.9793 0.2022
vn 0.0128 -0.9628 0.2700
vn 0.0128 -0.9501 0.3117
vn 0.0123 -0.9389 0.3439
vn 0.0178 0.9432 -0.3317
vn 0.0174 0.9518 -0.3064
vn 0.0177 0.9456 -0.3249
vn -0.0058 0.9537 -0.3006
vn -0.0058 0.9539 -0.3000
vn -0.0058 0.9550 -0.2965
vn 0.1890 -0.8948 0.4045
vn 0.1891 -0.8942 0.4057
vn 0.1889 -0.8949 0.4043
vn 0.0465 -0.9989 -0.0013
vn 0.0481 -0.9988 -0.0105
vn 0.0488 -0.9987 -0.0146
vn 0.1543 0.9723 -0.1758
vn 0.1610 0.9610 -0.2250
vn 0.1553 0.9706 -0.1839
vt 0.472316 0.576929
vt 0.470961 0.584913
vt 0.469689 0.576957
vt 0.471345 0.485001
vt 0.469689 0.479657
vt 0.226918 0.493941
vt 0.228087 0.493941
vt 0.227876 0.546608
vt 0.468522 0.433216
vt 0.469689 0.433343
vt 0.468522 0.475161
vt 0.469689 0.475241
vt 0.468780 0.374384
vt 0.421901 0.822007
vt 0.421900 0.780123
vt 0.474339 0.821113
vt 0.474339 0.729218
vt 0.877539 0.269135
vt 0.877515 0.311041
vt 0.825132 0.218197
vt 0.825132 0.315341
vt 0.474259 0.721294
vt 0.474250 0.826518
vt 0.825203 0.210182
s 0
usemtl mat1
f 6/1/1 7/2/2 9/3/3
f 6/1/3 9/3/3 1/4/3
f 1/4/4 9/3/5 8/5/6
f 2/6/7 3/7/8 8/8/9
f 4/9/10 5/10/11 2/11/12
f 2/11/13 5/10/14 3/12/15
f 4/9/16 7/13/17 5/10/18
f 3/14/19 5/15/20 1/16/21
f 1/16/22 5/15/23 6/17/24
f 4/18/25 2/19/26 9/20/27
f 9/20/28 2/19/29 8/21/30
f 6/17/31 5/15/32 7/22/33
f 1/16/34 8/23/35 3/14/36
f 7/24/37 4/18/38 9/20/39