# Blender 4.0.2
# www.blender.org
mtllib rocketL3.mtl
o obj30
v -0.026919 0.164931 0.654079
v -0.028325 0.166303 0.654056
v -0.026893 0.164956 0.652094
v -0.028261 0.166343 0.654060
vn 0.0121 -0.9998 0.0163
vn 0.0121 -0.9998 0.0149
vn 0.0120 -0.9998 0.0175
vn 0.0258 0.9996 0.0111
vn 0.0257 0.9995 0.0183
vn 0.0258 0.9996 0.0152
vn -0.6764 0.7366 -0.0054
vn -0.6161 0.7876 0.0098
vn -0.5614 0.8273 0.0179
vn -0.7071 0.7072 -0.0005
vn -0.7121 0.7020 0.0061
vn -0.5540 0.8325 0.0063
vt 0.998593 0.538880
vt 0.998593 0.538067
vt 0.999415 0.538870
vt 0.998593 0.539477
vt 0.999415 0.539486
vt 0.998593 0.540284
vt 0.999738 0.292787
vt 0.998593 0.292755
vt 0.999742 0.292755
vt 0.999406 0.567744
vt 0.998593 0.567744
vt 0.999399 0.567713
s 0
usemtl mat15
f 1/1/1 2/2/2 3/3/3
f 1/4/4 3/5/5 4/6/6
f 4/7/7 3/8/8 2/9/9
f 2/10/10 1/11/11 4/12/12