# Blender 4.0.2
# www.blender.org
mtllib rocketL3.mtl
o obj3
v 0.026857 0.076703 -1.212879
v 0.078997 -0.039035 -1.214991
v 0.076379 -0.040082 -1.215191
v 0.078756 -0.039116 -1.113608
v 0.076150 -0.040192 -1.113922
v 0.026857 0.076703 -0.990675
v 0.030080 0.078013 -0.971413
v 0.030439 0.078159 -1.225838
v 0.032740 0.079094 -0.990675
vn -0.9998 0.0001 -0.0200
vn -0.9995 0.0002 -0.0307
vn -1.0000 -0.0000 -0.0000
vn -1.0000 -0.0000 0.0004
vn -0.9211 0.0321 0.3879
vn -1.0000 -0.0000 0.0025
vn -0.3872 0.2491 0.8877
vn 0.1464 0.0237 -0.9889
vn 0.1472 0.0232 -0.9888
vn 0.1463 0.0237 -0.9890
vn 0.9993 0.0053 0.0358
vn 0.9947 0.0034 0.1026
vn 1.0000 0.0056 0.0046
vn 0.9996 -0.0058 0.0293
vn 0.9999 -0.0056 0.0089
vn 0.9978 -0.0065 0.0653
vn 0.7068 -0.0453 0.7059
vn 0.3272 -0.9358 -0.1313
vn 0.6859 -0.0321 0.7270
vn 0.0147 -0.9994 -0.0323
vn 0.0149 -0.9999 -0.0085
vn 0.0133 -0.9957 -0.0921
vn 0.0128 -0.9997 -0.0224
vn 0.0128 -0.9997 0.0211
vn 0.0123 -0.9984 0.0552
vn 0.0178 0.9989 -0.0422
vn 0.0174 0.9997 -0.0155
vn 0.0177 0.9992 -0.0350
vn -0.0058 0.9999 -0.0094
vn -0.0058 0.9999 -0.0088
vn -0.0058 1.0000 -0.0051
vn 0.1890 -0.9739 0.1260
vn 0.1891 -0.9737 0.1273
vn 0.1889 -0.9739 0.1258
vn 0.0465 -0.9551 -0.2925
vn 0.0481 -0.9523 -0.3012
vn 0.0488 -0.9511 -0.3051
vn 0.1543 0.9813 0.1153
vn 0.1610 0.9848 0.0650
vn 0.1553 0.9820 0.1071
vt 0.472316 0.576929
vt 0.470961 0.584913
vt 0.469689 0.576957
vt 0.471345 0.485001
vt 0.469689 0.479657
vt 0.226918 0.493941
vt 0.228087 0.493941
vt 0.227876 0.546608
vt 0.468522 0.433216
vt 0.469689 0.433343
vt 0.468522 0.475161
vt 0.469689 0.475241
vt 0.468780 0.374384
vt 0.421901 0.822007
vt 0.421900 0.780123
vt 0.474339 0.821113
vt 0.474339 0.729218
vt 0.877539 0.269135
vt 0.877515 0.311041
vt 0.825132 0.218197
vt 0.825132 0.315341
vt 0.474259 0.721294
vt 0.474250 0.826518
vt 0.825203 0.210182
s 0
usemtl mat1
f 6/1/1 7/2/2 9/3/3
f 6/1/4 9/3/3 1/4/3
f 1/4/5 9/3/6 8/5/7
f 2/6/8 3/7/9 8/8/10
f 4/9/11 5/10/12 2/11/13
f 2/11/14 5/10/15 3/12/16
f 4/9/17 7/13/18 5/10/19
f 3/14/20 5/15/21 1/16/22
f 1/16/23 5/15/24 6/17/25
f 4/18/26 2/19/27 9/20/28
f 9/20/29 2/19/30 8/21/31
f 6/17/32 5/15/33 7/22/34
f 1/16/35 8/23/36 3/14/37
f 7/24/38 4/18/39 9/20/40